<svg height="512" viewBox="0 0 152 152" width="512" xmlns="http://www.w3.org/2000/svg"><g id="Layer_2" data-name="Layer 2"><g id="_02.twitter" data-name="02.twitter"><path d="m76 0a76 76 0 1 0 76 76 76 76 0 0 0 -76-76zm37.85 53a32.09 32.09 0 0 1 -6.51 7.15 2.78 2.78 0 0 0 -1 2.17v.25a45.58 45.58 0 0 1 -2.94 15.86 46.45 46.45 0 0 1 -8.65 14.5 42.73 42.73 0 0 1 -18.75 12.39 46.9 46.9 0 0 1 -14.74 2.29 45 45 0 0 1 -22.6-6.09 1.3 1.3 0 0 1 -.62-1.44 1.25 1.25 0 0 1 1.22-.94h1.9a30.31 30.31 0 0 0 16.94-5.14 16.45 16.45 0 0 1 -13-11.17.86.86 0 0 1 1-1.11 15.08 15.08 0 0 0 2.76.26h.35a16.42 16.42 0 0 1 -9.57-15.11.86.86 0 0 1 1.27-.75 14.44 14.44 0 0 0 3.74 1.45 16.42 16.42 0 0 1 -2.65-19.91.86.86 0 0 1 1.41-.11 43 43 0 0 0 29.51 15.77h.08a.62.62 0 0 0 .6-.67 17.39 17.39 0 0 1 .38-6 15.91 15.91 0 0 1 10.7-11.44 17.59 17.59 0 0 1 5.19-.8 16.36 16.36 0 0 1 10.84 4.09 2.12 2.12 0 0 0 1.41.54 2.15 2.15 0 0 0 .5-.07 30.3 30.3 0 0 0 8-3.3.85.85 0 0 1 1.25 1 16.23 16.23 0 0 1 -4.31 6.87 29.38 29.38 0 0 0 5.24-1.77.86.86 0 0 1 1.05 1.23z"/></g></g></svg>