<svg height="512" viewBox="0 0 152 152" width="512" xmlns="http://www.w3.org/2000/svg"><g id="Layer_2" data-name="Layer 2"><g id="_03.skype" data-name="03.skype"><path d="m68.9 65.3c0 2.15 1 3 7.1 4.46l1.22.29c6.68 1.59 16.78 4 16.78 15.13a12.12 12.12 0 0 1 -7.6 11.82 26.77 26.77 0 0 1 -10.4 1.67h-.47c-10.49 0-17.11-8.16-17.39-8.51a5 5 0 0 1 7.8-6.16s4 4.57 9.59 4.75h.47c6.36.11 7.84-1.85 8-3.53.24-2-1.43-3.48-8-5.15l-1.09-.27c-6.37-1.51-16-3.79-16-14.05 0-3.13 1.25-13.22 17.07-13.6h.94c10.55 0 16.78 8.3 17 8.66a5 5 0 0 1 -8 5.94 15 15 0 0 0 -9-4.62c-.32 0-.63 0-.94 0-3.68-.21-7.08 1.19-7.08 3.17z"/><path d="m76 0a76 76 0 1 0 76 76 76 76 0 0 0 -76-76zm38 92.14a16.27 16.27 0 0 1 -15 15.3 16.06 16.06 0 0 1 -5.53-.57 9.85 9.85 0 0 0 -6 .29 33.18 33.18 0 0 1 -44.64-31.16 9.76 9.76 0 0 0 -1.77-5.76 16.21 16.21 0 0 1 17.53-25.11 9.85 9.85 0 0 0 6-.28 33.18 33.18 0 0 1 44.58 31.15 9.76 9.76 0 0 0 1.77 5.76 16.15 16.15 0 0 1 3.06 10.38z"/></g></g></svg>