<svg height="512" viewBox="0 0 152 152" width="512" xmlns="http://www.w3.org/2000/svg"><g id="Layer_2" data-name="Layer 2"><g id="_06.vimeo" data-name="06.vimeo"><path d="m76 0a76 76 0 1 0 76 76 76 76 0 0 0 -76-76zm37 62.06c-.32 7.17-5.43 17-15 29.43-9.27 12.06-16.69 18-23 19.26a13.24 13.24 0 0 1 -2.54.25c-6.54 0-12.92-18.32-17.11-33.7-2.21-7.92-4.05-11.24-6.18-11.14-2 .1-4.56 2-7.31 3.9l-.08.07a2 2 0 0 1 -2.78-.41l-1.58-2a2 2 0 0 1 .28-2.78l1.3-1.16c8.5-7.38 18.85-15.85 23.48-15.85 6.09 0 7 3.33 8.9 10 .09.31 1.75 7.65 3.62 14.93s4 14.63 4.89 14.63c.54 0 2.43-2.41 5.85-7.79 2.82-4.42 5.08-8.58 5.52-10.14.53-1.85.43-3.26-.29-4.21-.92-1.23-2.79-1.49-4.2-1.49a12.29 12.29 0 0 0 -3.23.46 1.55 1.55 0 0 1 -1.85-2c3.8-10.49 10.61-15.62 20.25-15.32 3.41.1 6.07 1.16 7.91 3.14 2.31 2.51 3.36 6.51 3.15 11.92z"/></g></g></svg>