<svg height="512" viewBox="0 0 152 152" width="512" xmlns="http://www.w3.org/2000/svg"><g id="Layer_2" data-name="Layer 2"><g id="_11.reddit" data-name="11.reddit"><path d="m62.09 91a6.42 6.42 0 1 1 6.28-6.38 6.35 6.35 0 0 1 -6.28 6.38z"/><path d="m90 97.57a1.52 1.52 0 0 1 0 2.23c-5.83 5.91-22.28 5.91-28.11 0a1.54 1.54 0 0 1 2.11-2.23c4.45 4.63 19.22 4.71 23.87 0a1.52 1.52 0 0 1 2.13 0z"/><path d="m96.29 84.62a6.32 6.32 0 1 1 -6.36-6.45 6.38 6.38 0 0 1 6.36 6.45z"/><path d="m76 0a76 76 0 1 0 76 76 76 76 0 0 0 -76-76zm33.34 83.68a15.78 15.78 0 0 1 .49 4.08c0 13.62-15.12 24.65-33.76 24.65s-33.69-11-33.69-24.65a18.41 18.41 0 0 1 .42-4c-8.16-4.14-5.24-16.27 3.66-16.27a8.46 8.46 0 0 1 6.15 2.65 41.17 41.17 0 0 1 21.84-7l4.87-22.34a1.5 1.5 0 0 1 1.76-1.15l15.6 3.51a6.37 6.37 0 1 1 5.66 9.33 6.34 6.34 0 0 1 -6.28-6.38l-14.13-3.21-4.43 20.28a40.71 40.71 0 0 1 22 6.88 8.47 8.47 0 0 1 6.07-2.59c8.82.01 11.76 12.05 3.77 16.21z"/></g></g></svg>