<svg height="512" viewBox="0 0 152 152" width="512" xmlns="http://www.w3.org/2000/svg"><g id="Layer_2" data-name="Layer 2"><g id="_12.yahoo" data-name="12.yahoo"><path d="m76 0a76 76 0 1 0 76 76 76 76 0 0 0 -76-76zm-11.17 110.31a1.7 1.7 0 0 1 -1.56 1h-11.58a1.69 1.69 0 0 1 -1.56-2.31l4.12-10.2-16.12-39.53a1.68 1.68 0 0 1 1.56-2.27h11.94a1.68 1.68 0 0 1 1.57 1l8.62 22.06 8.94-22.06a1.68 1.68 0 0 1 1.56-1h11.59a1.69 1.69 0 0 1 1.56 2.32zm24.59-12.26a9.36 9.36 0 1 1 9.36-9.36 9.36 9.36 0 0 1 -9.36 9.36zm24.46-55.05-12.25 30.13a1.69 1.69 0 0 1 -1.56 1.05h-11.57a1.69 1.69 0 0 1 -1.57-2.32l12.23-30.16a1.7 1.7 0 0 1 1.56-1.05h11.59a1.69 1.69 0 0 1 1.57 2.35z"/></g></g></svg>