<svg height="512" viewBox="0 0 152 152" width="512" xmlns="http://www.w3.org/2000/svg"><g id="Layer_2" data-name="Layer 2"><g id="_15.groupme" data-name="15.groupme"><path d="m72.54 58.29h6.92v6.92h-6.92z"/><path d="m76 0a76 76 0 1 0 76 76 76 76 0 0 0 -76-76zm-20.42 65.21h8.56v-6.92h-8.56v-8.4h8.56v-8.56h8.4v8.56h6.92v-8.56h8.4v8.56h8.56v8.4h-8.56v6.92h8.56v8.4h-8.56v8.56h-8.4v-8.56h-6.92v8.56h-8.4v-8.56h-8.56zm57.42 26.56a45.67 45.67 0 0 1 -74 0 5.19 5.19 0 0 1 8.4-6.09 35.32 35.32 0 0 0 57.22 0 5.19 5.19 0 0 1 8.4 6.09z"/></g></g></svg>