<svg height="512" viewBox="0 0 152 152" width="512" xmlns="http://www.w3.org/2000/svg"><g id="Layer_2" data-name="Layer 2"><g id="_16.kik" data-name="16.kik"><path d="m76 0a76 76 0 1 0 76 76 76 76 0 0 0 -76-76zm-15.66 94.11a3.84 3.84 0 0 1 -5.34-.72l-6.64-8.9-2.64 2.65v3.92a3.84 3.84 0 1 1 -7.68 0v-30.13a3.84 3.84 0 1 1 7.68 0v15.35l7.76-7.76a3.84 3.84 0 0 1 5.38 5.48l-5 5 7.24 9.73a3.84 3.84 0 0 1 -.76 5.38zm13.9-3a3.84 3.84 0 1 1 -7.68 0v-19.99a3.84 3.84 0 1 1 7.68 0zm27.7 3a3.83 3.83 0 0 1 -5.38-.72l-6.63-8.9-2.65 2.65v3.92a3.84 3.84 0 0 1 -7.68 0v-30.13a3.84 3.84 0 0 1 7.68 0v15.35l7.72-7.76a3.84 3.84 0 0 1 5.47 5.48l-5.06 5 7.25 9.73a3.85 3.85 0 0 1 -.72 5.38zm7.69-10.37a4.37 4.37 0 1 1 4.37-4.37 4.37 4.37 0 0 1 -4.37 4.37z"/></g></g></svg>