<svg height="512" viewBox="0 0 152 152" width="512" xmlns="http://www.w3.org/2000/svg"><g id="Layer_2" data-name="Layer 2"><g id="_19.vk" data-name="19.vk"><path d="m76 0a76 76 0 1 0 76 76 76 76 0 0 0 -76-76zm35.05 99.72c-1.78.25-10.43 0-10.88 0a8.51 8.51 0 0 1 -6-2.39c-1.83-1.76-3.48-3.69-5.23-5.53a14.68 14.68 0 0 0 -1.71-1.54c-1.43-1.1-2.84-.85-3.51.83a32.25 32.25 0 0 0 -1.08 5.57 3 3 0 0 1 -3.11 2.89c-1.18.06-2.36.08-3.53 0a26.87 26.87 0 0 1 -12.23-3 33.45 33.45 0 0 1 -10.45-9.14 110.17 110.17 0 0 1 -11.58-19c-.17-.33-3.54-7.5-3.62-7.84a2 2 0 0 1 .93-2.57c.6-.23 11.71 0 11.89 0a3.86 3.86 0 0 1 3.73 2.68 58.28 58.28 0 0 0 8.33 14.62 8 8 0 0 0 1.69 1.54 1.28 1.28 0 0 0 2.14-.64 18.29 18.29 0 0 0 .77-4.46c.06-3 0-5-.17-8a3.89 3.89 0 0 0 -3.61-4.11c-.88-.15-1-.87-.39-1.59 1.17-1.49 2.79-1.73 4.55-1.82 2.66-.15 5.33 0 8 0h.58a17.15 17.15 0 0 1 3.49.35 3.18 3.18 0 0 1 2.53 2.84 11.79 11.79 0 0 1 .18 2.29c-.07 3.28-.23 6.55-.27 9.82a17.78 17.78 0 0 0 .35 3.86c.39 1.74 1.58 2.18 2.8.92a44.08 44.08 0 0 0 4.17-5.23 52.25 52.25 0 0 0 5.54-10.74c.77-1.94 1.36-2.37 3.45-2.37h11.79a7.29 7.29 0 0 1 2.08.27 1.8 1.8 0 0 1 1.24 2.32 19.46 19.46 0 0 1 -3.48 6.9c-2.4 3.4-4.92 6.71-7.38 10.06a11.66 11.66 0 0 0 -.85 1.34c-.92 1.67-.85 2.6.48 4 2.14 2.21 4.43 4.27 6.49 6.53a39 39 0 0 1 4.1 5.32c1.52 2.38.59 4.62-2.22 5.02z"/></g></g></svg>