<svg height="512" viewBox="0 0 152 152" width="512" xmlns="http://www.w3.org/2000/svg"><g id="Layer_2" data-name="Layer 2"><g id="_22.soundcloud" data-name="22.soundcloud"><path d="m76 0a76 76 0 1 0 76 76 76 76 0 0 0 -76-76zm-36.84 87.91a.31.31 0 0 1 -.3.29.32.32 0 0 1 -.31-.3l-.55-4.15.55-4.22a.32.32 0 0 1 .31-.29.31.31 0 0 1 .3.29l.66 4.23zm2.84 2.52a.32.32 0 0 1 -.64 0l-.74-6.68.74-6.82a.32.32 0 0 1 .64 0l.85 6.82zm3 1.13a.4.4 0 0 1 -.38.37.39.39 0 0 1 -.38-.37l-.71-7.8.71-8.1a.39.39 0 0 1 .38-.38.41.41 0 0 1 .38.38l.8 8.1zm3.08.25a.47.47 0 0 1 -.45.43.46.46 0 0 1 -.45-.43l-.67-8 .67-8.32a.46.46 0 0 1 .45-.44.47.47 0 0 1 .45.44l.75 8.32zm3.09.06a.51.51 0 0 1 -1 0l-.63-8.11.65-7.76a.51.51 0 0 1 1 0l.72 7.73zm3.13 0a.6.6 0 0 1 -.58.57.59.59 0 0 1 -.58-.56l-.59-8.12.59-12.56a.58.58 0 0 1 1.16 0l.7 12.56zm3.1 0a.66.66 0 0 1 -.65.63.65.65 0 0 1 -.63-.63l-.52-8.07.56-15.43a.64.64 0 0 1 .63-.63.66.66 0 0 1 .65.63l.63 15.43zm3.22-.13a.72.72 0 0 1 -.71.7.7.7 0 0 1 -.7-.69l-.52-8 .52-16.72a.72.72 0 0 1 .7-.71.73.73 0 0 1 .71.71l.58 16.72zm3.2 0a.78.78 0 0 1 -.77.77.77.77 0 0 1 -.77-.76l-.49-7.94.49-17.28a.77.77 0 0 1 1.54 0l.53 17.28zm3.22-.07a.85.85 0 0 1 -.84.83.84.84 0 0 1 -.83-.83l-.37-7.9.43-16.84a.85.85 0 0 1 .84-.83.83.83 0 0 1 .83.83l.5 16.84zm3.24-.05a.9.9 0 0 1 -1.8 0l-.4-7.81.4-16.23a.91.91 0 0 1 .9-.89.89.89 0 0 1 .9.89l.46 16.23zm3.31-.82v.77a1 1 0 0 1 -1 1 1 1 0 0 1 -1-.92l-.37-7.76.36-19.12v-.18a1 1 0 0 1 .44-.8.94.94 0 0 1 1 0 1 1 0 0 1 .43.8l.55 19.18zm3.22.66a1 1 0 0 1 -2.06 0l-.21-3.77-.21-3.87.42-20.95v-.1a1 1 0 0 1 .38-.8 1.07 1.07 0 0 1 .65-.23 1 1 0 0 1 .53.14 1.08 1.08 0 0 1 .51.88l.45 21.06zm27.81 1h-25.88a1.1 1.1 0 0 1 -1-1.07v-29.68c0-.55.2-.83.9-1.1a16.77 16.77 0 0 1 6-1.12 16.5 16.5 0 0 1 16.43 15 9.33 9.33 0 1 1 3.62 17.92z"/></g></g></svg>