<svg height="512" viewBox="0 0 152 152" width="512" xmlns="http://www.w3.org/2000/svg"><g id="Layer_2" data-name="Layer 2"><g id="_23.imo" data-name="23.imo"><ellipse cx="93.74" cy="78.16" rx="3.24" ry="4.38"/><path d="m76.73 45.1a30.91 30.91 0 0 0 -25.55 48.29s-1.92 6.67-4.11 8.86c0 0 1.52 1.18 9.34-3a30.9 30.9 0 1 0 20.32-54.15zm-17.8 38.9a2.1 2.1 0 1 1 -4.2 0v-11.77a2.1 2.1 0 1 1 4.2 0zm-2.1-14.91a2.28 2.28 0 1 1 2.28-2.28 2.28 2.28 0 0 1 -2.28 2.28zm27.38 15.14a1.88 1.88 0 0 1 -1.88 1.87h-.45a1.87 1.87 0 0 1 -1.88-1.87v-9.23s-1.87-2.73-4.31 0v9.59s-1.9 3.56-3.9 0v-9.53s-.64-2.47-3.75-1.1l-.63 1.16v9.11a1.87 1.87 0 0 1 -1.87 1.87h-.46a1.87 1.87 0 0 1 -1.87-1.87v-12.23a1.87 1.87 0 0 1 1.87-1.87h.46a1.86 1.86 0 0 1 1.77 1.29s4-3.57 7.49.44c0 0 5.38-4.8 9 1.06a1.89 1.89 0 0 1 .41 1.17zm9.44 1.87c-4 0-7.26-3.56-7.26-7.94s3.25-7.94 7.26-7.94 7.26 3.55 7.26 7.94-3.25 7.94-7.26 7.94z"/><path d="m76 0a76 76 0 1 0 76 76 76 76 0 0 0 -76-76zm.73 113.27a37.13 37.13 0 0 1 -21.33-6.7c-8.49 3.76-13.12 1.43-13.12 1.43-4.93-1.92-4.25-5.34-4.25-5.34 4.35-2.45 6-8.55 6.07-8.65a37.27 37.27 0 1 1 32.63 19.26z"/></g></g></svg>