<svg height="512" viewBox="0 0 152 152" width="512" xmlns="http://www.w3.org/2000/svg"><g id="Layer_2" data-name="Layer 2"><g id="_25.line" data-name="25.line"><path d="m65.53 77a1.9 1.9 0 0 1 .57 1.37 1.94 1.94 0 0 1 -1.94 2h-7.77a2 2 0 0 1 -2-2v-14.71a1.95 1.95 0 0 1 3.89 0v12.73h5.83a1.93 1.93 0 0 1 1.42.61z"/><rect height="18.56" rx="1.52" width="3.89" x="67.94" y="61.72"/><path d="m89.9 63.66v14.6a2 2 0 0 1 -2 2 1.88 1.88 0 0 1 -1.32-.54c-.07 0-2.68-3.44-4.9-6.31l-3.1-4v8.9a1.93 1.93 0 0 1 -1.94 2 2 2 0 0 1 -1.31-.51 1.92 1.92 0 0 1 -.64-1.44v-14.62a2 2 0 0 1 1.88-2 2 2 0 0 1 1.52.65c.08.1 4.1 5.32 6.36 8.28.9 1.16 1.52 2 1.52 2v-9a1.94 1.94 0 0 1 3.88 0z"/><path d="m96.71 65.61v3.45h5.82a1.93 1.93 0 0 1 2 1.94 1.94 1.94 0 0 1 -2 1.94h-5.82v3.45h5.82a2 2 0 0 1 1.38.57 1.94 1.94 0 0 1 -1.38 3.32h-7.77a1.94 1.94 0 0 1 -1.94-2v-14.62a2 2 0 0 1 1.94-1.94h7.77a1.95 1.95 0 1 1 0 3.89z"/><path d="m76 0a76 76 0 1 0 76 76 76 76 0 0 0 -76-76zm38 71.82a19.92 19.92 0 0 1 -.29 2.3 25.55 25.55 0 0 1 -2.91 8.32c-.68 1.23-4 5.9-5 7.13-5.62 6.76-15 14.57-30.76 22.16a2.07 2.07 0 0 1 -3-2.08l.8-7.14a2.08 2.08 0 0 0 -1.84-2.29 44.08 44.08 0 0 1 -15-4.22c-10.81-5.37-18-14.89-18-25.73 0-16.69 17-30.22 38-30.22 10.54 0 20.07 3.42 27 8.94 6.43 5.14 10.55 12.13 11 19.88a27 27 0 0 1 0 2.95z"/></g></g></svg>