<svg height="512" viewBox="0 0 152 152" width="512" xmlns="http://www.w3.org/2000/svg"><g id="Layer_2" data-name="Layer 2"><g id="_26.quora" data-name="26.quora"><path d="m90.45 71.1a37 37 0 0 1 -3.58 16.25c-2.54-3.63-5.59-6.71-9.94-7.69l-.93-.19a20.84 20.84 0 0 0 -15.56 3.66l2 4.09s2-1.15 7 0c2.46.57 4.49 3.37 6.6 7 .58 1 1.16 2 1.76 3.1a14.85 14.85 0 0 1 -1.8.68 12.86 12.86 0 0 1 -4.27.73c-10.35.02-18.73-12.36-18.73-27.63s8.38-27.64 18.73-27.64a13.11 13.11 0 0 1 4.27.72c8.28 2.82 14.45 13.82 14.45 26.92z"/><path d="m76 0a76 76 0 1 0 76 76 76 76 0 0 0 -76-76zm20.77 114c-7.37 0-12.08-5.3-15.79-11.19a30.68 30.68 0 0 1 -5 1.1 30.23 30.23 0 0 1 -4.27.3c-17.71 0-32.1-14.82-32.1-33.11s14.39-33.1 32.12-33.1a31.79 31.79 0 0 1 4.27.29c15.71 2.16 27.83 16 27.83 32.81a33.45 33.45 0 0 1 -11.37 25.28c2.45 3.79 5.06 6.71 8.89 6.71 5 0 5.33-5.45 5.33-5.45h5.71s-.62 16.36-15.62 16.36z"/></g></g></svg>