<svg height="512" viewBox="0 0 152 152" width="512" xmlns="http://www.w3.org/2000/svg"><g id="Layer_2" data-name="Layer 2"><g id="_27.digg" data-name="27.digg"><path d="m102.65 71.18h3.45v9.64h-3.45z"/><path d="m80 71.18v9.64h3.4v-9.64zm0 0v9.64h3.4v-9.64zm0 0v9.64h3.4v-9.64zm0 0v9.64h3.4v-9.64zm-4-71.18a76 76 0 1 0 76 76 76 76 0 0 0 -76-76zm-18.75 87.7h-19.25v-23.4h11.34v-9.94h7.91zm11.35 0h-7.9v-23.4h7.9zm0-26.34h-7.9v-7h7.9zm22.7 36.28h-19.3v-6.88h11.4v-3.06h-11.4v-23.4h19.3zm22.7 0h-19.26v-6.88h11.36v-3.06h-11.36v-23.4h19.26zm-30.6-26.46h-3.4v9.64h3.4zm-37.5 9.64h3.44v-9.64h-3.44zm34.1-9.64v9.64h3.4v-9.64zm0 0v9.64h3.4v-9.64z"/></g></g></svg>