<svg height="512" viewBox="0 0 152 152" width="512" xmlns="http://www.w3.org/2000/svg"><g id="Layer_2" data-name="Layer 2"><g id="_31.blogger" data-name="31.blogger"><path d="m57 62.28a5.22 5.22 0 0 1 5.28-5.28h16.88a5.28 5.28 0 0 1 0 10.56h-16.88a5.22 5.22 0 0 1 -5.28-5.28z"/><path d="m95 89.72a5.22 5.22 0 0 1 -5.28 5.28h-27.44a5.28 5.28 0 1 1 0-10.55h27.44a5.22 5.22 0 0 1 5.28 5.27z"/><path d="m76 0a76 76 0 1 0 76 76 76 76 0 0 0 -76-76zm38 91.2c0 13.1-9.29 22.8-22.59 22.8h-30.61c-13.51 0-22.8-9.7-22.8-22.8v-30.4c0-13.3 9.29-22.8 22.59-22.8h19.21c7.6 0 19.42 7.6 19.42 19v10.56c11.4 0 14.78 4.64 14.78 16z"/></g></g></svg>