<svg height="512" viewBox="0 0 152 152" width="512" xmlns="http://www.w3.org/2000/svg"><g id="Layer_2" data-name="Layer 2"><g id="_35.we_chat" data-name="35.we chat"><path d="m86.61 80.08a3.12 3.12 0 1 1 -4-4 3.14 3.14 0 0 1 4 4z"/><path d="m101.73 80.37a3.17 3.17 0 0 1 -5 .86 4.84 4.84 0 0 1 -1.09-2.32c.33-1.46 1.33-3 3-3a3.18 3.18 0 0 1 3.09 4.46z"/><path d="m76 0a76 76 0 1 0 76 76 76 76 0 0 0 -76-76zm-20.49 90c-3.09 1.64-6.17 3.33-9.26 5q1.29-4.15 2.75-8.2c-4.91-3.27-9-8.17-10.32-14-3.91-15.11 10.7-28.46 27.28-28.46a30.8 30.8 0 0 1 15.21 4h-.17a24.06 24.06 0 0 1 12.1 15.82c-18.44-1.31-30.92 13.47-26 27.43a34.26 34.26 0 0 1 -11.59-1.59zm49.49 11c.76 2.21 1.48 4.43 2.14 6.67-2.58-1.24-4.95-2.92-7.62-4-13.31 3.85-24.57-1.28-29.44-9.41-10.52-17.26 12.45-36.13 32.66-25.85 13 6.59 16.02 22.78 2.26 32.59zm-32.17-38.24c2.28 2.07 6.34.16 6.31-2.89a3.89 3.89 0 1 0 -6.31 2.93zm-17.92-6.76a4 4 0 0 0 -1.09 6.77 3.9 3.9 0 1 0 1.09-6.77z"/></g></g></svg>