<svg height="512" viewBox="0 0 152 152" width="512" xmlns="http://www.w3.org/2000/svg"><g id="Layer_2" data-name="Layer 2"><g id="_36.yelp" data-name="36.yelp"><path d="m76 0a76 76 0 1 0 76 76 76 76 0 0 0 -76-76zm-28.34 86.93a35.55 35.55 0 0 1 0-7.06c.29-2.83.82-6.8 3.6-6.63.71 0 10 3.9 16.73 6.69 2.54 1 2.76 5.4-.22 6.32-.15 0-16.22 5.38-17.2 5.38-2.21-.13-2.7-2.44-2.91-4.7zm28.34 25.32a2.68 2.68 0 0 1 -2.13 1.69c-1.49.25-4-.29-7.57-1.62-3.27-1.22-8.42-3.24-7.32-6.41.41-1 7.63-9.47 11.47-14.11 1.79-2.29 5.92-.83 5.8 2.13-.05.69-.02 17.54-.25 18.32zm-6.56-41-15.83-25.35a2.69 2.69 0 0 1 .79-2.62c2.31-2.49 14.75-6 18-5.15a2.6 2.6 0 0 1 2 1.9c.19 1.26 1.7 25.25 1.91 29 .36 5.81-3.69 7.35-6.92 2.2zm12.56 4.22c.55-.56 9.78-13.93 10.81-14.63a2.57 2.57 0 0 1 2.71-.09c2.73 1.33 8.19 9.52 8.53 12.76a2.82 2.82 0 0 1 -1.1 2.65c-.84.56-16.46 4.25-17.54 4.62v-.09c-2.63.7-5.2-2.79-3.41-5.22zm22.44 20.4c-.4 3.11-6.6 11.07-9.47 12.21a2.44 2.44 0 0 1 -2.63-.3c-.74-.52-9.17-14.64-9.63-15.42-1.63-2.44 1-6 3.8-5 0 0 16.4 5.39 17 5.94a2.57 2.57 0 0 1 .94 2.57z"/></g></g></svg>