<svg height="512" viewBox="0 0 152 152" width="512" xmlns="http://www.w3.org/2000/svg"><g id="Layer_2" data-name="Layer 2"><g id="_40.gab" data-name="40.gab"><path d="m106.81 75.65a5 5 0 1 1 -5-4.93 5 5 0 0 1 5 4.93z"/><path d="m72.23 79.69a2.38 2.38 0 0 0 2.56 2.31c1.66 0 3.55-1.32 3.91-4.13-3.37-1.08-6.47-.51-6.47 1.82zm0 0a2.38 2.38 0 0 0 2.56 2.31c1.66 0 3.55-1.32 3.91-4.13-3.37-1.08-6.47-.51-6.47 1.82zm3.77-79.69a76 76 0 1 0 76 76 76 76 0 0 0 -76-76zm-13.55 84.45c0 9.27-5.17 13.72-12.94 13.72a13.66 13.66 0 0 1 -8.63-2.82l2.87-5.28a9.17 9.17 0 0 0 5.36 1.76c3.82 0 6.15-2.68 6.15-6.55v-1.19a8.23 8.23 0 0 1 -6.42 2.82 11.27 11.27 0 0 1 0-22.52 8.24 8.24 0 0 1 6.43 2.81v-2.11h7.19zm23.44 1.75h-7.19v-1.76a7.58 7.58 0 0 1 -5.85 2.47c-5 0-7.82-3.43-7.82-7.35 0-5.8 7.28-8 13.58-6.11-.14-1.89-1.35-3.26-3.87-3.26a11.31 11.31 0 0 0 -5 1.37l-2.19-5.06a16.33 16.33 0 0 1 8.27-2.11c5.26 0 10.07 2.9 10.07 10.82zm17.28.71a8.25 8.25 0 0 1 -6.43-2.82v2.12h-7.19v-32.38h7.19v13.37a8.24 8.24 0 0 1 6.43-2.81 11.27 11.27 0 0 1 0 22.52zm-30.94-7.22a2.38 2.38 0 0 0 2.56 2.31c1.66 0 3.55-1.32 3.91-4.13-3.37-1.08-6.47-.51-6.47 1.82zm-22-9a4.93 4.93 0 1 0 5 4.93 5 5 0 0 0 -5-4.9z"/></g></g></svg>