<svg height="512" viewBox="0 0 152 152" width="512" xmlns="http://www.w3.org/2000/svg"><g id="Layer_2" data-name="Layer 2"><g id="_44.meetme" data-name="44.meetme"><path d="m58.73 67.3a4.78 4.78 0 1 1 4.78 4.8 4.86 4.86 0 0 1 -4.78-4.8z"/><path d="m78.1 63.74a4.72 4.72 0 1 1 4.71 4.77 4.64 4.64 0 0 1 -4.71-4.77z"/><path d="m100.87 78.25c-12.04 16.84-31.27 19.21-47.19 8.75a2.91 2.91 0 0 1 -.89-4.15 3 3 0 0 1 4.21-.85c14.63 9.37 30.14 5.79 39.13-7.14a2.88 2.88 0 0 1 4.19-1 2.92 2.92 0 0 1 .55 4.39z"/><path d="m76 0a76 76 0 1 0 76 76 76 76 0 0 0 -76-76zm8.08 113.1a37.59 37.59 0 0 1 -26.37-3.79 2.41 2.41 0 0 0 -1.59-.14c-8.86 2.32-16.07 4.32-18.12 4.83 3.43-12.89 4-15.26 4.88-18.24a2.42 2.42 0 0 0 -.22-2 35.67 35.67 0 0 1 -4.55-20.55 38 38 0 1 1 46 39.92z"/></g></g></svg>