<svg height="512" viewBox="0 0 152 152" width="512" xmlns="http://www.w3.org/2000/svg"><g id="Layer_2" data-name="Layer 2"><g id="_48.dribbble" data-name="48.dribbble"><path d="m45.79 69a31 31 0 0 1 15.34-20.1 94.48 94.48 0 0 1 12.25 17.03 47.71 47.71 0 0 1 -27.59 3.07z"/><path d="m53.18 97a30.87 30.87 0 0 1 -8.26-21 71.31 71.31 0 0 0 9.64.85 54.47 54.47 0 0 0 22-4.72c.87 1.82 1.65 3.61 2.39 5.5a54.4 54.4 0 0 0 -25.77 19.37z"/><path d="m81.27 84.08a95 95 0 0 1 4.12 21.38 29.77 29.77 0 0 1 -27-3.91 47.63 47.63 0 0 1 22.88-17.47z"/><path d="m79.55 62.8a99.77 99.77 0 0 0 -11.7-16.67 30 30 0 0 1 25.33 4 47.9 47.9 0 0 1 -13.63 12.67z"/><path d="m106.44 82.23a31.11 31.11 0 0 1 -14.44 20.27 101.73 101.73 0 0 0 -4.09-20.31 47.32 47.32 0 0 1 18.53.04z"/><path d="m98.48 54.64a31 31 0 0 1 8.52 20.67 54.85 54.85 0 0 0 -21.45.3c-.88-2.25-1.82-4.48-2.86-6.67a55 55 0 0 0 15.79-14.3z"/><path d="m76 0a76 76 0 1 0 76 76 76 76 0 0 0 -76-76zm0 114a38 38 0 1 1 38-38 38 38 0 0 1 -38 38z"/></g></g></svg>