<svg height="512" viewBox="0 0 152 152" width="512" xmlns="http://www.w3.org/2000/svg"><g id="Layer_2" data-name="Layer 2"><g id="_52.foursquare" data-name="52.foursquare"><path d="m98.15 47.84-1.43 9.86a1.92 1.92 0 0 1 -1.9 1.64h-17.88a3.9 3.9 0 0 0 -3.94 3.9 3.83 3.83 0 0 0 3.85 3.76h16.15a1.92 1.92 0 0 1 1.89 2.22l-1.78 11.48a1.92 1.92 0 0 1 -1.9 1.62h-14.21a3.83 3.83 0 0 0 -2.86 1.29l-14.67 16.49v-53.74a.71.71 0 0 1 .71-.71h36.07a1.91 1.91 0 0 1 1.9 2.19z"/><path d="m76 0a76 76 0 1 0 76 76 76 76 0 0 0 -76-76zm30.07 47.67-5.58 35.23a8.32 8.32 0 0 1 -8.25 7.1h-13.55l-20.18 22.71a3.81 3.81 0 0 1 -2.86 1.29 3.76 3.76 0 0 1 -1.36-.25 3.83 3.83 0 0 1 -2.47-3.58v-63.81a8.37 8.37 0 0 1 8.36-8.36h37.64a8.36 8.36 0 0 1 8.25 9.67z"/></g></g></svg>