<svg height="512" viewBox="0 0 152 152" width="512" xmlns="http://www.w3.org/2000/svg"><g id="Layer_2" data-name="Layer 2"><g id="_53.swift" data-name="53.swift"><path d="m76 0a76 76 0 1 0 76 76 76 76 0 0 0 -76-76zm37.1 109.25s-3.94-6.43-10.48-6.43c-6.31 0-10.05 6.43-22.81 6.43-28.36 0-41.81-23.25-41.81-23.25 25.56 16.53 43 4.82 43 4.82-11.33-6.45-35.23-36.92-36-37.82 21.36 17.74 30.56 22.42 30.56 22.42-5.54-4.44-21-26.23-21-26.23 12.38 12.25 36.92 29.33 36.92 29.33 7-18.88-6.64-35.77-6.64-35.77 33.41 22.25 22.58 46.79 22.58 46.79s9.49 10.51 5.68 19.71z"/></g></g></svg>