<svg height="512" viewBox="0 0 152 152" width="512" xmlns="http://www.w3.org/2000/svg"><g id="Layer_2" data-name="Layer 2"><g id="_55.meetup" data-name="55.meetup"><path d="m76 0a76 76 0 1 0 76 76 76 76 0 0 0 -76-76zm35.76 106.7c-3.35 2.52-13.93.55-15.68-.61-5.61-3.12-9-8.91-7.68-15.4 2.58-7.77 11.68-24 11.68-26.49.31-2.16-.61-3.39-2.15-3.39-.92 0-2.15.93-3.38 2.47-3.55 7.1 1-2.32-11.07 21.87-2.46 4.93-3.69 7.7-4 8-2.88 6.74-12.41 6-11.37-1.23 0-1 8.61-21.57 8.61-23.41.8-5.62-4.72-5.94-6.15-3.08-9.13 22.15-12.41 35.79-16.57 37.89a11.1 11.1 0 0 1 -13.83-2.77c-3.88-5-1.68-9.86.31-16.32 8.48-27.63 9.11-33.53 16.9-36.66 8.15-3.27 13 3.6 16.6 3.39 2.86-.17 6.72-6.83 12-6.89s9 4.16 10.75 4.35 2.15-1.42 5.81-1.42c6.15.3 9.23 3.07 10.15 8.93 1.15 9.26-18.72 38.64-9.84 42.19 4 1.62 5.54.31 8.6 1.85 2.82.52 3.81 5.57.31 6.73z"/></g></g></svg>