<svg height="512" viewBox="0 0 152 152" width="512" xmlns="http://www.w3.org/2000/svg"><g id="Layer_2" data-name="Layer 2"><g id="_56.etsy" data-name="56.etsy"><path d="m76 0a76 76 0 1 0 76 76 76 76 0 0 0 -76-76zm30.53 112.14a2.18 2.18 0 0 1 -2.16 1.86h-60.37a1.51 1.51 0 0 1 -1.51-1.51v-3.39a1.51 1.51 0 0 1 1.51-1.5h3.83a5.34 5.34 0 0 0 5.34-5.34v-52.52a5.34 5.34 0 0 0 -5.34-5.33h-3.83a1.52 1.52 0 0 1 -1.51-1.51v-3.39a1.52 1.52 0 0 1 1.51-1.51h59.9a2.19 2.19 0 0 1 2.18 2.36l-1.46 18.26a.94.94 0 0 1 -.94.87h-3.45a.94.94 0 0 1 -.94-.94v-5.32a8.82 8.82 0 0 0 -8.83-8.82h-18.87a5.34 5.34 0 0 0 -5.34 5.33v22.42h14.38a6.83 6.83 0 0 0 6.83-6.83v-2.75a1 1 0 0 1 1-.95h3a.94.94 0 0 1 .94.95v25.86a1 1 0 0 1 -.94 1h-3a1 1 0 0 1 -1-1v-1.76a6.83 6.83 0 0 0 -6.83-6.83h-14.38v22.41a5.34 5.34 0 0 0 5.34 5.34h19.86a10.62 10.62 0 0 0 10.15-7.48l2.59-8.34a1 1 0 0 1 .91-.66h3.47a1 1 0 0 1 .94 1.08z"/></g></g></svg>