<svg height="512" viewBox="0 0 152 152" width="512" xmlns="http://www.w3.org/2000/svg"><g id="Layer_2" data-name="Layer 2"><g id="_56.kakao-talk" data-name="56.kakao-talk"><path d="m57.18 69.31c-.64 9.73 1.6 15-2.19 15s-1.56-5.24-2.19-15c-1.36-.24-5.58.94-5.58-2.14a2.15 2.15 0 0 1 2.15-2.17c8 .57 13.38-1.48 13.38 2.13 0 3.17-4.04 1.92-5.57 2.18z"/><path d="m70.88 67.19a3.07 3.07 0 0 0 -5.84 0c-3.11 9.66-7.29 15.62-4.72 16.8 3.41 1.55 3.48-1.94 4.3-3.48h6.68c.82 1.54.9 5 4.31 3.48 2.57-1.18-1.55-6.99-4.73-16.8zm-5.11 9.46 2.23-6.17 2.19 6.17z"/><path d="m88.79 82c0 3.18-5 1.59-9.14 2-3.66 0-1.43-5-2.1-16.79 0-2.88 4.48-2.87 4.48 0v12.79c2.12.29 6.76-1 6.76 2z"/><path d="m103.42 80.75c1.76 2.3-1.75 4.93-3.49 2.62l-5.14-6.77-.76.76v4.75a2.19 2.19 0 0 1 -2.2 2.18c-3.81 0-1.53-5.48-2.19-17.08a2.19 2.19 0 0 1 2.19-2.21c3.31 0 1.88 4.68 2.19 6.86 6.21-5.94 6.06-6.56 7.34-6.56 1.76 0 2.84 2.19 1.66 3.35l-5 5z"/><path d="m76 0a76 76 0 1 0 76 76 76 76 0 0 0 -76-76zm0 103.69a46.75 46.75 0 0 1 -6.75-.47c-21.87 15.32-18.75 14.13-13.44-4.07-10.7-5.27-17.81-14.59-17.81-25.22 0-16.44 17-29.76 38-29.76s38 13.32 38 29.76-17 29.76-38 29.76z"/></g></g></svg>