<svg height="512" viewBox="0 0 152 152" width="512" xmlns="http://www.w3.org/2000/svg"><g id="Layer_2" data-name="Layer 2"><g id="_57.wattpad" data-name="57.wattpad"><path d="m76 0a76 76 0 1 0 76 76 76 76 0 0 0 -76-76zm29.26 69.81c-7.6 12.39-9.93 20.61-13.26 23.92-6.62 7.38-20 4.13-18.42-16-8 13-9.93 28.88-23.4 26.21-14.18-3.85-13.5-37.15-10.18-45.74a13.47 13.47 0 0 1 1.25-3.07c3.35-6.48 11.11-6.53 14.42-2.68s2.4 12 1.88 17.35c3.45-6.09 9.54-14.8 15.16-19.11 8.76-6.52 18.87-2.31 15.89 15.39 4.21-5.89 15.32-18.67 22.19-16.2a4.29 4.29 0 0 1 3 3.2c1.01 4.04-2.32 6.6-8.53 16.73z"/></g></g></svg>