<svg height="512" viewBox="0 0 152 152" width="512" xmlns="http://www.w3.org/2000/svg"><g id="Layer_2" data-name="Layer 2"><g id="_58.lastfm" data-name="58.lastfm"><path d="m76 0a76 76 0 1 0 76 76 76 76 0 0 0 -76-76zm19.89 97.11c-15.06 0-20.29-6.79-23.07-15.23l-2.82-8.71c-2-6.35-4.49-11.32-12.15-11.32-5.32 0-10.71 3.83-10.71 14.54 0 8.36 4.27 13.61 10.27 13.61 6.79 0 11.32-5.06 11.32-5.06l2.79 7.58s-4.71 4.59-14.52 4.59c-12.19 0-19-7.13-19-20.37 0-13.74 6.79-21.85 19.59-21.85 11.58 0 17.41 4.18 21.06 15.5l2.88 8.7c2.08 6.36 5.74 11 14.53 11 5.93 0 9.06-1.31 9.06-4.53 0-2.52-1.48-4.35-5.92-5.39l-5.92-1.39c-7.22-1.75-10.1-5.49-10.1-11.41 0-9.49 7.66-12.45 15.49-12.45 8.89 0 14.28 3.22 15 11.06l-8.67 1.02c-.35-3.74-2.61-5.31-6.79-5.31-3.83 0-6.19 1.74-6.19 4.7 0 2.62 1.13 4.18 5 5.05l5.57 1.22c7.41 1.73 11.41 5.39 11.41 12.44 0 8.71-7.31 12.01-18.11 12.01z"/></g></g></svg>