<svg height="512" viewBox="0 0 152 152" width="512" xmlns="http://www.w3.org/2000/svg"><g id="Layer_2" data-name="Layer 2"><g id="_61.airbnb" data-name="61.airbnb"><path d="m83.92 78.91c0 4.36-2.73 10.27-7.92 17.14-5.19-6.87-7.92-12.78-7.92-17.14 0-11.32 15.84-11.32 15.84 0z"/><path d="m86.16 53c10.36 21.81 19.84 38.6 19.84 44.83 0 10.24-12.58 18.15-26.89 1.92 35.2-45.44-41.35-45.26-6.3 0-3.52 4-8.39 8.6-13.66 9.23-8.53 1.02-13.15-4.98-13.15-11.15 0-6.52 9.9-23.9 20.34-45.83 2.93-6.08 4.66-9.24 9.66-9.24 5.82 0 7.35 4.7 10.16 10.24z"/><path d="m76 0a76 76 0 1 0 76 76 76 76 0 0 0 -76-76zm29.2 110.2c-6.58 5.71-17.59 6.15-29.2-6.84-4.28 4.79-9.82 9.56-16.25 10.34a2.15 2.15 0 0 1 -1 .19c-9.62 1.15-17.54-6.57-17.54-16 0-7.89 10.13-25.36 20.85-47.9 2.83-5.93 5.75-11.99 13.94-11.99s11 5.79 14.45 12.93c20.37 40.6 20.37 42.84 20.37 46.9a16.33 16.33 0 0 1 -5.62 12.37z"/></g></g></svg>