<svg height="512" viewBox="0 0 152 152" width="512" xmlns="http://www.w3.org/2000/svg"><g id="Layer_2" data-name="Layer 2"><g id="_61.odnoklassniki" data-name="61.odnoklassniki"><path d="m76 0a76 76 0 1 0 76 76 76 76 0 0 0 -76-76zm.08 38a19.24 19.24 0 1 1 -19.3 19.19 19.25 19.25 0 0 1 19.3-19.19zm21.54 46a23.13 23.13 0 0 1 -8.33 5.38 39.41 39.41 0 0 1 -9.45 2.12c.49.52.72.78 1 1.09 4.4 4.41 8.79 8.81 13.16 13.22a4.33 4.33 0 0 1 1 5.11 5.16 5.16 0 0 1 -4.86 3 4.69 4.69 0 0 1 -3.14-1.54c-3.31-3.32-6.67-6.59-9.91-10-.94-1-1.39-.8-2.22 0-3.33 3.43-6.7 6.79-10.1 10.14a4.22 4.22 0 0 1 -5.11.92 5.17 5.17 0 0 1 -3-4.76 4.74 4.74 0 0 1 1.6-3.2q6.49-6.48 13-13c.29-.29.55-.59 1-1-5.89-.61-11.2-2.06-15.75-5.62a20 20 0 0 1 -1.66-1.36 4.72 4.72 0 0 1 5.34-7.7 8.09 8.09 0 0 1 1.3.77 25.82 25.82 0 0 0 28.63.26 8 8 0 0 1 2.79-1.44 4.37 4.37 0 0 1 5 2c1.26 2.08 1.24 4.06-.29 5.61zm-21.57-17.35a9.42 9.42 0 1 0 -9.47-9.32 9.35 9.35 0 0 0 9.47 9.32z"/></g></g></svg>