<svg height="512" viewBox="0 0 152 152" width="512" xmlns="http://www.w3.org/2000/svg"><g id="Layer_2" data-name="Layer 2"><g id="_62.angelist" data-name="62.angelist"><path d="m60.2 77.35c0-1.14 1.92-3.13 3.09-3.13 4.43 0 10.15 14 10.15 15.94a1.79 1.79 0 0 1 -1.6 1.69c-3.16 0-11.64-11.41-11.64-14.5z"/><path d="m70.52 67.26c-1.65-4.26-6.88-17.77-6.88-22.09 0-1.77 2.19-6.78 7 7l5.23 14.89c-2.36-.2-4.19-.46-5.35.2z"/><path d="m77.68 86.89c-.43-1.26-1-2.49-1.43-3.72a42.12 42.12 0 0 0 4.5.89 19.49 19.49 0 0 0 -3.07 2.83z"/><path d="m95.87 75.94c2.73 2.39 3.67 16.8-4.69 25.93a21.89 21.89 0 0 1 -16.59 7.22 20.32 20.32 0 0 1 -19.51-13.09c-2.59-6.44.57-10.14 3.12-10.14 1.72 0 8.21 9 8.21 10.85 0 .73-1.17 1.23-1.77 1.23-2.43 0-3.39-2.3-7.73-7.63-4.49 4.41 3.1 12.9 8.82 12.9 4 0 6.52-3.59 5.75-6.23a7.93 7.93 0 0 0 1.77-.09c.17 4 1.38 8.81 6.31 9.16 0-.14.3-1.06.3-1.1 0-2.59-1.6-4.84-1.6-7.47 0-4.2 3.28-8.27 6.61-10.64a15.94 15.94 0 0 1 4.13-1.97 11.42 11.42 0 0 0 4.14-2.28c-.17-1.67-.86-3.14-2.56-3.14-4.19 0-18.24.6-18.24-5.89 0-1 0-1.94 2.64-1.94 4.85 0 17.26 1.18 20.89 4.32z"/><path d="m89.4 68.83-5.15-.89 5-13.91c.61-1.82 3.19-9.54 5.61-9.54 1.3 0 1.65 1.32 1.65 2.37.01 2.84-5.83 18.5-7.11 21.97z"/><path d="m76 0a76 76 0 1 0 76 76 76 76 0 0 0 -76-76zm-2 114c-14.54 0-24.89-11.34-24.88-22.06 0-5.51 2.15-9.16 7.73-10.64a14.7 14.7 0 0 1 -1.21-4.41c0-3.49 3.77-7.81 7.31-7.81a9.11 9.11 0 0 1 3 .64c-1.87-5.22-7-18.81-7-24 0-4.27 2.2-7.67 6.91-7.67 6 0 12.91 21.38 14.38 25.61 1.89-4.67 7.94-24.21 14.69-24.21 4.23 0 6.61 3.31 6.61 7.25 0 4.49-5.1 18.49-6.87 23.32 7.26 1.74 8.31 7.52 8.31 13.91-.06 16.92-11.17 30.07-28.98 30.07z"/></g></g></svg>