<svg height="512" viewBox="0 0 152 152" width="512" xmlns="http://www.w3.org/2000/svg"><g id="Layer_2" data-name="Layer 2"><g id="_63.behance" data-name="63.behance"><path d="m58.7 71.08h-10.42v-10.87h9.65c3.71 0 7.05 1 7.05 5.32.02 3.96-2.6 5.55-6.28 5.55z"/><path d="m66.87 84.77c0 4.71-3.42 6.18-7.6 6.18h-11v-12.84h11.2c4.53 0 7.4 1.89 7.4 6.66z"/><path d="m97.24 71.17c-4.46 0-7.41 2.77-7.72 7.21h15.13c-.39-4.48-2.74-7.21-7.41-7.21zm0 0c-4.46 0-7.41 2.77-7.72 7.21h15.13c-.39-4.48-2.74-7.21-7.41-7.21zm-21.24-71.17a76 76 0 1 0 76 76 76 76 0 0 0 -76-76zm11.62 54.69h19v4.6h-19zm-26.95 44.18h-22.67v-46.62h22c8 0 15 2.26 15 11.55 0 4.71-2.19 7.73-6.39 9.73 5.75 1.62 8.54 6 8.54 11.8.01 9.48-7.98 13.54-16.48 13.54zm53.26-14.66h-24.42c0 5.41 2.86 8.6 8.31 8.6 2.82 0 6.47-1.53 7.35-4.41h8.21c-2.52 7.72-7.76 11.35-15.85 11.35-10.69 0-17.33-7.21-17.33-17.75 0-10.13 7-17.87 17.33-17.87 11.15.03 17.18 9.26 16.4 20.08zm-16.69-13c-4.46 0-7.41 2.77-7.72 7.21h15.13c-.39-4.52-2.74-7.25-7.41-7.25z"/></g></g></svg>