<svg height="512" viewBox="0 0 152 152" width="512" xmlns="http://www.w3.org/2000/svg"><g id="Layer_2" data-name="Layer 2"><g id="_64.busuu" data-name="64.busuu"><path d="m78.48 67.09a9.18 9.18 0 0 0 -4.48 2.58c-.59 0-.5-.66-.53-1.07 0-10.68.68-11 .38-13.4-2.52-.26-5.06.23-7.59.38-1.07.19-2.25 0-3.24.49 1.26 12.41 1 30.72.33 37-.16.75.82.78 1.32.81 2.73 0 5.48.09 8.2-.14.5-.6.53-1.46.89-2.14a15.19 15.19 0 0 0 3.24 1.89 12.06 12.06 0 0 0 12.3-2.78c7.84-7.71 3.7-26.31-10.82-23.62zm3.32 17.26c-2.08 2.18-6.32 1.79-7.77-.94-1.62-2.87-.53-7.52 3-8.26 5.69-1.15 8.05 5.7 4.77 9.2z"/><path d="m76 0a76 76 0 1 0 76 76 76 76 0 0 0 -76-76zm33.5 88.58c-8.63 21.5-36.61 28.45-54.35 13.34-2.9-2.34-2.86-3.07-7.07-3.07-4.88-.03-12.19 1.15-12.08-.85-.23-2.83 10.24-4.84 9.24-9.22-.63-2.77-1.41-5.51-1.89-8.3-3-18.19 10.82-36.16 30-38.3 26.81-2.84 45.65 23.07 36.15 46.4z"/></g></g></svg>