<svg height="512" viewBox="0 0 152 152" width="512" xmlns="http://www.w3.org/2000/svg"><g id="Layer_2" data-name="Layer 2"><g id="_66.evernote" data-name="66.evernote"><path d="m98.77 73.61c0 .32.12 1.13-.43 1.13-1 .16-7.56-.31-7.87-1.26a1.69 1.69 0 0 1 .19-.88c1.34-3.47 7.7-2.71 8.11 1.01z"/><path d="m76 0a76 76 0 1 0 76 76 76 76 0 0 0 -76-76zm-29.21 59.24c17.36-18 18.28-19.22 18-18.66-.68 1.72-.55 1.32-.55 14.5-.15 4.61-2.17 3.6-11.43 3.65-4.51 0-4.65 0-6 .57-.09.06-.09 0-.02-.06zm60 36.3c-3.32 24.37-30.2 21.86-30.23 8.32 0-9.26 12.1-12.31 12.1-6.68a2.73 2.73 0 0 1 -1.4 2.45c-.91.56-2.31.38-3.07 1.07a3.13 3.13 0 0 0 -.12 4.67c4 4.11 11.73.6 11.73-6 .11.31.26-7.34-7.86-9.43-.81-.19-1.53-.27-1.85-.32-2.58-.31-9-2.39-9.46-8.25 0 0-1.9 8.82-5.71 11.21-3.63 1.88-14 .65-20.1-5.73 0 0-3.07-2.58-4.67-9.83a89.17 89.17 0 0 1 -1.84-10.52c0-3.09 1.84-5.17 4.18-5.48 10.71-.39 14.36.9 16.71-1.33 2-1.87 1.09-4.27 1.29-17.45a5.1 5.1 0 0 1 5.37-4.24c2.58.06 2.65-.14 5.16.51 3.75.94 4.54 4.85 4.54 4.85l10.63 1.89c3.38.63 11.74 1.2 13.34 9.83 3.75 20.54 1.47 40.46 1.29 40.46z"/></g></g></svg>