<svg height="512" viewBox="0 0 152 152" width="512" xmlns="http://www.w3.org/2000/svg"><g id="Layer_2" data-name="Layer 2"><g id="_67.forrst" data-name="67.forrst"><path d="m76 0a76 76 0 1 0 76 76 76 76 0 0 0 -76-76zm4.75 114v-14.35a2.21 2.21 0 0 0 1.06-.25l9.19-4.61a2.37 2.37 0 0 0 -2.13-4.24l-8.1 4.08v-2.39a2.32 2.32 0 0 0 1.31-.4l4.56-3a2.38 2.38 0 1 0 -2.63-4l-3.26 2.16v-6.26h-9.5v11.93l-4.39-4.43a2.38 2.38 0 0 0 -3.38 3.34l6.13 6.18a2.33 2.33 0 0 0 1.64.7v15.54h-26.13l30.88-76 30.88 76z"/></g></g></svg>