<svg height="512" viewBox="0 0 152 152" width="512" xmlns="http://www.w3.org/2000/svg"><g id="Layer_2" data-name="Layer 2"><g id="_68.gofoundme" data-name="68.gofoundme"><path d="m76 0a76 76 0 1 0 76 76 76 76 0 0 0 -76-76zm-5.59 52.21c0-3.05 2.59-4.71 5.73-4.71s5.68 1.43 5.67 4.51v.2l-.06 8a3.65 3.65 0 0 1 -.12.93c-.64 2.22-2.87 3.42-5.54 3.42s-5-1-5.59-3.35a4.22 4.22 0 0 1 -.09-.94zm-19.66 24.35c4.18-5.56 12.4-9.36 24.66-9.36 7.32 0 12.93 1.31 17.17 3.39a21.53 21.53 0 0 1 7.58 6h-49.36zm-12-19a3.8 3.8 0 0 1 .23-4.7c1.42-1.69 4.79-2.11 6.87-1.14a7.75 7.75 0 0 1 1.29.64l12.49 8.93a4.51 4.51 0 0 1 1.82 2.77 3 3 0 0 1 -.91 2.8 6.76 6.76 0 0 1 -7.54 1.14c-1.6-1-12.16-8.66-13.88-9.91zm42.45 46.2c-2.21 0-4.41 0-6.62 0-.32 0-.41-.08-.41-.39 0-11 0-10.85-.24-12.08-.64-2.67-3.71-2.68-5.07-1.42a4.26 4.26 0 0 0 -1.25 2.84c-.09.81-.08.45-.06 10.68 0 .28 0 .37-.35.37-2.25 0-4.48 0-6.73 0-.31 0-.38-.09-.38-.39 0-3.29 0-6.57 0-9.87a10.37 10.37 0 0 0 -.15-2 2.79 2.79 0 0 0 -2.23-2.3 3.33 3.33 0 0 0 -3.64 1.35c-.73 1.14-.62 1.82-.58 12.76 0 .37-.1.45-.46.45-2.21 0-4.41 0-6.62 0-.31 0-.38-.09-.38-.39v-19.12c0-.31.1-.37.39-.37q3.34 0 6.69 0c.32 0 .39.11.38.39v2.06a13.16 13.16 0 0 1 1.84-1.42 9.54 9.54 0 0 1 6-1.28 9.28 9.28 0 0 1 2.89.71 7.29 7.29 0 0 1 3.05 2.66c.14.18.21.23.35 0a7.7 7.7 0 0 1 5.72-3.39 7.79 7.79 0 0 1 6.42 1.8 5.27 5.27 0 0 1 1.66 3.09 14.07 14.07 0 0 1 .21 2.43q0 6.19 0 12.39c.01.36-.09.44-.43.44zm20-8.63c-7.86 0-8.18-.64-7.55 1.66.9 3.27 5.77 3.74 7.67 1.2.33-.42 0-.26 7-.29 1.09 0-1.11 5-6.61 6.41a14.86 14.86 0 0 1 -3.33.39 15.52 15.52 0 0 1 -5.7-.82 9.59 9.59 0 0 1 -6.55-7.59 10.9 10.9 0 0 1 1.5-8.09 9.26 9.26 0 0 1 5.15-4 15.42 15.42 0 0 1 9-.18 9.54 9.54 0 0 1 6.83 7.18 13.06 13.06 0 0 1 .38 3.89c.01.34.49.26-7.74.24zm12-37.21-.44.44c-1.73 1.26-12.29 9-13.89 9.9a6.77 6.77 0 0 1 -7.47-1 3 3 0 0 1 -.91-2.8 4.44 4.44 0 0 1 1.82-2.77l12.49-8.93a7.89 7.89 0 0 1 1.3-.65c2.08-1 5.45-.54 6.88 1.15a3.81 3.81 0 0 1 .31 4.66zm-19.45 32.92c-.09.43-.22.3 4.12.3s4.24.1 4.15-.22c-1.23-4.52-7.38-4.05-8.27-.08z"/></g></g></svg>