<svg height="512" viewBox="0 0 152 152" width="512" xmlns="http://www.w3.org/2000/svg"><g id="Layer_2" data-name="Layer 2"><g id="_69.goodreads" data-name="69.goodreads"><path d="m93 61.19c1.15 8.46-1 17.93-8 22.86-5 3.52-11.79 3.21-15.82 1.29-8.27-3.92-11.03-13.34-10.43-22.06 1-13.82 9.13-19.94 16.8-19.86 10.45-.05 16.05 7.21 17.45 17.77z"/><path d="m76 0a76 76 0 1 0 76 76 76 76 0 0 0 -76-76zm8.71 113c-10.15 2.51-23.22.71-28.63-8.49a15.08 15.08 0 0 1 -1.9-6.61h.41 5.58c.23 0 .45-.06.53.31 1 5.18 4.38 8.1 9.18 9.49a23.75 23.75 0 0 0 11.87.26c4.94-1.1 8.18-4.2 9.94-9a29.6 29.6 0 0 0 1.61-9.87c0-.86 0-7 0-7.84h-.13l-.37.65a17.8 17.8 0 0 1 -15.42 10.24c-15 .6-24.74-8.46-25.12-26.16a35 35 0 0 1 1.21-10.34c3.01-10.56 10.89-17.55 22.53-17.64a18.58 18.58 0 0 1 17 10.43c.07.17.19.35.35.29v-9.15h6.47v49.32c-.08 11.65-3.97 21.33-15.11 24.11z"/></g></g></svg>