<svg height="512" viewBox="0 0 152 152" width="512" xmlns="http://www.w3.org/2000/svg"><g id="Layer_2" data-name="Layer 2"><g id="_72.periscope" data-name="72.periscope"><path d="m94.29 68.16c0 9.46-8.22 17.53-17.82 17.53-10.65 0-18.86-8.07-18.86-17.53a18.28 18.28 0 0 1 3.91-11.49v.09a7.09 7.09 0 0 0 7.17 7.08 7.3 7.3 0 0 0 7.31-7.17 7.1 7.1 0 0 0 -4.32-6.5 20.69 20.69 0 0 1 4.84-.58c9.55 0 17.77 8.08 17.77 18.57z"/><path d="m76 0a76 76 0 1 0 76 76 76 76 0 0 0 -76-76zm.43 114c-6.83 0-30.51-26.73-30.51-44.64 0-17.15 13.46-31.36 30.51-31.36 16.19 0 29.65 14.22 29.65 31.36 0 17.91-23.68 44.64-29.65 44.64z"/></g></g></svg>