<svg height="512" viewBox="0 0 152 152" width="512" xmlns="http://www.w3.org/2000/svg"><g id="Layer_2" data-name="Layer 2"><g id="_74.sina_weibo" data-name="74.sina weibo"><path d="m64 94.15c-5.54 1.29-6.52-5.74-1.49-6.9 5.99-1.37 5.49 5.97 1.49 6.9z"/><path d="m70.8 86.21a1.6 1.6 0 0 1 -3 .83c.01-2.11 2.77-2.33 3-.83z"/><path d="m54 76.39c-15 8.68-8.68 24.27 9.78 25.48 9.77.65 19.56-2.74 24.21-7.93a12.51 12.51 0 0 0 3.4-8.15c-.01-13.92-24.16-17.02-37.39-9.4zm1.28 16.5c-2.88-7.73 4-13.88 11.26-14.62 6.16-.64 10.75 2.45 12.11 6.48 4.54 13.45-19.04 19.7-23.35 8.14z"/><path d="m76 0a76 76 0 1 0 76 76 76 76 0 0 0 -76-76zm28.37 86.62c-2 15.61-35 26.1-55.66 14.63-5.66-3.15-11.52-7.75-10.62-16.93.78-7.89 6.18-14 11.48-19.21 5-5 10.38-8.86 17.62-10.66 7.87-1.94 10.19 4.51 8.08 10.87 4.55-.32 14.21-5.32 18.48-.42 1.88 2.15 1.16 6 0 9 5.3 2.83 11.67 4.26 10.62 12.72zm-5.31-21.51a5.72 5.72 0 0 0 -2.76-4.18c-2.42-1.11-6.16.81-6.16-2.51 0-2.46 2.17-2.2 3.4-2.29 11.25-.85 11.95 13.5 7.64 13.78-3.09.21-1.94-2.08-2.12-4.8zm11.68 8.15c-4.56.4-2.18-4.55-2.12-7.52.16-8.63-7.32-14.63-14.66-14.63-2.08 0-6.91 1.39-6.16-2.92.33-1.9 2-1.88 3.61-2.09 12.34-1.62 21.65 6.73 22.52 17.76.32 4.14-.39 9.14-3.19 9.4z"/></g></g></svg>