<svg height="512" viewBox="0 0 152 152" width="512" xmlns="http://www.w3.org/2000/svg"><g id="Layer_2" data-name="Layer 2"><g id="_75.discord" data-name="75.discord"><path d="m93.63 60a19.48 19.48 0 0 0 -11-4l-.59.57c6.66 1.9 9.89 4.87 9.89 4.87a36.19 36.19 0 0 0 -29.69-1.27c-1.4.6-2.25 1-2.35 1.05.2-.19 3.43-3.21 10.31-4.85l-.44-.37a19.59 19.59 0 0 0 -11.19 4 49 49 0 0 0 -5.8 22.23s3.23 5.52 12.04 5.77c0 0 1.29-1.69 2.59-3.17-5-1.49-6.88-4.45-6.88-4.45l1.65.84c4.85 2 10 4.45 19.11 3a30.1 30.1 0 0 0 5.78-1.7 45.11 45.11 0 0 0 4.5-2.33s-1.93 3-7.1 4.44c1.07 1.37 2.54 3.1 2.54 3.1 8.83-.19 12.26-5.7 12.45-5.46a48.85 48.85 0 0 0 -5.82-22.27zm-24.94 18.44a4.23 4.23 0 0 1 0-8.46 4.24 4.24 0 0 1 0 8.47zm14.62 0a4.23 4.23 0 0 1 0-8.46 4.24 4.24 0 0 1 0 8.47z"/><path d="m76 0a76 76 0 1 0 76 76 76 76 0 0 0 -76-76zm34.83 114-8.61-7.2-4.73-4.24-5.16-4.43 2.16 7h-45.15a7.93 7.93 0 0 1 -8.17-7.84v-51.44a8.08 8.08 0 0 1 8.18-7.85h53.1a8.4 8.4 0 0 1 8.38 7.83z"/></g></g></svg>