<svg height="512" viewBox="0 0 152 152" width="512" xmlns="http://www.w3.org/2000/svg"><g id="Layer_2" data-name="Layer 2"><g id="_76.git" data-name="76.git"><path d="m76 0a76 76 0 1 0 76 76 76 76 0 0 0 -76-76zm-4 65a30.86 30.86 0 0 1 -3.29.93 10.31 10.31 0 0 1 .67 3.56c0 7.16-4.36 12.64-11.31 14-2.09.44-3.29 1.32-3.29 3.61 0 6.5 16.91 2.09 16.91 14 0 9.72-6.48 12.9-15.19 12.9-7.15 0-15.32-2.43-15.32-11.17 0-5.07 3-8 7.58-9.53v-.17c-4.19-2.57-3.31-9.75-.17-11.16v-.17c-4.23-1.44-6.94-7.33-6.94-11.62 0-11.52 12.23-17 21.24-11.74a24.59 24.59 0 0 0 9.12-2zm13.35 28.81h-9.3c.27-3.07.3-34.44 0-36.95h9.3c-.3 2.48-.27 33.9 0 36.95zm-4.63-43.45a6.19 6.19 0 0 1 0-12.36c3.32 0 5.66 3 5.66 6.22s-2.38 6.14-5.66 6.14zm30.11 42.35a16.13 16.13 0 0 1 -7.62 1.65c-9 0-10-7.15-10-14.53v-14.83h.08v-.17a13.27 13.27 0 0 0 -4 .17v-8.11h4a41.7 41.7 0 0 0 -.25-7h9.5a48.21 48.21 0 0 0 -.25 7h8.54v8.11s-3.23-.17-8.54-.17v15.41c0 2.51.55 5.56 3.65 5.56a9 9 0 0 0 4.9-1.41zm-61.17 9.68c0 3.82 4.35 4.28 7.25 4.28 3.05 0 6.31-.77 6.31-4.46s-4-4.24-6.9-4.24-6.65.64-6.66 4.42zm.89-32.12c0 3.52 1.55 5.73 5.24 5.73s5-2.37 5-5.82c-.03-8.18-10.24-8.28-10.24.09z"/></g></g></svg>