<svg height="512" viewBox="0 0 152 152" width="512" xmlns="http://www.w3.org/2000/svg"><g id="Layer_2" data-name="Layer 2"><g id="_77.github" data-name="77.github"><path d="m92.18 74.44c-6.63 0-12.32 2.59-23.14.94a64.29 64.29 0 0 0 -8.87-.94c-7.41 0-11.64 6.07-11.64 12.94 0 13.76 12.73 15.88 23.82 15.88h7.65c11.13 0 23.84-2.1 23.84-15.88-.02-6.87-4.25-12.94-11.66-12.94zm-30.53 21.56c-4.08 0-5.81-5.35-5.81-8.63s1.73-8.64 5.81-8.64 5.82 5.36 5.82 8.63-1.73 8.64-5.82 8.64zm29.09 0c-4.08 0-5.81-5.36-5.81-8.64s1.73-8.63 5.81-8.63 5.81 5.36 5.81 8.63-1.72 8.64-5.81 8.64z"/><path d="m76 0a76 76 0 1 0 76 76 76 76 0 0 0 -76-76zm35.23 94.36c-6 12-22.5 11.72-34.31 11.72-12 0-29.48.42-35.72-11.72a33.27 33.27 0 0 1 -3.2-14.89 26.81 26.81 0 0 1 6.57-17.8 24.32 24.32 0 0 1 -1.22-7.67c0-3.37.78-5.06 2.31-8.12 7.17 0 11.76 1.41 17.23 5.64a61.29 61.29 0 0 1 14-1.56 55 55 0 0 1 12.73 1.44c5.38-4.19 10-5.52 17.07-5.52 1.59 3.12 2.31 4.78 2.31 8.12a23.87 23.87 0 0 1 -1.22 7.55 24.68 24.68 0 0 1 4.76 8.45 30.15 30.15 0 0 1 1.46 9.5c0 4.97-.51 10.27-2.77 14.86z"/></g></g></svg>