<svg height="512" viewBox="0 0 152 152" width="512" xmlns="http://www.w3.org/2000/svg"><g id="Layer_2" data-name="Layer 2"><g id="_78.google_allo" data-name="78.google allo"><path d="m94.56 76v17.76a.86.86 0 0 1 -1.48.61l-4.62-4.62a18.57 18.57 0 1 1 -12.46-32.33 18.57 18.57 0 0 1 18.56 18.58z"/><path d="m76 0a76 76 0 1 0 76 76 76 76 0 0 0 -76-76zm38 108.38a5.61 5.61 0 0 1 -5.62 5.61h-34.38c-22.37 0-39.64-21.69-35.34-45.14a37.59 37.59 0 0 1 29.5-30 39.8 39.8 0 0 1 6.78-.85 38 38 0 0 1 39.06 38z"/></g></g></svg>