<svg height="512" viewBox="0 0 152 152" width="512" xmlns="http://www.w3.org/2000/svg"><g id="Layer_2" data-name="Layer 2"><g id="_79.academia_edu" data-name="79.academia edu"><path d="m70 56.74q5.33 13.26 10.68 26.63h-21q5.32-13.24 10.32-26.63z"/><path d="m76 0a76 76 0 1 0 76 76 76 76 0 0 0 -76-76zm38 112.41h-34.07v-3.72c2.54-.2 5.54-.08 7.43-2.08 1.49-1.79.64-4.22.09-6.21-1.16-3.32-2.55-6.56-3.8-9.84h-26.51c-1.14 3.07-2.14 6.17-3.41 9.2-.78 1.7-1.7 3.45-1.55 5.38a3 3 0 0 0 1.94 2.5 16.43 16.43 0 0 0 5.51 1v3.8h-21.63v-3.77c2.1-.3 4.72-.85 5.54-3.11q11.21-28.56 22.46-57.11a1.31 1.31 0 0 0 0-1.26c-1-2.53-2-5.07-3.06-7.6q9.4 0 18.81 0 13.02 32.71 26.1 65.41c.87 2.54 3.77 3.32 6.15 3.63z"/></g></g></svg>