<?xml version="1.0" encoding="utf-8"?>
<!-- Generator: Adobe Illustrator 25.3.1, SVG Export Plug-In . SVG Version: 6.00 Build 0)  -->
<svg version="1.1" id="Calque_1" xmlns="http://www.w3.org/2000/svg" xmlns:xlink="http://www.w3.org/1999/xlink" x="0px" y="0px"
	 viewBox="0 0 419.5 595.3" style="enable-background:new 0 0 419.5 595.3;" xml:space="preserve">
<style type="text/css">
	.st0{opacity:0.95;}
	.st1{fill:#DADADA;}
</style>
<g id="Groupe_5" transform="translate(-27.19 -295.442)" class="st0">
	<path id="Tracé_3" class="st1" d="M428.3,562.8c-1.4-3.6,0.3-7.6,3.8-9.1c0.3-0.1,0.7-0.2,1-0.3c5.3-1.4,10.9,0.6,14.1,5
		c2.9,4.9,2.5,11.1-1.1,15.5c-3.4,4.2-8.2,7.1-13.5,8.3c-14.1,3.9-28.1,2.6-42-1.3c-4.2-1.2-8.3-2.5-12.3-4c-1-0.4-2.1-0.5-3.1-0.2
		c-10.9,3.7-21.6,2.3-32.2-0.9c-5.7-1.6-11.1-3.8-16.3-6.6c-2.5-1.5-5.5-1.6-8.1-0.4c-8.5,3.4-17,6.8-25.6,9.8
		c-9.5,3.3-19.4,4.6-29.3,1.7c-1.6-0.5-3.2-0.4-4.7,0.3c-6.4,2.9-13.8,2.3-19.6-1.7c-0.9-0.7-2.2-0.7-3.1,0.1
		c-5.8,4-13.2,4.6-19.5,1.7c-1.1-0.7-2.5-0.9-3.8-0.6c-11,3.5-21.6,1.3-32.2-1.8c-8.5-2.8-16.9-6.1-25-9.8c-1.6-0.8-3.5-0.7-5.1,0.1
		c-9.6,5-19.9,8.4-30.6,10c-6.2,0.9-12.6,0.4-18.6-1.5c-1.6-0.6-3.4-0.5-5,0.1c-11.2,4.5-23.2,7-35.3,7.4c-8.7,0-17.5-1-25.4-5.3
		c-6.1-2.8-9.7-9-9.2-15.7c0.5-8.2,11.2-13.6,18.2-9.1c2.7,1.8,3.8,5.3,2.5,8.3c-1.3-2.5-3.8-4-6.6-4c-4.3-0.2-8,3.2-8.2,7.6
		c0,0.2,0,0.4,0,0.6c0.1,5.2,3.1,9.9,7.7,12.1c5.1,2.5,10.8,4,16.5,4.2c10.5,0.9,19.9-2.8,29.4-6.3c2.2-0.8,4.3-1.9,6.5-2.9
		c1.1-0.5,1.5-1,0.6-2.2c-3.9-5-4.7-11.8-2.1-17.5c1.1-2.7,1-2.8-2-2.8c-4.7-0.1-9.3,0.9-13.5,2.9c-3.9,1.6-6.8,5-7.7,9.2
		c-1,3.6,1.2,7.3,4.8,8.2c0.3,0.1,0.6,0.1,0.9,0.2c2.5,0.4,4.9-1.3,5.3-3.9c0,0,0,0,0,0c0.2-0.8,0.1-1.7,1.2-1.8
		c0.8-0.1,1.6,0.3,2.1,1c1.6,2,1.3,4.8-0.7,6.4c-0.2,0.1-0.3,0.3-0.5,0.4c-4.3,3.1-10.4,2.1-13.5-2.3c-0.6-0.8-1-1.6-1.3-2.6
		c-1.7-5.6,0.4-11,5.9-14.8c3.9-2.7,8.5-4.2,13.3-4.4c2-0.1,3.9-0.1,5.9,0c1.7,0.1,3.4-0.5,4.6-1.7c5.4-4.3,12-6.8,18.9-7.2
		c10.8-1,20.9,1.8,30.8,5.6c2.2,0.9,4.6,0.8,6.7-0.3c10.6-5.1,21.8-8.8,33.3-11.3c12.4-2.6,25.2-1.8,37.2,2.3
		c5.1,1.7,9.7,4.7,13.4,8.7c1,1.1,1.8,1.4,3,0.2c7.3-7.8,16.8-10.7,27.1-12.1c15.4-2,30,1.3,44.3,6.9c4.8,1.9,9.5,3.9,14.2,5.9
		c1.2,0.6,2.7,0.7,4,0.1c8.8-3.8,18.2-5.9,27.8-6.3c8.5-0.5,16.9,2.2,23.4,7.6c1.1,1,2.7,1.6,4.2,1.4c5-0.5,10,0.2,14.7,1.9
		c4,1.4,7.5,4.2,9.7,7.8c3.1,4.9,1.7,11.4-3.2,14.5c-1.2,0.8-2.6,1.3-4,1.5c-2.4,0.4-4.8-0.2-6.8-1.6c-2.3-1.5-2.9-4.6-1.4-6.9
		c0.5-0.8,1.4-1.2,2.3-1.1c1.2,0.1,0.9,1.1,1,1.9c0.1,1.7,1.2,3.1,2.8,3.6c2,0.8,4.3,0.4,5.9-1.1c3.6-3.3,2.9-10.1-1.5-13.6
		c-5.4-4-12.1-6-18.8-5.5c-1.7,0-1.4,0.9-0.9,1.9c2.9,5.9,2.3,13-1.6,18.3c-1.1,1.6,0,2.2,1.1,2.7c6.3,2.8,12.7,5.2,19.3,7.1
		c8.4,2.3,17.2,2.4,25.6,0.3c3-0.7,5.8-1.9,8.3-3.6c4-2.6,6.3-7.1,6.1-11.8c-0.1-3.3-2.1-6.2-5.2-7.3c-3.2-1.1-6.7,0.1-8.6,2.9
		C429,562.2,428.8,562.4,428.3,562.8z M156.6,550.6c3.2,1.4,5.9,2.5,8.6,3.7c1.3,0.7,2.9,0.7,4.2,0c6.3-3,13-5.3,19.8-6.9
		c8.2-2.2,16.8-1.8,24.8,1.1c8.6,3.1,13.1,12.5,10,21.1c-0.2,0.5-0.3,0.9-0.5,1.3c-1.2,2.6-3.1,4.9-5.4,6.6c-0.8,0.6-1.3,1.1,0,1.7
		c5.3,2.4,11.5,2,16.4-1.1c1.4-0.9,1.9-1.9,0.8-3.4c-1.2-1.7-2.1-3.7-2.5-5.8c-1.4-5.9-0.4-12.2,2.7-17.4c0.9-1.1,0.7-2.6-0.4-3.5
		c0,0-0.1-0.1-0.1-0.1c-2.9-2.9-6.3-5.2-10-6.8c-11.2-4.8-22.7-4.5-34.4-2.4C178.8,541,167.3,545,156.6,550.6L156.6,550.6z
		 M270.7,537.3c-2.7-0.1-5.4,0.1-8.1,0.5c-8,0.9-15.5,4.3-21.6,9.6c-1.4,0.9-1.8,2.7-0.9,4.1c0,0.1,0.1,0.1,0.2,0.2
		c4.2,7.8,4.9,15.8-0.3,23.5c-0.9,1.4,0,1.9,0.9,2.5c4.7,3.1,10.6,3.8,15.9,1.7c0.6-0.2,1.5-0.2,1.7-0.9c0.2-0.9-0.8-1.1-1.3-1.5
		c-7.2-5.7-8.4-16.2-2.6-23.3c1.3-1.7,2.9-3,4.8-4.1c4.3-2.3,9.2-3.6,14.1-3.6c9.3-0.4,18.5,1.6,26.8,5.7c6,3,11.2,3.3,16.8-0.2
		c0.5-0.3,1.5-0.2,1.4-1.1c0-0.7-0.9-0.8-1.5-1.1c-1.8-0.9-3.7-1.7-5.6-2.5C298.5,541.1,284.7,537.8,270.7,537.3L270.7,537.3z
		 M273,550.5c-3.6-0.2-7.2,0.3-10.6,1.5c-9.9,3.7-12.7,13.9-5.8,22.1c1.2,1.5,2.7,3.4,4.8,2.9c2-0.4,2.8-2.6,3.5-4.4
		c0.8-2.2,1.4-4.2-1.2-6c-1.5-1.2-2.2-3.2-1.7-5.1c0.2-1,0.6-1.9,1.7-2.1c1-0.2,2,0.2,2.6,1.1c0.9,1.2,1.4,2.6,1.4,4.1
		c-0.1,2.6,1.4,3.4,3.6,3.5c4.9,0.4,9.8-0.2,14.5-1.8c4.9-2,9.7-4.3,14.3-7c1.6-0.9,1.1-1.5-0.2-2.1
		C291.3,553.8,282.9,550.2,273,550.5L273,550.5z M202.3,550.5c-9.7-0.4-18.1,3.3-26.6,6.9c-1.3,0.5-1.3,1.1-0.1,1.8
		c2.9,1.6,5.7,3.2,8.6,4.6c6.3,3.4,13.4,4.9,20.5,4.3c2-0.2,3.2-0.8,3.3-3c-0.1-1.7,0.5-3.4,1.6-4.8c0.6-0.8,1.7-1.1,2.6-0.9
		c1.2,0.3,1.4,1.2,1.5,2.2c0.4,2-0.4,4-2,5.2c-1.4,1.1-1.9,3-1.2,4.6c0.5,1.7,1.4,3.3,2.6,4.6c0.6,0.9,1.9,1.2,2.8,0.6
		c0.1,0,0.1-0.1,0.2-0.1c4.3-2.7,6.8-7.5,6.7-12.6c0.2-4.6-2.5-8.9-6.7-10.8C211.9,551.1,207.1,550.2,202.3,550.5L202.3,550.5z
		 M320.2,566.2c-3-1.1-6-2.4-8.8-3.9c-5.5-3.6-10.3-2.1-15.5,1c-8.1,4.9-16.8,7.9-26.5,6.5c-0.9-0.3-1.9,0.2-2.2,1.2
		c0,0.1-0.1,0.2-0.1,0.4c-0.4,1.9-1.2,3.7-2.4,5.3c-1.3,1.4-0.8,2,0.8,2.5c4.5,1.4,9.3,1.7,14,1c9.6-1.4,19-4.2,27.8-8.2
		C311.3,570,315.4,568.3,320.2,566.2L320.2,566.2z M201.2,580.3c2.9,0.1,5.9-0.3,8.7-1.1c1.7-0.5,2.5-1.1,1.1-2.8
		c-1.2-1.5-2-3.2-2.4-5c-0.4-1.5-1.2-1.9-2.7-1.7c-5.2,0.7-10.5,0.2-15.4-1.6c-5.8-2.1-11.5-4.7-16.8-7.8c-1.1-0.8-2.5-1-3.7-0.5
		c-4.1,1.9-8.2,3.6-12.3,5.4c-0.4,0.2-1,0.5-1.1,0.8c-0.1,0.7,0.7,0.8,1.1,1c5,2.1,9.9,4.3,14.9,6.3
		C181.6,577.5,191.3,579.8,201.2,580.3L201.2,580.3z M378.6,550.3c-3.3-3.4-7.5-5.7-12.2-6.5c-12-1.7-24.2-0.3-35.5,4.2
		c-0.4,0.2-1,0.3-1,0.9c0,0.7,0.7,0.8,1.2,1.1c4.3,2,8.6,4,12.8,6.1c2,1,4.3,1.1,6.3,0.3c3.9-1.3,8-2.3,12-3.3
		C367.6,551.6,373.1,550.7,378.6,550.3L378.6,550.3z M97.2,550.3c8,0.2,15.8,1.7,23.3,4.5c5.7,2.4,12.2,1.8,17.4-1.6
		c2.7-1.5,5.6-2.8,8.8-4.4c-1.1-0.6-1.6-0.9-2.1-1.1c-6.4-2.4-13.2-3.9-20-4.5c-6.5-0.4-13.1-0.7-19.4,1.7
		C102.1,546.2,99.4,548,97.2,550.3L97.2,550.3z M92,561.1c0,2.9,0.8,5.7,2.3,8.1c1,1.9,3.4,2.6,5.2,1.6c0.1,0,0.1-0.1,0.2-0.1
		c7.8-3.7,15.7-7.3,23.5-11c0.7-0.3,1.9-0.4,1.7-1.4c-0.1-0.8-1.2-0.8-1.8-1c-8.4-2.5-17.1-4.3-25.8-5.3c-1.4-0.2-2.8,0.5-3.4,1.8
		C92.7,556.2,92,558.6,92,561.1L92,561.1z M350,558.3c0.4,0.3,0.8,0.6,1.3,0.9c8.5,3.9,17,7.8,25.5,11.8c2.4,1.1,3.8-0.1,4.9-1.9
		c2.8-4.7,2.9-10.6,0.2-15.4c-0.5-1.2-1.9-1.9-3.2-1.6c-5.1,0.7-10.2,1.3-15.2,2.5C358.9,555.6,354.4,556.8,350,558.3L350,558.3z
		 M103.2,574.5c0.3,1,1.1,1,1.7,1.2c5.4,1.7,11.2,1.7,16.6,0.2c5.5-1.6,10.9-3.8,16.1-6.4c2.7-1.3,5.4-2.7,8.2-4.1
		c-3.2-1.6-6.5-2.9-9.9-4c-1.4-0.5-2.9-0.4-4.2,0.3c-5.6,2.6-11.2,5.2-16.9,7.7C110.9,571.2,107,572.8,103.2,574.5z M372.7,574.9
		c-0.3-0.3-0.7-0.6-1.1-0.8c-9.6-3.9-19-8.5-28.5-12.8c-0.7-0.3-1.4-0.4-2.1-0.2c-3.3,0.9-6.5,2-9.7,3.3c-1.3,0.5-1.3,1.1-0.1,1.7
		c8.5,4.2,16.9,8.8,26.4,10.5C362.8,577.6,368,577,372.7,574.9L372.7,574.9z M164.7,556.2c-2.9-1.5-5.9-2.8-9.1-3.8
		c-1-0.4-2.1-0.5-3.1-0.2c-4.9,2.3-9.8,4.7-15.1,7.3c3.5,1.6,7.1,2.9,10.8,3.9c0.4,0.1,0.8,0.1,1.2-0.1
		C154.3,561,159.2,558.7,164.7,556.2L164.7,556.2z M338.3,559.8c-0.3-0.3-0.7-0.6-1-0.8c-4.5-2.2-8.9-4.3-13.4-6.5
		c-1-0.5-2.1-0.6-3.1-0.2c-2.8,0.7-5.4,1.8-7.9,3.2c-0.4,0.2-1,0.4-1,1c0.1,0.6,0.7,0.7,1.1,0.9c4.1,1.9,8.1,3.8,12.2,5.6
		c0.7,0.5,1.7,0.7,2.6,0.6C331.2,562.3,334.6,561,338.3,559.8L338.3,559.8z M241.7,563.5c0.1-3.7-0.9-7.3-2.7-10.5
		c-0.5-0.9-1-1.8-2.1-0.4c-3.7,5-3.9,15.7-0.4,20.7c0.9,1.3,1.7,1.6,2.6,0C240.9,570.3,241.8,566.9,241.7,563.5L241.7,563.5z"/>
</g>
</svg>
