<?xml version="1.0" encoding="utf-8"?>
<!-- Generator: Adobe Illustrator 25.3.1, SVG Export Plug-In . SVG Version: 6.00 Build 0)  -->
<svg version="1.1" xmlns="http://www.w3.org/2000/svg" xmlns:xlink="http://www.w3.org/1999/xlink" x="0px" y="0px"
	 viewBox="0 0 512 512" style="enable-background:new 0 0 512 512;" xml:space="preserve">
<style type="text/css">
	.st0{fill:#DBF4FF;}
</style>
<g id="Layer_1">
	<path class="st0" d="M256,495.9c-64.1,0-124.4-25-169.7-70.3C41,380.2,16,320,16,255.9S41,131.5,86.3,86.2S191.9,15.9,256,15.9
		s124.4,25,169.7,70.3C471,131.5,496,191.8,496,255.9s-25,124.4-70.3,169.7C380.4,470.9,320.1,495.9,256,495.9z M256,25.9
		c-126.8,0-230,103.2-230,230s103.2,230,230,230s230-103.2,230-230S382.8,25.9,256,25.9z"/>
</g>
<g id="Capa_1">
	<g>
		<g>
			<path class="st0" d="M349.1,176.9H162.9c-10.9,0-19.9,8.9-19.9,19.9V316c0,11,8.9,19.9,19.9,19.9h186.3
				c10.9,0,19.9-8.9,19.9-19.9V196.8C369,185.8,360.1,176.9,349.1,176.9z M346.1,190.2c-6.4,6.4-81.9,82.1-85,85.2
				c-2.6,2.6-7.7,2.6-10.3,0l-85-85.2H346.1z M156.2,313.5V199.2l57,57.2L156.2,313.5z M165.9,322.6l56.6-56.8l18.9,19
				c7.8,7.8,21.3,7.8,29,0l18.9-19l56.6,56.8H165.9z M355.8,313.5l-57-57.2l57-57.2V313.5z"/>
		</g>
	</g>
</g>
</svg>
