<?xml version="1.0" encoding="utf-8"?>
<!-- Generator: Adobe Illustrator 25.3.1, SVG Export Plug-In . SVG Version: 6.00 Build 0)  -->
<svg version="1.1" xmlns="http://www.w3.org/2000/svg" xmlns:xlink="http://www.w3.org/1999/xlink" x="0px" y="0px"
	 viewBox="0 0 512 512" style="enable-background:new 0 0 512 512;" xml:space="preserve">
<style type="text/css">
	.st0{fill:#DBF4FF;}
</style>
<g id="Layer_1">
	<path class="st0" d="M256,495.9c-64.1,0-124.4-25-169.7-70.3C41,380.2,16,320,16,255.9S41,131.5,86.3,86.2S191.9,15.9,256,15.9
		s124.4,25,169.7,70.3S496,191.8,496,255.9s-25,124.4-70.3,169.7S320.1,495.9,256,495.9z M256,25.9c-126.8,0-230,103.2-230,230
		s103.2,230,230,230s230-103.2,230-230S382.8,25.9,256,25.9z"/>
</g>
<g id="Calque_1">
</g>
<g id="regular">
	<path class="st0" d="M211,271.9h20.1v74.5c0,3.3,2.7,6,6,6l32.1,0c3.3,0,6-2.7,6-6v-74.5h19.1c3,0,5.6-2.3,6-5.3l4-32
		c0.4-3.6-2.3-6.7-6-6.7h-23.1c0.9-19.8-3.5-25.6,9.4-25.6c8.7-1,22.4,3.4,22.4-6v-28.6c0-3-2.2-5.5-5.2-5.9
		c-2.5-0.3-12.4-1.3-24.8-1.3c-56.1,0-44.5,62.2-45.9,67.5H211c-3.3,0-6,2.7-6,6v32C205,269.2,207.7,271.9,211,271.9L211,271.9z
		 M217,239.9h20.1c3.3,0,6-2.7,6-6v-25.2c0-23.1,12.4-36.3,33.9-36.3c7,0,13.5,0.3,17.9,0.7v17.2c-3.2,1.6-31.8-7.1-31.8,21.6v22
		c0,3.3,2.7,6,6,6h22.3l-2.5,20h-19.8c-3.3,0-6,2.7-6,6v74.5h-20v-74.5c0-3.3-2.7-6-6-6H217L217,239.9z"/>
</g>
</svg>
