<?xml version="1.0" encoding="utf-8"?>
<!-- Generator: Adobe Illustrator 25.3.1, SVG Export Plug-In . SVG Version: 6.00 Build 0)  -->
<svg version="1.1" xmlns="http://www.w3.org/2000/svg" xmlns:xlink="http://www.w3.org/1999/xlink" x="0px" y="0px"
	 viewBox="0 0 512 512" style="enable-background:new 0 0 512 512;" xml:space="preserve">
<style type="text/css">
	.st0{fill:#DBF4FF;}
</style>
<g id="Layer_1">
	<path class="st0" d="M256,495.9c-64.1,0-124.4-25-169.7-70.3C41,380.2,16,320,16,255.9S41,131.5,86.3,86.2S191.9,15.9,256,15.9
		s124.4,25,169.7,70.3S496,191.8,496,255.9s-25,124.4-70.3,169.7S320.1,495.9,256,495.9z M256,25.9c-126.8,0-230,103.2-230,230
		s103.2,230,230,230s230-103.2,230-230S382.8,25.9,256,25.9z"/>
</g>
<g id="Calque_1">
</g>
<g id="regular">
</g>
<g id="Capa_1">
	<g>
		<g>
			<path class="st0" d="M298.9,161.4h-85.8c-28.7,0-52.1,23.4-52.1,52.1v85.8c0,28.7,23.4,52.1,52.1,52.1h85.8
				c28.7,0,52.1-23.4,52.1-52.1v-85.8C351,184.8,327.6,161.4,298.9,161.4z M339.8,299.3c0,22.5-18.3,40.9-40.9,40.9h-85.8
				c-22.5,0-40.9-18.3-40.9-40.9v-85.8c0-22.5,18.3-40.9,40.9-40.9h85.8c22.5,0,40.9,18.3,40.9,40.9V299.3z"/>
		</g>
	</g>
	<g>
		<g>
			<path class="st0" d="M256,204.3c-28.7,0-52.1,23.4-52.1,52.1s23.4,52.1,52.1,52.1c28.7,0,52.1-23.4,52.1-52.1
				C308.1,227.7,284.7,204.3,256,204.3z M256,297.3c-22.5,0-40.9-18.3-40.9-40.9c0-22.5,18.3-40.9,40.9-40.9
				c22.5,0,40.9,18.3,40.9,40.9S278.5,297.3,256,297.3z"/>
		</g>
	</g>
	<g>
		<g>
			<path class="st0" d="M311.2,185.3c-8.7,0-15.8,7.1-15.8,15.8c0,8.7,7.1,15.8,15.8,15.8s15.8-7.1,15.8-15.8S320,185.3,311.2,185.3
				z M311.2,205.8c-2.5,0-4.6-2.1-4.6-4.6s2.1-4.6,4.6-4.6c2.5,0,4.6,2.1,4.6,4.6S313.8,205.8,311.2,205.8z"/>
		</g>
	</g>
</g>
</svg>
