<svg id="Calque_1" data-name="Calque 1" xmlns="http://www.w3.org/2000/svg" xmlns:xlink="http://www.w3.org/1999/xlink" viewBox="0 0 946.24 590.52"><defs><style>.cls-1{fill:url(#Dégradé_sans_nom_63);}.cls-2{fill:url(#Dégradé_sans_nom_63-2);}.cls-3{fill:url(#Dégradé_sans_nom_63-3);}.cls-4{fill:url(#Dégradé_sans_nom_63-4);}.cls-5{fill:url(#Dégradé_sans_nom_63-5);}.cls-6{fill:url(#Dégradé_sans_nom_63-6);}.cls-7{fill:url(#Dégradé_sans_nom_63-7);}.cls-8{fill:url(#Dégradé_sans_nom_63-8);}.cls-9{fill:url(#Dégradé_sans_nom_63-9);}.cls-10{fill:url(#Dégradé_sans_nom_63-10);}.cls-11{fill:url(#Dégradé_sans_nom_63-11);}.cls-12{fill:url(#Dégradé_sans_nom_63-12);}.cls-13{fill:url(#Dégradé_sans_nom_63-13);}.cls-14{fill:url(#Dégradé_sans_nom_63-14);}</style><linearGradient id="Dégradé_sans_nom_63" x1="-1.33" y1="498.02" x2="944.57" y2="498.02" gradientUnits="userSpaceOnUse"><stop offset="0" stop-color="#6a11cb"/><stop offset="0.7" stop-color="#77d4ff"/></linearGradient><linearGradient id="Dégradé_sans_nom_63-2" x1="-1.33" y1="92.5" x2="944.57" y2="92.5" xlink:href="#Dégradé_sans_nom_63"/><linearGradient id="Dégradé_sans_nom_63-3" x1="-1.34" y1="294.31" x2="944.56" y2="294.31" xlink:href="#Dégradé_sans_nom_63"/><linearGradient id="Dégradé_sans_nom_63-4" x1="-1.34" y1="294.32" x2="944.56" y2="294.32" xlink:href="#Dégradé_sans_nom_63"/><linearGradient id="Dégradé_sans_nom_63-5" x1="-1.34" y1="294.35" x2="944.56" y2="294.35" xlink:href="#Dégradé_sans_nom_63"/><linearGradient id="Dégradé_sans_nom_63-6" x1="-1.34" y1="294.29" x2="944.56" y2="294.29" xlink:href="#Dégradé_sans_nom_63"/><linearGradient id="Dégradé_sans_nom_63-7" x1="-1.34" y1="294.41" x2="944.56" y2="294.41" xlink:href="#Dégradé_sans_nom_63"/><linearGradient id="Dégradé_sans_nom_63-8" x1="-1.34" y1="294.14" x2="944.56" y2="294.14" xlink:href="#Dégradé_sans_nom_63"/><linearGradient id="Dégradé_sans_nom_63-9" x1="-1.34" y1="293.8" x2="944.56" y2="293.8" xlink:href="#Dégradé_sans_nom_63"/><linearGradient id="Dégradé_sans_nom_63-10" x1="-1.34" y1="295.42" x2="944.56" y2="295.42" xlink:href="#Dégradé_sans_nom_63"/><linearGradient id="Dégradé_sans_nom_63-11" x1="-1.34" y1="294.37" x2="944.56" y2="294.37" xlink:href="#Dégradé_sans_nom_63"/><linearGradient id="Dégradé_sans_nom_63-12" x1="-1.34" y1="284.16" x2="944.56" y2="284.16" xlink:href="#Dégradé_sans_nom_63"/><linearGradient id="Dégradé_sans_nom_63-13" x1="-1.34" y1="294.32" x2="944.56" y2="294.32" xlink:href="#Dégradé_sans_nom_63"/><linearGradient id="Dégradé_sans_nom_63-14" x1="-1.34" y1="294.37" x2="944.56" y2="294.37" xlink:href="#Dégradé_sans_nom_63"/></defs><g id="Calque_2" data-name="Calque 2"><g id="organizers"><polygon class="cls-1" points="746.19 405.52 746.19 573.32 200.19 573.32 200.19 405.52 182.19 405.52 182.19 573.32 182.06 573.32 182.06 590.52 182.19 590.52 200.19 590.52 746.19 590.52 764.19 590.52 764.19 573.32 764.19 405.52 746.19 405.52"/><polygon class="cls-2" points="746.19 185 746.19 17.2 200.19 17.2 200.19 185 182.19 185 182.19 17.2 182.06 17.2 182.06 0 182.19 0 200.19 0 746.19 0 764.19 0 764.19 17.2 764.19 185 746.19 185"/><path class="cls-3" d="M21.25,322.09a15.26,15.26,0,0,0,.55,4.76,3.09,3.09,0,0,0,2.14,1.94,18.86,18.86,0,0,0,5.13.49h7.32a22.55,22.55,0,0,0,14.66-4.82,22.94,22.94,0,0,0,7.94-13c.08-.25.33-.35.73-.3s.62.18.62.42q-1.11,11.49-1.1,19.06a2.05,2.05,0,0,1-.37,1.4,1.84,1.84,0,0,1-1.46.43H.24c-.16,0-.24-.24-.24-.74s.08-.73.24-.73a21.21,21.21,0,0,0,6.05-.61A3.81,3.81,0,0,0,8.85,328a16.08,16.08,0,0,0,.67-5.43V266a15.55,15.55,0,0,0-.67-5.38,4.06,4.06,0,0,0-2.62-2.38,19.87,19.87,0,0,0-6-.67c-.16,0-.24-.25-.24-.74s.08-.73.24-.73l6.23.12c3.58.17,6.52.25,8.8.25q3.66,0,9-.25l6.11-.12c.24,0,.37.24.37.73s-.13.74-.37.74a19.11,19.11,0,0,0-5.92.67,4,4,0,0,0-2.57,2.44,16.39,16.39,0,0,0-.67,5.44Z" transform="translate(0.01)"/><path class="cls-4" d="M122.63,313.17a1.29,1.29,0,0,1,.67.18c.2.13.31.23.31.31a130.7,130.7,0,0,0-1.23,17,2.1,2.1,0,0,1-.36,1.4,1.87,1.87,0,0,1-1.47.43h-53c-.24,0-.37-.24-.37-.74s.13-.73.37-.73a21.26,21.26,0,0,0,6-.61A3.81,3.81,0,0,0,76.11,328a16.34,16.34,0,0,0,.68-5.43V266a15.55,15.55,0,0,0-.68-5.38,4.06,4.06,0,0,0-2.62-2.38,19.87,19.87,0,0,0-6-.67c-.24,0-.37-.25-.37-.74s.13-.73.37-.73H118.3c.82,0,1.22.37,1.22,1.1l.25,15.88c0,.16-.22.29-.67.37s-.72,0-.8-.25q-2.91-13.92-17-13.92H96.49q-4.38,0-6.23,1.58c-1.22,1.06-1.83,2.86-1.83,5.38v24.92h11.73q13.44,0,13.43-9c0-.25.22-.37.67-.37s.67.12.67.37l-.12,10.6.12,5.74q.25,3.92.25,6.35c0,.17-.25.25-.73.25s-.74-.08-.74-.25q0-10.5-13.68-10.5H88.43v27.71q0,4,1.52,5.62c1,1.06,2.83,1.58,5.44,1.58h6q16.38,0,20.76-15.87C122.14,313.25,122.3,313.17,122.63,313.17Z" transform="translate(0.01)"/><path class="cls-5" d="M151.51,277.08a24.13,24.13,0,0,0,5.62,6q3.36,2.58,9.1,6.11,6.22,3.93,9.84,6.72a25.79,25.79,0,0,1,6.1,6.9,18,18,0,0,1,2.5,9.59,19.55,19.55,0,0,1-3.23,11.11,21.62,21.62,0,0,1-9.16,7.64,31.82,31.82,0,0,1-13.5,2.75,43.88,43.88,0,0,1-10.57-1.35,25.1,25.1,0,0,1-8.24-3.3,2.88,2.88,0,0,1-1.22-2.32L138,308.41v-.13q0-.48.6-.54c.41,0,.66.1.74.42a65,65,0,0,0,9.24,16.63,16.26,16.26,0,0,0,13.25,6.47,13.52,13.52,0,0,0,8.8-2.87q3.54-2.88,3.54-9.59a18,18,0,0,0-2.38-9.41,23.53,23.53,0,0,0-5.86-6.71q-3.5-2.69-9.47-6.6t-9.16-6.41a24.2,24.2,0,0,1-5.62-6.47,17,17,0,0,1-2.32-9,16.65,16.65,0,0,1,3.54-10.75,21.3,21.3,0,0,1,9.22-6.54A33.94,33.94,0,0,1,164,254.79a44.56,44.56,0,0,1,8.31.79,33.33,33.33,0,0,1,7,2,2.74,2.74,0,0,1,1.46.91,2.51,2.51,0,0,1,.37,1.41l.37,16.61c0,.24-.23.43-.67.55s-.72,0-.8-.31a54.33,54.33,0,0,0-6.53-13.5q-4.08-6-12.28-6a12,12,0,0,0-8.73,3.18,11.59,11.59,0,0,0-3.24,8.67A14.5,14.5,0,0,0,151.51,277.08Z" transform="translate(0.01)"/><path class="cls-6" d="M295.82,256.86c0,.49-.08.74-.24.74q-4,0-9.16,4.21a42.79,42.79,0,0,0-9.16,10.81l-13.92,22.6v27.36a16.43,16.43,0,0,0,.67,5.49,3.83,3.83,0,0,0,2.56,2.32,21.28,21.28,0,0,0,6.05.61c.24,0,.36.25.36.73s-.12.74-.36.74q-4,0-6.23-.12l-8.92-.12-8.79.12q-2.43.12-6.48.12c-.16,0-.24-.24-.24-.74s.08-.73.24-.73a21.21,21.21,0,0,0,6.05-.61,4,4,0,0,0,2.62-2.38,14.52,14.52,0,0,0,.74-5.43V297.41L233,269.08c-2.76-4.32-5.15-7.31-7.14-9a9.22,9.22,0,0,0-5.81-2.5c-.24,0-.36-.25-.36-.74s.12-.73.36-.73l4,.12c1.79.17,3.09.25,3.91.25q4.14,0,11.72-.25l7.57-.12c.17,0,.25.24.25.73s-.08.74-.25.74q-5,0-5,3.42a7.47,7.47,0,0,0,1.47,3.91l17.71,27.23L274,271.79c2-3.33,3.05-6.26,3.05-8.79q0-5.37-6.71-5.37c-.17,0-.25-.25-.25-.74s.08-.73.25-.73l6.35.12c3.42.18,6.56.26,9.4.25,1.39,0,3.05-.08,5-.25l4.52-.12C295.74,256.13,295.82,256.37,295.82,256.86Z" transform="translate(0.01)"/><path class="cls-7" d="M325,332.59q-1.83-.12-4.65-.24t-6.35-.12l-8.67.12c-1.55.08-3.7.12-6.47.12-.17,0-.25-.24-.25-.74s.08-.73.25-.73a21.26,21.26,0,0,0,6-.61,4,4,0,0,0,2.63-2.38,14.93,14.93,0,0,0,.73-5.43V266a15.79,15.79,0,0,0-.67-5.38,4.05,4.05,0,0,0-2.63-2.38,19.56,19.56,0,0,0-6-.67c-.16,0-.24-.25-.24-.74s.08-.73.24-.73l6.47.12c3.58.17,6.44.25,8.55.25,3.26,0,6.56-.13,9.9-.37,4.07-.16,6.79-.24,8.18-.24a48.42,48.42,0,0,1,22.19,4.9,37,37,0,0,1,15,13.31A34.74,34.74,0,0,1,374.52,293,39.75,39.75,0,0,1,369,314a37.69,37.69,0,0,1-14.78,14,42.63,42.63,0,0,1-20.4,4.95C331.28,333,328.35,332.79,325,332.59Zm22.53-6.11a26.67,26.67,0,0,0,10.2-11.91q3.66-7.86,3.66-18.86a49.44,49.44,0,0,0-3.48-19,32,32,0,0,0-9.83-13.44,23.42,23.42,0,0,0-14.78-4.94,39.87,39.87,0,0,0-7.94.61,6.84,6.84,0,0,0-4.09,2.26,8.19,8.19,0,0,0-1.28,5.07v55c0,3.34.85,5.73,2.56,7.15s5.05,2.14,10,2.14a27.81,27.81,0,0,0,15-4.08Z" transform="translate(0.01)"/><path class="cls-8" d="M494.79,331.73c0,.5-.12.74-.36.74H474.76q-2.81,0-10.44-10.2t-18.63-28.48a20.68,20.68,0,0,1-4,.37q-4.51,0-6.35-.12v28.58a16.43,16.43,0,0,0,.67,5.49,3.85,3.85,0,0,0,2.57,2.32,21.26,21.26,0,0,0,6,.61c.17,0,.24.25.24.73s-.07.74-.24.74c-2.69,0-4.76,0-6.23-.12l-9-.12-8.8.12q-2.31.12-6.35.12c-.25,0-.37-.24-.37-.74s.12-.73.37-.73a21.26,21.26,0,0,0,6-.61,4,4,0,0,0,2.63-2.38,14.93,14.93,0,0,0,.73-5.43V266a15.55,15.55,0,0,0-.67-5.38,4.06,4.06,0,0,0-2.62-2.38,19.87,19.87,0,0,0-6-.67c-.16,0-.24-.25-.24-.74s.08-.73.24-.73l6.35.12c3.59.17,6.47.25,8.68.25,2.44,0,5-.13,7.69-.37q1.47-.12,3.54-.24c1.39-.08,2.89-.12,4.52-.12q10.89,0,16.73,4a13,13,0,0,1,5.87,11.36A19.31,19.31,0,0,1,464.23,282a26.45,26.45,0,0,1-8.92,8.3q10,15.39,16.8,24.12t12,12.64q5.25,3.93,10.26,3.91C494.67,331,494.79,331.25,494.79,331.73Zm-52.4-40.67q7.33,0,10.26-3.3t2.94-12.09q0-9.87-3.3-13.74T443,258.08c-2.93,0-4.94.58-6,1.71s-1.65,3.3-1.65,6.48v24.3a42.59,42.59,0,0,0,7,.49Z" transform="translate(0.01)"/><path class="cls-9" d="M580.78,331.73c0,.5-.21.74-.61.74-1.54,0-4-.08-7.45-.24s-5.91-.25-7.45-.25c-2,0-4.44.09-7.21.25s-4.92.25-6.47.24c-.33,0-.49-.24-.49-.74s.16-.73.49-.73a12.56,12.56,0,0,0,5.19-.79,2.7,2.7,0,0,0,1.65-2.62q0-1.84-2.08-6.24L543.16,294.6H521.05l-9.4,21.19a16.92,16.92,0,0,0-1.59,6.59,7.46,7.46,0,0,0,3.05,6.47q3.06,2.22,8.55,2.2c.41,0,.61.25.61.73s-.2.74-.61.74c-1.47,0-3.58-.08-6.35-.24q-4.62-.25-8.06-.25t-7.7.25c-2.6.16-4.75.24-6.47.24-.41,0-.61-.24-.61-.74s.2-.73.61-.73a11.25,11.25,0,0,0,5.74-1.34,13.76,13.76,0,0,0,4.52-4.83,82.55,82.55,0,0,0,5.25-10.31l26.26-59.12c.17-.25.53-.37,1.1-.37s.9.12,1,.37l29.9,60.34q4.29,8.79,7.15,12t6.17,3.23C580.57,331,580.78,331.25,580.78,331.73ZM522.4,291.55h19.29L531.56,271Z" transform="translate(0.01)"/><path class="cls-10" d="M668,256.86c0,.49-.08.74-.25.74a9,9,0,0,0-7.57,3.48q-2.67,3.48-2.69,9.95v63.15c0,.24-.2.41-.61.49a1,1,0,0,1-.85-.13L598.74,268v49.71c0,4.32.86,7.61,2.57,9.9a8.73,8.73,0,0,0,7.45,3.41c.16,0,.24.25.24.73s-.08.74-.24.74c-2.2,0-3.86,0-5-.12l-6.47-.12-7.21.12c-1.3.08-3.17.12-5.62.12-.24,0-.36-.24-.36-.74s.12-.73.36-.73c3.5,0,6.21-1.13,8.12-3.41s2.87-5.58,2.87-9.9v-53.5a25.74,25.74,0,0,0-6.16-5.13,12,12,0,0,0-5.68-1.46c-.17,0-.25-.25-.25-.74s.08-.73.25-.73l4.88.12c1.06.08,2.57.12,4.52.12l7.82-.12q1.47-.12,3.54-.12a2,2,0,0,1,1.47.49,15.24,15.24,0,0,1,1.46,1.95c1.39,1.88,2.4,3.18,3.06,3.91l43.85,51.79V271q0-6.46-2.57-9.95a8.56,8.56,0,0,0-7.33-3.48c-.16,0-.24-.25-.24-.74s.08-.73.24-.73l5,.12q3.91.27,6.47.25c1.71,0,3.91-.09,6.6-.25l5.37-.12C667.91,256.13,668,256.37,668,256.86Z" transform="translate(0.01)"/><path class="cls-11" d="M696,328.79a36.74,36.74,0,0,1-15.21-14,38.09,38.09,0,0,1-5.25-19.73,37.41,37.41,0,0,1,6.05-20.94,40.09,40.09,0,0,1,16.61-14.29,54.31,54.31,0,0,1,23.8-5,68,68,0,0,1,11.49,1,35.65,35.65,0,0,1,9.28,2.68,3.15,3.15,0,0,1,1.28,1,4.5,4.5,0,0,1,.43,1.83l1.46,15.88c0,.24-.2.41-.61.49a.68.68,0,0,1-.85-.37,31,31,0,0,0-11-14.29,29.3,29.3,0,0,0-17.23-5.13q-13.43,0-20.64,8.73t-7.2,24A49.94,49.94,0,0,0,692.8,312,35.2,35.2,0,0,0,705,326.65a30.32,30.32,0,0,0,17.4,5.25,24.57,24.57,0,0,0,8.31-1.1,7.57,7.57,0,0,0,4.33-4.28c.94-2.11,1.41-5.25,1.41-9.4a36.11,36.11,0,0,0-.74-8.86,4.79,4.79,0,0,0-3.23-3.36c-1.67-.56-4.58-.85-8.74-.85-.48,0-.73-.33-.73-1a1.35,1.35,0,0,1,.18-.67.54.54,0,0,1,.43-.3q10.14.6,16.25.61t12.7-.37c.16,0,.3.1.43.31a1.12,1.12,0,0,1,.18.55c0,.57-.2.85-.61.85-1.63-.08-2.77.18-3.42.8s-1.08,1.85-1.28,3.72-.31,5.13-.31,9.77a48.64,48.64,0,0,0,.43,7.82,22.5,22.5,0,0,1,.43,2.93c0,.49-.11.79-.31.92a9.48,9.48,0,0,1-1.16.55A128.46,128.46,0,0,1,719.43,334Q706,333.95,696,328.79Z" transform="translate(0.01)"/><path class="cls-12" d="M817.37,313.17a1.29,1.29,0,0,1,.67.18c.2.13.31.23.31.31a130.7,130.7,0,0,0-1.23,17,2.1,2.1,0,0,1-.36,1.4,1.91,1.91,0,0,1-1.47.43h-53c-.24,0-.37-.24-.37-.74s.13-.73.37-.73a21.21,21.21,0,0,0,6.05-.61A3.81,3.81,0,0,0,770.9,328a16.34,16.34,0,0,0,.68-5.43V266a15.55,15.55,0,0,0-.68-5.38,4.06,4.06,0,0,0-2.62-2.38,19.87,19.87,0,0,0-6-.67c-.24,0-.37-.25-.37-.74s.13-.73.37-.73h50.81c.82,0,1.22.37,1.22,1.1l.25,15.88c0,.16-.22.29-.67.37s-.72,0-.8-.25q-2.93-13.92-17-13.92H791.2q-4.4,0-6.23,1.58c-1.22,1.06-1.83,2.86-1.83,5.38v24.92h11.72q13.44,0,13.44-9c0-.25.22-.37.67-.37s.67.12.67.37l-.09,10.6.12,5.74q.27,3.92.25,6.35c0,.17-.25.25-.73.25s-.74-.08-.74-.25q0-10.5-13.68-10.5h-11.6v27.71q0,4,1.52,5.62c1,1.06,2.83,1.58,5.44,1.58h6q16.36,0,20.76-15.87C816.88,313.25,817,313.17,817.37,313.17Zm-36.16-63.51a.6.6,0,0,1-.61-.55.71.71,0,0,1,.25-.8,107.14,107.14,0,0,0,10.75-7.69l6.1-4.64c.41-.33,1.71-.17,3.91.48a39.76,39.76,0,0,1,5.8,2.2c1.67.82,2.06,1.31,1.16,1.47a139.31,139.31,0,0,0-13.86,4.09q-6.3,2.26-13.25,5.31Z" transform="translate(0.01)"/><path class="cls-13" d="M884.18,313.17a1.29,1.29,0,0,1,.67.18c.2.13.31.23.31.31a130.82,130.82,0,0,0-1.22,17,2.05,2.05,0,0,1-.37,1.4,1.84,1.84,0,0,1-1.46.43h-53c-.25,0-.37-.24-.37-.74s.12-.73.37-.73a21.26,21.26,0,0,0,6-.61,3.82,3.82,0,0,0,2.57-2.38,16.33,16.33,0,0,0,.67-5.43V266a15.79,15.79,0,0,0-.67-5.38,4.05,4.05,0,0,0-2.63-2.38,19.87,19.87,0,0,0-6-.67c-.25,0-.37-.25-.37-.74s.12-.73.37-.73h50.81c.81,0,1.22.37,1.22,1.1l.24,15.88c0,.16-.22.29-.67.37s-.71,0-.79-.25q-2.94-13.92-17-13.92H858c-2.93,0-5,.53-6.23,1.58s-1.77,2.9-1.77,5.38v24.92h11.73q13.42,0,13.43-9c0-.25.23-.37.67-.37s.68.12.68.37l-.14,10.6.12,5.74q.24,3.92.24,6.35c0,.17-.24.25-.73.25s-.74-.08-.74-.25q0-10.5-13.67-10.5H850v27.71q0,4,1.53,5.62c1,1.06,2.83,1.58,5.44,1.58h6q16.38,0,20.76-15.87C883.69,313.25,883.85,313.17,884.18,313.17Z" transform="translate(0.01)"/><path class="cls-14" d="M913.07,277.08a23.6,23.6,0,0,0,5.62,6c2.23,1.71,5.27,3.75,9.09,6.11,4.16,2.61,7.43,4.85,9.84,6.72a25.47,25.47,0,0,1,6.1,6.9,18,18,0,0,1,2.51,9.59A19.6,19.6,0,0,1,943,323.55a21.49,21.49,0,0,1-9.16,7.64,31.67,31.67,0,0,1-13.5,2.75,43.74,43.74,0,0,1-10.56-1.35,25.15,25.15,0,0,1-8.25-3.3,2.88,2.88,0,0,1-1.22-2.32l-.73-18.56v-.13c0-.32.2-.5.61-.54s.65.1.73.42a64.91,64.91,0,0,0,9.22,16.63,16.26,16.26,0,0,0,13.25,6.47,13.49,13.49,0,0,0,8.79-2.87q3.54-2.88,3.54-9.59a18,18,0,0,0-2.38-9.41,23.25,23.25,0,0,0-5.86-6.71Q924,300,918,296.08t-9.16-6.41a24.2,24.2,0,0,1-5.62-6.47,17.11,17.11,0,0,1-2.32-9,16.65,16.65,0,0,1,3.54-10.75,21.33,21.33,0,0,1,9.23-6.54,33.65,33.65,0,0,1,11.91-2.12,44.37,44.37,0,0,1,8.3.79,33.33,33.33,0,0,1,7,2,2.77,2.77,0,0,1,1.47.91,2.52,2.52,0,0,1,.36,1.41l.37,16.61c0,.24-.22.43-.67.55s-.71,0-.79-.31a54,54,0,0,0-6.54-13.5q-4.08-6-12.27-6a12,12,0,0,0-8.74,3.18c-2.16,2.11-3.23,5-3.23,8.67A14.33,14.33,0,0,0,913.07,277.08Z" transform="translate(0.01)"/></g></g></svg>