<?xml version="1.0" encoding="utf-8"?>
<!-- Generator: Adobe Illustrator 25.3.1, SVG Export Plug-In . SVG Version: 6.00 Build 0)  -->
<svg version="1.1" id="Calque_1" xmlns="http://www.w3.org/2000/svg" xmlns:xlink="http://www.w3.org/1999/xlink" x="0px" y="0px"
	 viewBox="0 0 946.2 590.5" style="enable-background:new 0 0 946.2 590.5;" xml:space="preserve">
<style type="text/css">
	.st0{fill:#FFFFFF;}
</style>
<g id="Calque_2_1_">
	<g id="organizers">
		<polygon class="st0" points="746.2,405.5 746.2,573.3 200.2,573.3 200.2,405.5 182.2,405.5 182.2,573.3 182,573.3 182,590.5 
			182.2,590.5 200.2,590.5 746.2,590.5 764.2,590.5 764.2,573.3 764.2,405.5 		"/>
		<polygon class="st0" points="746.2,185 746.2,17.2 200.2,17.2 200.2,185 182.2,185 182.2,17.2 182,17.2 182,0 182.2,0 200.2,0 
			746.2,0 764.2,0 764.2,17.2 764.2,185 		"/>
		<g>
			<path class="st0" d="M21.3,322.1c-0.1,1.6,0.1,3.2,0.5,4.8c0.4,1,1.2,1.7,2.1,1.9c1.7,0.4,3.4,0.6,5.1,0.5h7.3
				c5.3,0.2,10.5-1.5,14.7-4.8c4-3.3,6.8-7.9,7.9-13c0.1-0.2,0.3-0.4,0.7-0.3s0.6,0.2,0.6,0.4c-0.7,7.7-1.1,14-1.1,19.1
				c0,0.5-0.1,1-0.4,1.4c-0.4,0.3-0.9,0.5-1.5,0.4H0.2c-0.2,0-0.2-0.2-0.2-0.7s0.1-0.7,0.2-0.7c2,0.1,4.1-0.1,6-0.6
				c1.2-0.3,2.1-1.2,2.6-2.4c0.5-1.8,0.8-3.6,0.7-5.4V266c0.1-1.8-0.1-3.6-0.7-5.4c-0.5-1.2-1.4-2-2.6-2.4c-2-0.5-4-0.8-6-0.7
				c-0.2,0-0.2-0.2-0.2-0.7s0.1-0.7,0.2-0.7l6.2,0.1c3.6,0.2,6.5,0.2,8.8,0.2c2.4,0,5.4-0.1,9-0.2l6.1-0.1c0.2,0,0.4,0.2,0.4,0.7
				s-0.1,0.7-0.4,0.7c-2-0.1-4,0.1-5.9,0.7c-1.2,0.4-2.1,1.3-2.6,2.4c-0.5,1.8-0.8,3.6-0.7,5.4L21.3,322.1z"/>
			<path class="st0" d="M122.6,313.2c0.2,0,0.5,0.1,0.7,0.2c0.2,0.1,0.3,0.2,0.3,0.3c-0.8,5.6-1.2,11.3-1.2,17c0,0.5-0.1,1-0.4,1.4
				c-0.4,0.3-0.9,0.5-1.5,0.4h-53c-0.2,0-0.4-0.2-0.4-0.7s0.1-0.7,0.4-0.7c2,0.1,4-0.1,6-0.6c1.2-0.3,2.1-1.2,2.6-2.4
				c0.5-1.8,0.8-3.6,0.7-5.4V266c0.1-1.8-0.1-3.6-0.7-5.4c-0.5-1.2-1.4-2-2.6-2.4c-2-0.5-4-0.8-6-0.7c-0.2,0-0.4-0.2-0.4-0.7
				s0.1-0.7,0.4-0.7h50.8c0.8,0,1.2,0.4,1.2,1.1l0.2,15.9c0,0.2-0.2,0.3-0.7,0.4s-0.7,0-0.8-0.2c-1.9-9.3-7.6-13.9-17-13.9h-4.8
				c-2.9,0-5,0.5-6.2,1.6c-1.2,1.1-1.8,2.9-1.8,5.4v24.9h11.7c9,0,13.4-3,13.4-9c0-0.2,0.2-0.4,0.7-0.4s0.7,0.1,0.7,0.4l-0.1,10.6
				l0.1,5.7c0.2,2.6,0.2,4.7,0.2,6.4c0,0.2-0.2,0.2-0.7,0.2s-0.7-0.1-0.7-0.2c0-7-4.6-10.5-13.7-10.5H88.4v27.7
				c0,2.7,0.5,4.5,1.5,5.6c1,1.1,2.8,1.6,5.4,1.6h6c10.9,0,17.8-5.3,20.8-15.9C122.1,313.3,122.3,313.2,122.6,313.2z"/>
			<path class="st0" d="M151.5,277.1c1.5,2.3,3.4,4.3,5.6,6c2.2,1.7,5.3,3.8,9.1,6.1c4.1,2.6,7.4,4.9,9.8,6.7
				c2.4,1.9,4.5,4.3,6.1,6.9c1.7,2.9,2.6,6.2,2.5,9.6c0.1,3.9-1.1,7.8-3.2,11.1c-2.3,3.4-5.5,6-9.2,7.6c-4.2,1.9-8.9,2.8-13.5,2.8
				c-3.6,0-7.1-0.5-10.6-1.4c-2.9-0.6-5.7-1.7-8.2-3.3c-0.8-0.5-1.2-1.4-1.2-2.3l-0.7-18.5v-0.1c0-0.3,0.2-0.5,0.6-0.5
				c0.4,0,0.7,0.1,0.7,0.4c2.2,6,5.4,11.6,9.2,16.6c3.1,4.1,8.1,6.6,13.2,6.5c3.2,0.1,6.3-0.9,8.8-2.9c2.4-1.9,3.5-5.1,3.5-9.6
				c0.1-3.3-0.7-6.5-2.4-9.4c-1.5-2.6-3.5-4.9-5.9-6.7c-2.3-1.8-5.5-4-9.5-6.6c-4-2.6-7-4.7-9.2-6.4c-2.2-1.8-4.1-4-5.6-6.5
				c-1.6-2.7-2.4-5.8-2.3-9c-0.1-3.9,1.1-7.7,3.5-10.8c2.4-3,5.6-5.2,9.2-6.5c3.8-1.4,7.8-2.1,11.9-2.1c2.8,0,5.6,0.3,8.3,0.8
				c2.4,0.4,4.7,1.1,7,2c0.6,0.1,1.1,0.5,1.5,0.9c0.3,0.4,0.4,0.9,0.4,1.4l0.4,16.6c0,0.2-0.2,0.4-0.7,0.5s-0.7,0-0.8-0.3
				c-1.5-4.8-3.7-9.3-6.5-13.5c-2.7-4-6.8-6-12.3-6c-3.2-0.2-6.4,1-8.7,3.2c-2.2,2.1-3.2,5-3.2,8.7
				C149.2,271.9,150,274.7,151.5,277.1z"/>
			<path class="st0" d="M295.8,256.9c0,0.5-0.1,0.7-0.2,0.7c-2.7,0-5.7,1.4-9.2,4.2c-3.6,3.1-6.7,6.7-9.2,10.8l-13.9,22.6v27.4
				c-0.1,1.9,0.1,3.7,0.7,5.5c0.4,1.1,1.4,2,2.6,2.3c2,0.5,4,0.7,6,0.6c0.2,0,0.4,0.2,0.4,0.7s-0.1,0.7-0.4,0.7
				c-2.7,0-4.7,0-6.2-0.1l-8.9-0.1l-8.8,0.1c-1.6,0.1-3.8,0.1-6.5,0.1c-0.2,0-0.2-0.2-0.2-0.7s0.1-0.7,0.2-0.7
				c2,0.1,4.1-0.1,6.1-0.6c1.2-0.3,2.2-1.2,2.6-2.4c0.6-1.7,0.8-3.6,0.7-5.4v-25.2L233,269.1c-2.8-4.3-5.1-7.3-7.1-9
				c-1.6-1.5-3.6-2.4-5.8-2.5c-0.2,0-0.4-0.2-0.4-0.7s0.1-0.7,0.4-0.7l4,0.1c1.8,0.2,3.1,0.2,3.9,0.2c2.8,0,6.7-0.1,11.7-0.2
				l7.6-0.1c0.2,0,0.2,0.2,0.2,0.7s-0.1,0.7-0.2,0.7c-3.3,0-5,1.1-5,3.4c0.1,1.4,0.6,2.8,1.5,3.9l17.7,27.2l12.6-20.4
				c2-3.3,3-6.3,3-8.8c0-3.6-2.2-5.4-6.7-5.4c-0.2,0-0.2-0.2-0.2-0.7s0.1-0.7,0.2-0.7l6.4,0.1c3.4,0.2,6.6,0.3,9.4,0.2
				c1.4,0,3-0.1,5-0.2l4.5-0.1C295.7,256.1,295.8,256.4,295.8,256.9z"/>
			<path class="st0" d="M325,332.6c-1.2-0.1-2.8-0.2-4.6-0.2c-1.9-0.1-4-0.1-6.4-0.1l-8.7,0.1c-1.5,0.1-3.7,0.1-6.5,0.1
				c-0.2,0-0.2-0.2-0.2-0.7s0.1-0.7,0.2-0.7c2,0.1,4-0.1,6-0.6c1.2-0.3,2.2-1.2,2.6-2.4c0.6-1.7,0.8-3.6,0.7-5.4V266
				c0.1-1.8-0.1-3.6-0.7-5.4c-0.5-1.2-1.4-2-2.6-2.4c-2-0.5-4-0.8-6-0.7c-0.2,0-0.2-0.2-0.2-0.7s0.1-0.7,0.2-0.7l6.5,0.1
				c3.6,0.2,6.4,0.2,8.5,0.2c3.3,0,6.6-0.1,9.9-0.4c4.1-0.2,6.8-0.2,8.2-0.2c7.7-0.2,15.3,1.5,22.2,4.9c6.1,3,11.3,7.6,15,13.3
				c3.6,5.7,5.4,12.2,5.3,18.9c0.1,7.4-1.8,14.6-5.5,20.9c-3.6,5.9-8.7,10.8-14.8,14c-6.3,3.3-13.3,5-20.4,5
				C331.3,333,328.4,332.8,325,332.6z M347.5,326.5c4.5-2.9,8.1-7,10.2-11.9c2.4-5.2,3.7-11.5,3.7-18.9c0.1-6.5-1.1-13-3.5-19
				c-2-5.3-5.4-9.9-9.8-13.4c-4.2-3.3-9.4-5-14.8-4.9c-2.7-0.1-5.3,0.1-7.9,0.6c-1.6,0.2-3,1-4.1,2.3c-1,1.5-1.4,3.3-1.3,5.1v55
				c0,3.3,0.9,5.7,2.6,7.1s5,2.1,10,2.1C337.8,330.7,343,329.2,347.5,326.5L347.5,326.5z"/>
			<path class="st0" d="M494.8,331.7c0,0.5-0.1,0.7-0.4,0.7h-19.7c-1.9,0-5.4-3.4-10.4-10.2c-5.1-6.8-11.3-16.3-18.6-28.5
				c-1.3,0.2-2.7,0.4-4,0.4c-3,0-5.1,0-6.4-0.1v28.6c-0.1,1.9,0.1,3.7,0.7,5.5c0.4,1.1,1.4,2,2.6,2.3c2,0.5,4,0.7,6,0.6
				c0.2,0,0.2,0.2,0.2,0.7s-0.1,0.7-0.2,0.7c-2.7,0-4.8,0-6.2-0.1l-9-0.1l-8.8,0.1c-1.5,0.1-3.7,0.1-6.4,0.1c-0.2,0-0.4-0.2-0.4-0.7
				s0.1-0.7,0.4-0.7c2,0.1,4-0.1,6-0.6c1.2-0.3,2.2-1.2,2.6-2.4c0.6-1.7,0.8-3.6,0.7-5.4V266c0.1-1.8-0.1-3.6-0.7-5.4
				c-0.5-1.2-1.4-2-2.6-2.4c-2-0.5-4-0.8-6-0.7c-0.2,0-0.2-0.2-0.2-0.7s0.1-0.7,0.2-0.7l6.4,0.1c3.6,0.2,6.5,0.2,8.7,0.2
				c2.4,0,5-0.1,7.7-0.4c1-0.1,2.2-0.2,3.5-0.2c1.4-0.1,2.9-0.1,4.5-0.1c7.3,0,12.8,1.3,16.7,4c3.8,2.5,6,6.8,5.9,11.4
				c0,3.9-1.2,7.7-3.4,10.9c-2.3,3.4-5.3,6.3-8.9,8.3c6.7,10.3,12.3,18.3,16.8,24.1s8.5,10,12,12.6c3.5,2.6,6.9,3.9,10.3,3.9
				C494.7,331,494.8,331.3,494.8,331.7z M442.4,291.1c4.9,0,8.3-1.1,10.3-3.3s2.9-6.2,2.9-12.1c0-6.6-1.1-11.2-3.3-13.7
				c-2.2-2.6-5.3-3.9-9.3-3.9c-2.9,0-4.9,0.6-6,1.7s-1.6,3.3-1.6,6.5v24.3C437.7,290.9,440,291.1,442.4,291.1L442.4,291.1z"/>
			<path class="st0" d="M580.8,331.7c0,0.5-0.2,0.7-0.6,0.7c-1.5,0-4-0.1-7.5-0.2c-3.4-0.2-5.9-0.2-7.5-0.2c-2,0-4.4,0.1-7.2,0.2
				c-2.8,0.2-4.9,0.2-6.5,0.2c-0.3,0-0.5-0.2-0.5-0.7s0.2-0.7,0.5-0.7c1.8,0.1,3.5-0.2,5.2-0.8c1-0.4,1.7-1.5,1.7-2.6
				c0-1.2-0.7-3.3-2.1-6.2l-13.2-26.8h-22.1l-9.4,21.2c-1,2.1-1.5,4.3-1.6,6.6c-0.1,2.5,1,5,3.1,6.5c2,1.5,4.9,2.2,8.5,2.2
				c0.4,0,0.6,0.2,0.6,0.7s-0.2,0.7-0.6,0.7c-1.5,0-3.6-0.1-6.3-0.2c-3.1-0.2-5.8-0.3-8.1-0.2c-2.3,0-4.9,0.1-7.7,0.2
				c-2.6,0.2-4.8,0.2-6.5,0.2c-0.4,0-0.6-0.2-0.6-0.7s0.2-0.7,0.6-0.7c2,0.1,4-0.4,5.7-1.3c1.9-1.2,3.4-2.9,4.5-4.8
				c2-3.3,3.7-6.8,5.2-10.3l26.3-59.1c0.2-0.2,0.5-0.4,1.1-0.4s0.9,0.1,1,0.4l29.9,60.3c2.9,5.9,5.2,9.9,7.2,12s4,3.2,6.2,3.2
				C580.6,331,580.8,331.3,580.8,331.7z M522.4,291.6h19.3L531.6,271L522.4,291.6z"/>
			<path class="st0" d="M668,256.9c0,0.5-0.1,0.7-0.2,0.7c-2.9-0.1-5.8,1.2-7.6,3.5c-1.8,2.3-2.7,5.6-2.7,10v63.1
				c0,0.2-0.2,0.4-0.6,0.5s-0.7,0-0.8-0.1L598.7,268v49.7c0,4.3,0.9,7.6,2.6,9.9c1.8,2.3,4.6,3.6,7.5,3.4c0.2,0,0.2,0.2,0.2,0.7
				s-0.1,0.7-0.2,0.7c-2.2,0-3.9,0-5-0.1l-6.5-0.1l-7.2,0.1c-1.3,0.1-3.2,0.1-5.6,0.1c-0.2,0-0.4-0.2-0.4-0.7s0.1-0.7,0.4-0.7
				c3.5,0,6.2-1.1,8.1-3.4s2.9-5.6,2.9-9.9v-53.5c-1.8-2-3.8-3.8-6.2-5.1c-1.7-1-3.7-1.5-5.7-1.5c-0.2,0-0.2-0.2-0.2-0.7
				s0.1-0.7,0.2-0.7l4.9,0.1c1.1,0.1,2.6,0.1,4.5,0.1l7.8-0.1c1-0.1,2.2-0.1,3.5-0.1c0.5,0,1.1,0.1,1.5,0.5c0.5,0.6,1,1.3,1.5,2
				c1.4,1.9,2.4,3.2,3.1,3.9l43.8,51.8V271c0-4.3-0.9-7.6-2.6-10c-1.7-2.3-4.5-3.6-7.3-3.5c-0.2,0-0.2-0.2-0.2-0.7s0.1-0.7,0.2-0.7
				l5,0.1c2.6,0.2,4.8,0.3,6.5,0.2s3.9-0.1,6.6-0.2l5.4-0.1C667.9,256.1,668,256.4,668,256.9z"/>
			<path class="st0" d="M696,328.8c-6.3-3.1-11.6-8-15.2-14c-3.5-6-5.3-12.8-5.2-19.7c-0.1-7.4,2-14.7,6-20.9
				c4.1-6.2,9.9-11.2,16.6-14.3c7.4-3.5,15.6-5.2,23.8-5c3.9,0,7.7,0.3,11.5,1c3.2,0.5,6.3,1.4,9.3,2.7c0.5,0.2,0.9,0.6,1.3,1
				c0.3,0.6,0.4,1.2,0.4,1.8l1.5,15.9c0,0.2-0.2,0.4-0.6,0.5c-0.3,0.1-0.7,0-0.8-0.4c-2.2-5.7-6-10.7-11-14.3
				c-5.1-3.5-11.1-5.3-17.2-5.1c-9,0-15.8,2.9-20.6,8.7s-7.2,13.8-7.2,24c-0.1,7.4,1.4,14.7,4.4,21.4c2.6,5.9,6.8,11,12.2,14.7
				c5.1,3.5,11.2,5.3,17.4,5.2c2.8,0.1,5.6-0.3,8.3-1.1c2-0.8,3.5-2.3,4.3-4.3c0.9-2.1,1.4-5.2,1.4-9.4c0.1-3-0.1-5.9-0.7-8.9
				c-0.4-1.6-1.6-2.9-3.2-3.4c-1.7-0.6-4.6-0.9-8.7-0.9c-0.5,0-0.7-0.3-0.7-1c0-0.2,0.1-0.5,0.2-0.7c0.1-0.2,0.2-0.3,0.4-0.3
				c6.8,0.4,12.2,0.6,16.2,0.6c4.1,0,8.3-0.1,12.7-0.4c0.2,0,0.3,0.1,0.4,0.3c0.1,0.2,0.2,0.4,0.2,0.5c0,0.6-0.2,0.9-0.6,0.9
				c-1.6-0.1-2.8,0.2-3.4,0.8s-1.1,1.9-1.3,3.7s-0.3,5.1-0.3,9.8c-0.1,2.6,0.1,5.2,0.4,7.8c0.2,1,0.3,1.9,0.4,2.9
				c0,0.5-0.1,0.8-0.3,0.9c-0.4,0.2-0.8,0.4-1.2,0.5c-9,2.1-18.2,3.3-27.5,3.4C710.5,333.9,702.7,332.2,696,328.8z"/>
			<path class="st0" d="M817.4,313.2c0.2,0,0.5,0.1,0.7,0.2c0.2,0.1,0.3,0.2,0.3,0.3c-0.8,5.6-1.2,11.3-1.2,17c0,0.5-0.1,1-0.4,1.4
				c-0.4,0.3-0.9,0.5-1.5,0.4h-53c-0.2,0-0.4-0.2-0.4-0.7s0.1-0.7,0.4-0.7c2,0.1,4.1-0.1,6-0.6c1.2-0.3,2.1-1.2,2.6-2.4
				c0.5-1.8,0.8-3.6,0.7-5.4V266c0.1-1.8-0.1-3.6-0.7-5.4c-0.5-1.2-1.4-2-2.6-2.4c-2-0.5-4-0.8-6-0.7c-0.2,0-0.4-0.2-0.4-0.7
				s0.1-0.7,0.4-0.7h50.8c0.8,0,1.2,0.4,1.2,1.1l0.2,15.9c0,0.2-0.2,0.3-0.7,0.4s-0.7,0-0.8-0.2c-2-9.3-7.6-13.9-17-13.9h-4.9
				c-2.9,0-5,0.5-6.2,1.6c-1.2,1.1-1.8,2.9-1.8,5.4v24.9h11.7c9,0,13.4-3,13.4-9c0-0.2,0.2-0.4,0.7-0.4s0.7,0.1,0.7,0.4l-0.1,10.6
				l0.1,5.7c0.2,2.6,0.3,4.7,0.2,6.4c0,0.2-0.2,0.2-0.7,0.2s-0.7-0.1-0.7-0.2c0-7-4.6-10.5-13.7-10.5h-11.6v27.7
				c0,2.7,0.5,4.5,1.5,5.6c1,1.1,2.8,1.6,5.4,1.6h6c10.9,0,17.8-5.3,20.8-15.9C816.9,313.3,817,313.2,817.4,313.2z M781.2,249.7
				c-0.3,0-0.6-0.2-0.6-0.6c-0.1-0.3,0-0.6,0.2-0.8c3.7-2.3,7.3-4.9,10.8-7.7l6.1-4.6c0.4-0.3,1.7-0.2,3.9,0.5
				c2,0.6,3.9,1.3,5.8,2.2c1.7,0.8,2.1,1.3,1.2,1.5c-4.7,1.1-9.3,2.5-13.9,4.1c-4.2,1.5-8.6,3.3-13.2,5.3L781.2,249.7z"/>
			<path class="st0" d="M884.2,313.2c0.2,0,0.5,0.1,0.7,0.2c0.2,0.1,0.3,0.2,0.3,0.3c-0.8,5.6-1.2,11.3-1.2,17c0,0.5-0.1,1-0.4,1.4
				c-0.4,0.3-0.9,0.5-1.5,0.4h-53c-0.2,0-0.4-0.2-0.4-0.7s0.1-0.7,0.4-0.7c2,0.1,4-0.1,6-0.6c1.2-0.3,2.1-1.2,2.6-2.4
				c0.5-1.8,0.7-3.6,0.7-5.4V266c0.1-1.8-0.1-3.6-0.7-5.4c-0.5-1.2-1.4-2-2.6-2.4c-2-0.5-4-0.8-6-0.7c-0.2,0-0.4-0.2-0.4-0.7
				s0.1-0.7,0.4-0.7h50.8c0.8,0,1.2,0.4,1.2,1.1l0.2,15.9c0,0.2-0.2,0.3-0.7,0.4s-0.7,0-0.8-0.2c-2-9.3-7.6-13.9-17-13.9H858
				c-2.9,0-5,0.5-6.2,1.6s-1.8,2.9-1.8,5.4v24.9h11.7c8.9,0,13.4-3,13.4-9c0-0.2,0.2-0.4,0.7-0.4s0.7,0.1,0.7,0.4l-0.1,10.6l0.1,5.7
				c0.2,2.6,0.2,4.7,0.2,6.4c0,0.2-0.2,0.2-0.7,0.2s-0.7-0.1-0.7-0.2c0-7-4.6-10.5-13.7-10.5H850v27.7c0,2.7,0.5,4.5,1.5,5.6
				c1,1.1,2.8,1.6,5.4,1.6h6c10.9,0,17.8-5.3,20.8-15.9C883.7,313.3,883.9,313.2,884.2,313.2z"/>
			<path class="st0" d="M913.1,277.1c1.5,2.3,3.4,4.3,5.6,6c2.2,1.7,5.3,3.8,9.1,6.1c4.2,2.6,7.4,4.9,9.8,6.7
				c2.4,1.9,4.5,4.2,6.1,6.9c1.7,2.9,2.6,6.2,2.5,9.6c0.1,4-1.1,7.8-3.2,11.2c-2.3,3.4-5.5,6-9.2,7.6c-4.2,1.9-8.9,2.8-13.5,2.8
				c-3.6,0-7.1-0.5-10.6-1.4c-2.9-0.6-5.7-1.7-8.2-3.3c-0.8-0.5-1.2-1.4-1.2-2.3l-0.7-18.6v-0.1c0-0.3,0.2-0.5,0.6-0.5
				s0.7,0.1,0.7,0.4c2.2,6,5.3,11.6,9.2,16.6c3.1,4.2,8.1,6.6,13.2,6.5c3.2,0.1,6.3-0.9,8.8-2.9c2.4-1.9,3.5-5.1,3.5-9.6
				c0.1-3.3-0.7-6.5-2.4-9.4c-1.5-2.6-3.5-4.9-5.9-6.7c-2.3-1.8-5.5-4-9.5-6.6c-4-2.6-7-4.7-9.2-6.4c-2.2-1.8-4.1-4-5.6-6.5
				c-1.6-2.7-2.4-5.8-2.3-9c-0.1-3.9,1.1-7.7,3.5-10.8c2.4-3,5.6-5.2,9.2-6.5c3.8-1.4,7.8-2.1,11.9-2.1c2.8,0,5.6,0.3,8.3,0.8
				c2.4,0.4,4.7,1.1,7,2c0.6,0.1,1.1,0.5,1.5,0.9c0.3,0.4,0.4,0.9,0.4,1.4l0.4,16.6c0,0.2-0.2,0.4-0.7,0.5s-0.7,0-0.8-0.3
				c-1.5-4.8-3.7-9.3-6.5-13.5c-2.7-4-6.8-6-12.3-6c-3.2-0.2-6.4,1-8.7,3.2c-2.2,2.1-3.2,5-3.2,8.7
				C910.8,271.9,911.6,274.7,913.1,277.1z"/>
		</g>
		<g>
			<path class="st0" d="M288.1,77.5c-0.6,0.2-1.1,0.7-1.3,1.3c-0.3,1-0.4,2.1-0.3,3.2v28.6c0,1.1,0.1,2.1,0.3,3.2
				c0.2,0.6,0.7,1.1,1.3,1.3c1,0.3,2,0.5,3,0.5v1.2c-1.6-0.1-4.1-0.2-7.4-0.2c-3.1,0-5.5,0.1-7.3,0.2v-1.2c1,0,2-0.2,3-0.5
				c0.6-0.2,1.1-0.7,1.3-1.3c0.3-1,0.4-2.1,0.3-3.2V96.7h-18.7v13.8c0,1.1,0.1,2.1,0.3,3.2c0.2,0.6,0.7,1.1,1.3,1.3
				c1,0.3,2,0.5,3,0.5v1.2c-1.8-0.1-4.2-0.2-7.3-0.2c-3.3,0-5.8,0.1-7.4,0.2v-1.2c1,0,2-0.2,3-0.5c0.6-0.2,1.1-0.7,1.3-1.3
				c0.3-1,0.4-2.1,0.3-3.2V82c0-1.1-0.1-2.1-0.3-3.2c-0.2-0.6-0.7-1.1-1.3-1.3c-1-0.3-2-0.4-3-0.5v-1.2c1.6,0.1,4.1,0.2,7.4,0.2
				c3.1,0,5.5-0.1,7.3-0.2V77c-1,0-2,0.2-3,0.5c-0.6,0.2-1.1,0.7-1.3,1.3c-0.3,1-0.4,2.1-0.3,3.2v13.6h18.7V82
				c0-1.1-0.1-2.1-0.3-3.2c-0.2-0.6-0.7-1.1-1.3-1.3c-1-0.3-2-0.4-3-0.5v-1.2c1.8,0.1,4.2,0.2,7.3,0.2c3.3,0,5.8-0.1,7.4-0.2V77
				C290.1,77,289.1,77.2,288.1,77.5z"/>
			<path class="st0" d="M324,77.5c2.8,1.7,5,4.2,6.4,7.2c1.6,3.5,2.4,7.3,2.3,11.2c0.1,3.9-0.7,7.7-2.3,11.2
				c-1.4,3.1-3.7,5.7-6.5,7.6c-2.8,1.8-6.1,2.7-9.5,2.7c-3.4,0.1-6.7-0.8-9.6-2.5c-2.8-1.7-5-4.2-6.4-7.2c-1.6-3.5-2.4-7.3-2.3-11.2
				c-0.1-3.9,0.7-7.7,2.3-11.2c1.4-3.1,3.7-5.7,6.5-7.6c2.8-1.8,6.1-2.8,9.5-2.7C317.8,75,321.1,75.8,324,77.5z M307.7,78.6
				c-2,2-3.5,4.4-4.3,7.2c-1.1,3.4-1.6,7-1.5,10.5c-0.1,3.6,0.5,7.2,1.7,10.5c0.9,2.7,2.5,5.1,4.6,7c1.8,1.6,4.1,2.5,6.5,2.5
				c2.4,0,4.7-0.9,6.5-2.6c2-2,3.5-4.4,4.3-7.2c1.1-3.4,1.6-7,1.5-10.5c0.1-3.6-0.5-7.2-1.7-10.5c-0.9-2.7-2.5-5.1-4.6-7
				c-1.8-1.6-4.1-2.5-6.5-2.5C311.8,76.1,309.5,77,307.7,78.6z"/>
			<path class="st0" d="M380,77.5c-0.6,0.2-1.1,0.7-1.3,1.3c-0.3,1-0.4,2.1-0.4,3.2v28.6c0,1.1,0.1,2.1,0.4,3.2
				c0.2,0.6,0.7,1.1,1.3,1.3c1,0.3,2,0.5,3,0.5v1.2c-1.8-0.1-4.2-0.2-7.3-0.2c-3.3,0-5.8,0.1-7.4,0.2v-1.2c1,0,2-0.2,3-0.5
				c0.6-0.2,1.1-0.7,1.3-1.3c0.3-1,0.4-2.1,0.4-3.2V79.7l-13.9,37.2h-0.9l-14.5-37.4v30.4c0,1.1,0.1,2.3,0.4,3.3
				c0.2,0.7,0.8,1.3,1.5,1.6c1.1,0.4,2.2,0.6,3.4,0.6v1.2c-1.4-0.1-3.3-0.2-5.9-0.2c-2.3,0-4.1,0.1-5.4,0.2v-1.2c1,0,2-0.2,3-0.6
				c0.7-0.3,1.1-0.9,1.3-1.6c0.3-1.1,0.4-2.2,0.3-3.3v-28c0-1.1-0.1-2.1-0.3-3.2c-0.2-0.6-0.7-1.1-1.3-1.3c-1-0.3-2-0.4-3-0.5v-1.1
				c1.3,0.1,3,0.2,5.4,0.2c2,0,3.6-0.1,4.9-0.2l12.7,33.3L373,76h2.7c3.1,0,5.5-0.1,7.3-0.2V77C382,77,381,77.2,380,77.5z"/>
			<path class="st0" d="M417.8,116.6c-2.6-0.1-7-0.2-13.2-0.2c-7.4,0-12.9,0.1-16.7,0.2v-1.2c1,0,2-0.2,3-0.5
				c0.6-0.2,1.1-0.7,1.3-1.3c0.3-1,0.4-2.1,0.4-3.2V82c0-1.1-0.1-2.1-0.4-3.2c-0.2-0.6-0.7-1.1-1.3-1.3c-1-0.3-2-0.4-3-0.5v-1.2
				c3.8,0.1,9.3,0.2,16.7,0.2c5.6,0,9.6-0.1,12-0.2c-0.3,2.3-0.4,4.5-0.4,6.8c0,1.2,0,2.4,0.2,3.6H415c-0.1-1.9-0.5-3.7-1-5.6
				c-0.4-1.1-1.1-2.1-2.2-2.6c-1.4-0.6-3-0.9-4.5-0.8h-4.8c-1,0-2,0.1-3,0.3c-0.6,0.2-1.1,0.7-1.3,1.3c-0.3,1-0.4,2.1-0.4,3.2v13.6
				h3.8c2.1,0.2,4-1.2,4.6-3.2c0.3-1.1,0.5-2.2,0.6-3.3L407,88h1.3c-0.1,1.6-0.2,3.4-0.2,5.4v2.8c0,2,0.1,4.7,0.3,8.2h-1.3
				c0-0.3-0.1-1.2-0.4-2.8c-0.1-1.3-0.6-2.6-1.6-3.6c-1-0.9-2.3-1.3-3.6-1.2h-3.8v13.8c0,1.1,0.1,2.1,0.4,3.2
				c0.2,0.6,0.7,1.1,1.3,1.3c1,0.2,2,0.4,3,0.3h4.3c1.9,0.1,3.7-0.3,5.4-1c1.2-0.6,2.2-1.7,2.7-3c0.7-2,1.1-4.1,1.3-6.2h1.3
				c-0.1,1.4-0.2,2.8-0.2,4.2C417.3,111.4,417.5,113.9,417.8,116.6z"/>
			<path class="st0" d="M477.9,91.3c-1.2,1.3-2.6,2.4-4.3,3l-3,1.2l-3,1.2c3.6,0.7,6.1,3.9,6.1,7.5c0,2.4-0.7,4.7-2.1,6.7
				c-1.6,2.1-3.7,3.8-6.1,4.8c-3,1.3-6.3,1.9-9.6,1.8c-3.1,0-6.1-0.5-9-1.5c-2.5-0.8-4.8-2.3-6.6-4.2c-1.6-1.7-2.5-4-2.5-6.4
				c-0.1-2.2,0.5-4.3,1.7-6.1c1-1.5,2.3-2.8,3.9-3.8c1.2-0.8,2.5-1.4,3.9-1.8c-1.6-0.5-3.1-1.3-4.3-2.5c-1-1-1.5-2.3-1.5-3.7
				c0-1.9,1-3.7,2.6-4.7c2.1-1.4,4.7-2.1,7.2-1.9c2.1-0.1,4.2,0.5,5.9,1.7c0.7,0.5,1.2,1.2,1.6,1.9c0.3,0.6,0.5,1.3,0.5,2
				c0,0.9-0.3,1.7-1,2.2c-0.6,0.5-1.4,0.8-2.2,0.8c-0.8,0-1.5-0.2-2.1-0.8c-0.6-0.5-0.9-1.3-0.9-2.1c0-1.7,1.3-3.1,3-3.2
				c-0.3-0.6-0.8-1.1-1.5-1.3c-0.9-0.4-1.8-0.6-2.8-0.6c-1.8-0.1-3.5,0.5-4.9,1.7c-1.2,1.1-1.9,2.6-1.9,4.3c0,1.1,0.2,2.3,0.6,3.3
				c0.5,1,1.3,1.9,2.3,2.5c1.2-0.2,2.4-0.3,3.6-0.3c0.6,0,1.2,0.1,1.7,0.4c0.4,0.2,0.6,0.6,0.6,1c0,0.7-0.5,1.1-1.6,1.1
				c-0.6,0-1.3-0.1-1.9-0.3c-0.6-0.2-1.4-0.5-2.3-0.9c-4.2,1.4-6.3,4.4-6.3,8.8c0,2,0.6,4,1.9,5.6c1.4,1.7,3.3,3,5.3,3.7
				c2.5,0.9,5.1,1.3,7.7,1.3c2.8,0,5.6-0.4,8.2-1.2c2.1-0.6,4-1.8,5.5-3.4c1.3-1.4,1.9-3.1,1.9-5c0-1.4-0.4-2.8-1.2-4
				c-0.8-1.3-2.4-2.3-4.7-2.8l-5.9,2.2c-1.5,0.5-2.8,1.2-4.1,2.2c-1.7,1.3-2,3.7-0.7,5.3c0.1,0.2,0.3,0.3,0.4,0.5
				c0.8,0.7,1.8,1.1,2.9,1.1c0.8,0,1.5-0.1,2.2-0.3c0.7-0.2,1.1-0.5,1.2-0.9c-0.7-0.1-1.4-0.5-1.9-0.9c-0.5-0.5-0.8-1.3-0.8-2
				c0-0.8,0.3-1.6,0.9-2.2c0.6-0.6,1.4-0.8,2.3-0.8c0.8,0,1.6,0.3,2.2,0.9c0.6,0.6,0.9,1.4,0.8,2.2c0,1.5-0.8,2.9-2.2,3.6
				c-1.4,0.9-3,1.3-4.6,1.3c-1.5,0.1-2.9-0.4-4-1.4c-1-1.1-1.6-2.5-1.5-4c0-3.9,2.6-6.8,8-8.7l2.1-0.8c3.3-1,6.5-2.3,9.7-3.8
				c1.3-0.6,2.4-1.4,3.4-2.4c0.6-0.7,1-1.6,1-2.5c0-1.2-0.5-2.3-1.5-3c-1-0.8-2.3-1.2-3.6-1.2c-0.3,0-0.7,0-1,0.2
				c-0.2,0.1-0.4,0.2-0.5,0.4c0.5,0.2,0.9,0.6,1.2,1.1c0.3,0.5,0.4,1,0.4,1.5c0,0.8-0.4,1.5-1,2c-0.6,0.5-1.4,0.8-2.2,0.8
				c-0.8,0-1.6-0.2-2.2-0.8c-0.6-0.5-0.9-1.2-0.9-2c-0.1-1.3,0.7-2.6,1.9-3.1c1.4-0.7,3-1,4.5-1c1.7-0.1,3.3,0.5,4.6,1.6
				c1.2,1.2,1.9,2.8,1.8,4.5C479.4,88.5,478.9,90.1,477.9,91.3z"/>
			<path class="st0" d="M526.1,77.5c2.8,1.7,5,4.2,6.4,7.2c1.6,3.5,2.4,7.3,2.3,11.2c0.1,3.9-0.7,7.7-2.3,11.2
				c-1.4,3.1-3.7,5.7-6.5,7.6c-2.8,1.8-6.1,2.8-9.5,2.7c-3.4,0.1-6.7-0.8-9.6-2.5c-2.8-1.7-5-4.2-6.4-7.2c-1.6-3.5-2.4-7.3-2.3-11.2
				c-0.1-3.9,0.7-7.7,2.3-11.2c1.4-3.1,3.7-5.7,6.5-7.6c2.8-1.8,6.1-2.8,9.5-2.7C519.9,75,523.2,75.8,526.1,77.5z M509.8,78.6
				c-2,2-3.5,4.5-4.3,7.2c-1.1,3.4-1.6,7-1.5,10.5c-0.1,3.6,0.5,7.2,1.7,10.5c0.9,2.7,2.5,5.1,4.6,7c1.8,1.6,4.1,2.5,6.4,2.5
				c2.4,0,4.7-0.9,6.5-2.6c2-2,3.5-4.4,4.3-7.2c1.1-3.4,1.6-7,1.5-10.5c0.1-3.6-0.5-7.2-1.7-10.5c-0.9-2.7-2.5-5.1-4.6-7
				c-1.8-1.6-4.1-2.5-6.5-2.5C513.9,76.1,511.6,77,509.8,78.6z"/>
			<path class="st0" d="M568.1,83.2c0,1.9,0.1,3.5,0.2,4.7H567c-0.2-2.2-0.6-4.4-1.2-6.6c-0.4-1.3-1.2-2.5-2.4-3.2
				c-1.7-0.8-3.5-1.1-5.3-1h-3.6c-1,0-2,0.1-3,0.3c-0.6,0.2-1.1,0.7-1.3,1.3c-0.3,1-0.4,2.1-0.3,3.2v14.2h4.2
				c1.1,0.1,2.2-0.3,3.1-0.9c0.7-0.6,1.2-1.4,1.5-2.2c0.3-1.1,0.5-2.2,0.6-3.2l0.2-1.2h1.3c-0.1,1.6-0.2,3.4-0.2,5.4v2.8
				c0,2,0.1,4.7,0.3,8.2h-1.3c0-0.3-0.2-1.2-0.3-2.8c-0.1-1.4-0.6-2.6-1.6-3.6c-1-0.9-2.3-1.3-3.6-1.2h-4.2v13.2
				c-0.1,1.1,0.1,2.2,0.5,3.2c0.3,0.7,0.9,1.1,1.6,1.3c1.2,0.3,2.5,0.5,3.8,0.5v1.2c-2-0.1-4.8-0.2-8.5-0.2c-3.3,0-5.8,0.1-7.4,0.2
				v-1.2c1,0,2-0.2,3-0.5c0.6-0.2,1.1-0.7,1.3-1.3c0.3-1,0.4-2.1,0.3-3.2V82c0-1.1-0.1-2.1-0.3-3.2c-0.2-0.6-0.7-1.1-1.3-1.3
				c-1-0.3-2-0.4-3-0.5v-1.2c3.8,0.1,9.3,0.2,16.7,0.2c5.6,0,9.6-0.1,12-0.2C568.3,78.6,568.1,81,568.1,83.2z"/>
			<path class="st0" d="M600.9,83.2c0,1.9,0,3.5,0.2,4.7h-1.3c-0.2-2.2-0.6-4.4-1.2-6.6c-0.4-1.3-1.2-2.5-2.4-3.2
				c-1.7-0.8-3.5-1.1-5.3-1h-3.6c-1,0-2,0.1-3,0.3c-0.6,0.2-1.1,0.7-1.3,1.3c-0.3,1-0.4,2.1-0.3,3.2v14.2h4.1c2.1,0.2,4-1.2,4.6-3.2
				c0.3-1.1,0.5-2.2,0.6-3.2l0.2-1.2h1.3c-0.1,1.6-0.2,3.4-0.2,5.4v2.8c0,2,0.1,4.7,0.3,8.2h-1.3c0-0.3-0.2-1.2-0.3-2.8
				c-0.1-1.4-0.6-2.6-1.6-3.6c-1-0.9-2.3-1.3-3.6-1.2h-4.2v13.2c-0.1,1.1,0.1,2.2,0.5,3.2c0.3,0.7,0.9,1.1,1.6,1.3
				c1.2,0.3,2.5,0.5,3.7,0.5v1.2c-2-0.1-4.8-0.2-8.5-0.2c-3.3,0-5.8,0.1-7.4,0.2v-1.2c1,0,2-0.2,3-0.5c0.6-0.2,1.1-0.7,1.3-1.3
				c0.3-1,0.4-2.1,0.3-3.2V82c0-1.1-0.1-2.1-0.3-3.2c-0.2-0.6-0.7-1.1-1.3-1.3c-1-0.3-2-0.4-3-0.5v-1.2c3.8,0.1,9.3,0.2,16.7,0.2
				c5.6,0,9.6-0.1,12-0.2C601,78.6,600.9,81,600.9,83.2z"/>
			<path class="st0" d="M620,77c-1,0-2,0.2-3,0.5c-0.6,0.2-1.1,0.7-1.3,1.3c-0.3,1-0.4,2.1-0.3,3.2v28.6c0,1.1,0.1,2.1,0.3,3.2
				c0.2,0.6,0.7,1.1,1.3,1.3c1,0.3,2,0.5,3,0.5v1.2c-1.8-0.1-4.2-0.2-7.3-0.2c-3.3,0-5.8,0.1-7.4,0.2v-1.2c1,0,2-0.2,3-0.5
				c0.6-0.2,1.1-0.7,1.3-1.3c0.3-1,0.4-2.1,0.3-3.2V82c0-1.1-0.1-2.1-0.3-3.2c-0.2-0.6-0.7-1.1-1.3-1.3c-1-0.3-2-0.4-3-0.5v-1.2
				c1.6,0.1,4.1,0.2,7.4,0.2c3.1,0,5.5-0.1,7.3-0.2V77z"/>
			<path class="st0" d="M649.2,76c1.7,0.7,3.3,1.6,4.7,2.8c0.3,0.3,0.7,0.5,1.1,0.5c0.8,0,1.3-1.1,1.5-3.4h1.3
				c-0.2,2.5-0.2,6.9-0.2,13.2h-1.3c-0.3-1.8-0.7-3.6-1.2-5.4c-0.4-1.1-1-2.2-1.7-3.1c-1.1-1.5-2.7-2.7-4.4-3.4
				c-1.8-0.8-3.8-1.1-5.8-1.1c-2.4,0-4.8,0.8-6.5,2.5c-2,1.9-3.5,4.4-4.3,7.1c-1.1,3.5-1.6,7.1-1.6,10.7c-0.1,3.7,0.5,7.3,1.7,10.8
				c0.9,2.7,2.5,5,4.6,6.8c1.9,1.5,4.3,2.3,6.7,2.3c1.9,0,3.8-0.4,5.6-1.1c1.7-0.7,3.2-1.8,4.3-3.3c0.8-1,1.3-2.2,1.7-3.4
				c0.5-1.9,0.8-3.7,1-5.6h1.3c0,6.6,0.1,11.2,0.2,13.8h-1.3c-0.1-0.9-0.2-1.8-0.5-2.6c-0.2-0.5-0.5-0.8-0.9-0.8
				c-0.4,0-0.9,0.2-1.2,0.5c-1.5,1.1-3.2,2.1-4.9,2.8c-1.8,0.7-3.8,1-5.7,1c-3.4,0.1-6.7-0.8-9.6-2.5c-2.8-1.7-5-4.2-6.4-7.2
				c-1.6-3.5-2.4-7.3-2.3-11.2c-0.1-3.9,0.7-7.7,2.3-11.2c1.4-3.1,3.7-5.7,6.5-7.6c2.8-1.8,6.1-2.8,9.5-2.8
				C645.3,75,647.3,75.3,649.2,76z"/>
			<path class="st0" d="M693.9,116.6c-2.6-0.1-7-0.2-13.2-0.2c-7.4,0-12.9,0.1-16.7,0.2v-1.2c1,0,2-0.2,3-0.5
				c0.6-0.2,1.1-0.7,1.3-1.3c0.3-1,0.4-2.1,0.3-3.2V82c0-1.1-0.1-2.1-0.3-3.2c-0.2-0.6-0.7-1.1-1.3-1.3c-1-0.3-2-0.4-3-0.5v-1.2
				c3.8,0.1,9.3,0.2,16.7,0.2c5.7,0,9.7-0.1,12-0.2c-0.3,2.3-0.4,4.5-0.4,6.8c0,1.2,0,2.4,0.2,3.6h-1.3c-0.1-1.9-0.5-3.7-1-5.6
				c-0.3-1.1-1.1-2.1-2.1-2.6c-1.4-0.6-3-0.9-4.6-0.8h-4.8c-1,0-2,0.1-3,0.3c-0.6,0.2-1.1,0.7-1.3,1.3c-0.3,1-0.4,2.1-0.3,3.2v13.6
				h3.8c2.1,0.2,4-1.2,4.6-3.2c0.3-1.1,0.5-2.2,0.6-3.3l0.2-1.2h1.3c-0.1,1.6-0.2,3.4-0.2,5.4v2.8c0,2,0.1,4.7,0.3,8.2h-1.3
				c0-0.3-0.2-1.2-0.3-2.8c-0.1-1.4-0.6-2.6-1.6-3.6c-1-0.9-2.3-1.3-3.6-1.2H674v13.8c0,1.1,0.1,2.1,0.3,3.2
				c0.2,0.6,0.7,1.1,1.3,1.3c1,0.2,2,0.4,3,0.3h4.2c1.9,0.1,3.7-0.3,5.4-1c1.2-0.6,2.2-1.7,2.7-3c0.7-2,1.1-4.1,1.3-6.2h1.3
				c-0.1,1.4-0.2,2.8-0.2,4.2C693.5,111.4,693.6,113.9,693.9,116.6z"/>
		</g>
		<g>
			<path class="st0" d="M327.5,478.8c2.8,1.7,5,4.2,6.4,7.2c1.6,3.5,2.4,7.3,2.3,11.2c0.1,3.9-0.7,7.7-2.3,11.2
				c-1.4,3.1-3.7,5.7-6.5,7.6c-2.8,1.8-6.1,2.8-9.5,2.7c-3.4,0.1-6.7-0.8-9.6-2.5c-2.8-1.7-5-4.2-6.4-7.2c-1.6-3.5-2.4-7.3-2.3-11.2
				c-0.1-3.9,0.7-7.7,2.3-11.2c1.4-3.1,3.7-5.7,6.5-7.6c2.8-1.8,6.1-2.8,9.5-2.7C321.2,476.3,324.6,477.1,327.5,478.8z M311.2,479.9
				c-2,2-3.5,4.4-4.3,7.2c-1.1,3.4-1.6,7-1.5,10.5c-0.1,3.6,0.5,7.1,1.7,10.5c0.9,2.7,2.5,5.1,4.6,7c1.8,1.6,4.1,2.5,6.5,2.5
				c2.4,0,4.7-0.9,6.5-2.6c2-2,3.5-4.4,4.3-7.2c1.1-3.4,1.6-7,1.5-10.5c0-3.6-0.5-7.1-1.7-10.4c-0.9-2.7-2.5-5.1-4.6-7
				c-1.8-1.6-4.1-2.5-6.5-2.5C315.2,477.4,312.9,478.3,311.2,479.9z"/>
			<path class="st0" d="M376.7,515.1c-0.7,1.1-1.6,2.1-2.6,2.8c-1.1,0.6-2.3,0.9-3.5,0.9c-1.4,0.1-2.8-0.4-3.9-1.4
				c-1.2-1.3-2-3-2.3-4.8l-1.3-5.8c-0.3-1.6-0.8-3.1-1.3-4.6c-0.4-1-1-1.9-1.8-2.6c-1-0.7-2.2-1.1-3.4-1h-5.5v13.2
				c0,1.1,0.1,2.1,0.3,3.2c0.2,0.6,0.7,1.1,1.3,1.3c1,0.3,2,0.4,3,0.5v1.2c-1.8-0.1-4.2-0.2-7.3-0.2c-3.3,0-5.8,0.1-7.4,0.2v-1.2
				c1,0,2-0.2,3-0.5c0.6-0.2,1.1-0.7,1.3-1.3c0.3-1,0.4-2.1,0.3-3.2v-28.6c0-1.1-0.1-2.1-0.3-3.2c-0.2-0.6-0.7-1.1-1.3-1.3
				c-1-0.3-2-0.4-3-0.5v-1.1c1.6,0.1,3.9,0.2,7,0.2l6.2-0.1c0.7,0,1.6-0.1,2.5-0.1c4.4,0,7.9,0.9,10.3,2.8c2.3,1.7,3.7,4.4,3.6,7.2
				c0,1.6-0.4,3.1-1.1,4.5c-0.8,1.6-2.1,3-3.6,4.1c-2,1.3-4.2,2.2-6.5,2.5l0.7,0.1c4.2,0.1,7.7,3.4,8.1,7.6l1.4,5.9
				c0.2,1.3,0.6,2.5,1.2,3.7c0.3,0.6,1,1,1.7,1c0.6,0,1.2-0.2,1.6-0.5c0.6-0.5,1.1-1,1.5-1.7L376.7,515.1z M352.7,478.7
				c-0.6,0.3-1.1,0.8-1.2,1.4c-0.3,1-0.4,2.1-0.3,3.1v14.2h3.9c3.8,0,6.4-0.8,7.8-2.5c1.5-2,2.3-4.5,2.1-7c0-3.1-0.8-5.5-2.2-7.1
				s-3.9-2.4-7.3-2.4C354.5,478.3,353.6,478.4,352.7,478.7L352.7,478.7z"/>
			<path class="st0" d="M403.3,477.3c1.7,0.8,3.3,1.7,4.8,2.8c0.3,0.3,0.7,0.5,1.1,0.6c0.7,0,1.2-1.2,1.4-3.5h1.3
				c-0.1,2.5-0.2,6.9-0.2,13.2h-1.3c-0.3-1.7-0.6-3.4-1.1-5c-0.4-1.3-1-2.4-1.8-3.5c-1.2-1.4-2.7-2.6-4.4-3.3
				c-1.8-0.8-3.7-1.2-5.6-1.2c-2.5,0-4.8,0.8-6.7,2.5c-2.1,1.9-3.6,4.4-4.4,7.1c-1.1,3.5-1.6,7.1-1.6,10.7c0,6.9,1.1,12,3.3,15.2
				c2.2,3.2,5.7,4.8,10.4,4.8c2.1,0.1,4.2-0.6,6-1.8c0.6-0.3,1-0.8,1.4-1.4c0.2-0.6,0.3-1.2,0.3-1.8v-5.5c0.1-1.2-0.1-2.4-0.5-3.5
				c-0.3-0.7-0.9-1.3-1.6-1.5c-1.2-0.3-2.5-0.5-3.7-0.5v-1.1c2,0.1,4.7,0.2,8.1,0.2c2.6,0,4.6,0,6-0.2v1.1c-0.7,0-1.3,0.2-1.9,0.5
				c-0.5,0.3-0.8,0.8-0.8,1.3c-0.2,1-0.2,2.1-0.2,3.2v11.4h-1.1c0-0.8-0.2-1.5-0.5-2.2c-0.3-0.7-0.6-1.1-1.1-1.1
				c-0.2,0-0.5,0.1-0.7,0.2c-0.4,0.2-0.8,0.5-1.2,0.8c-1.3,1-2.7,1.8-4.2,2.3c-1.5,0.5-3.2,0.8-4.8,0.8c-3.5,0.1-7-0.7-10.2-2.4
				c-2.8-1.6-5.1-4.1-6.5-7.1c-1.6-3.4-2.3-7.2-2.2-11c-0.1-4,0.7-7.9,2.4-11.5c1.4-3.1,3.7-5.8,6.6-7.7c2.9-1.8,6.2-2.7,9.6-2.7
				C399.6,476.3,401.5,476.6,403.3,477.3z"/>
			<path class="st0" d="M453.2,516.8v1.2c-1.5-0.1-3.6-0.2-6.2-0.2c-3.3,0-5.8,0.1-7.4,0.2v-1.2c1.1,0,2.1-0.2,3.1-0.5
				c0.6-0.3,1-0.9,1-1.6c-0.1-0.9-0.3-1.8-0.7-2.7l-3.5-9.5h-13.9l-2.4,6.1c-0.6,1.5-1,3.1-1.1,4.7c-0.1,1,0.4,2,1.2,2.6
				c1.2,0.6,2.5,0.9,3.8,0.9v1.2c-2.2-0.1-4.4-0.2-6.6-0.2c-1.4,0-2.9,0-4.3,0.2v-1.2c1.9-0.5,3.4-2.1,4.5-5l13.5-34.9h0.9l14,36.2
				C450.1,515.5,451.4,516.7,453.2,516.8z M439,501.3l-6.4-17.2l-6.6,17.2H439z"/>
			<path class="st0" d="M490.2,478.3c-1,0-2,0.2-3,0.6c-0.7,0.3-1.1,0.9-1.3,1.6c-0.3,1.1-0.4,2.2-0.3,3.3v34.4h-1.3l-24.2-37.4
				v30.4c0,1.1,0.1,2.3,0.4,3.3c0.2,0.7,0.8,1.3,1.5,1.6c1.1,0.4,2.2,0.6,3.4,0.6v1.2c-1.4-0.1-3.3-0.2-5.9-0.2
				c-2.3,0-4.1,0.1-5.4,0.2v-1.2c1,0,2-0.2,3-0.6c0.7-0.3,1.1-0.9,1.3-1.6c0.3-1.1,0.4-2.2,0.3-3.3v-28c0-1.1-0.1-2.1-0.3-3.2
				c-0.2-0.6-0.7-1.1-1.3-1.3c-1-0.3-2-0.4-3-0.5v-1.1c1.3,0.1,3,0.2,5.4,0.2c1.7,0,3.2-0.1,4.5-0.2l20.3,31.3v-24.6
				c0-1.1-0.1-2.3-0.4-3.3c-0.2-0.7-0.8-1.3-1.5-1.6c-1.1-0.4-2.2-0.6-3.4-0.6v-1.1c1.4,0.1,3.3,0.2,5.9,0.2c2.3,0,4.1-0.1,5.4-0.2
				L490.2,478.3z"/>
			<path class="st0" d="M509.4,478.3c-1,0-2,0.2-3,0.5c-0.6,0.2-1.1,0.7-1.3,1.3c-0.3,1-0.4,2.1-0.3,3.2v28.6c0,1.1,0.1,2.1,0.3,3.2
				c0.2,0.6,0.7,1.1,1.3,1.3c1,0.3,2,0.4,3,0.5v1.2c-1.8-0.1-4.2-0.2-7.3-0.2c-3.3,0-5.8,0.1-7.4,0.2v-1.2c1,0,2-0.2,3-0.5
				c0.6-0.2,1.1-0.7,1.3-1.3c0.3-1,0.4-2.1,0.4-3.2v-28.6c0-1.1-0.1-2.1-0.4-3.2c-0.2-0.6-0.7-1.1-1.3-1.3c-1-0.3-2-0.4-3-0.5v-1.1
				c1.6,0.1,4.1,0.2,7.4,0.2c3.1,0,5.5-0.1,7.3-0.2V478.3z"/>
			<path class="st0" d="M543.5,478.3l-23,38.3h11.3c1.9,0.1,3.7-0.2,5.4-1c1.3-0.7,2.3-1.9,2.7-3.2c0.7-2.1,1.1-4.3,1.3-6.5h1.3
				c-0.1,1.2-0.2,2.8-0.2,4.7c0,2.2,0.1,4.6,0.4,7.4c-2.8-0.1-7.6-0.2-14.3-0.2c-6.6,0-11.3,0.1-14.2,0.2v-1.2l23.2-38.3h-11.2
				c-1.9-0.1-3.7,0.2-5.4,1c-1.3,0.7-2.3,1.9-2.7,3.2c-0.7,2.1-1.1,4.3-1.3,6.5h-1.3c0.1-1.2,0.2-2.8,0.2-4.7c0-2.2-0.1-4.6-0.4-7.4
				c2.8,0.1,7.6,0.2,14.3,0.2c6.5,0,11.2-0.1,14-0.2L543.5,478.3z"/>
			<path class="st0" d="M578.3,517.9c-2.6-0.1-7-0.2-13.2-0.2c-7.4,0-12.9,0.1-16.7,0.2v-1.2c1,0,2-0.2,3-0.5
				c0.6-0.2,1.1-0.7,1.3-1.3c0.3-1,0.4-2.1,0.3-3.2v-28.6c0.1-1.1-0.1-2.1-0.3-3.2c-0.2-0.6-0.7-1.1-1.3-1.3c-1-0.3-2-0.4-3-0.5
				v-1.1c3.8,0.1,9.3,0.2,16.7,0.2c5.6,0,9.6-0.1,12-0.2c-0.3,2.3-0.4,4.5-0.4,6.8c0,1.2,0,2.4,0.2,3.6h-1.3c-0.1-1.9-0.5-3.7-1-5.5
				c-0.3-1.1-1.1-2.1-2.1-2.6c-1.4-0.6-3-0.9-4.5-0.8h-4.8c-1,0-2,0.1-3,0.3c-0.6,0.2-1.1,0.7-1.3,1.3c-0.3,1-0.4,2.1-0.3,3.2v13.6
				h3.8c2.1,0.2,4-1.2,4.6-3.2c0.3-1.1,0.5-2.2,0.6-3.2l0.2-1.1h1.3c-0.1,1.6-0.2,3.4-0.2,5.4v2.8c0,2,0.1,4.7,0.3,8.2h-1.3
				c0-0.3-0.2-1.2-0.3-2.8c-0.1-1.3-0.6-2.6-1.6-3.6c-1-0.8-2.3-1.3-3.6-1.2h-3.8v13.8c0,1.1,0.1,2.1,0.3,3.2
				c0.2,0.6,0.7,1.1,1.3,1.3c1,0.2,2,0.4,3,0.3h4.2c1.9,0.1,3.7-0.2,5.4-1c1.3-0.6,2.2-1.7,2.7-3c0.7-2,1.1-4.1,1.3-6.2h1.3
				c-0.1,1.4-0.2,2.8-0.2,4.1C577.9,512.7,578.1,515.2,578.3,517.9z"/>
			<path class="st0" d="M619.1,515.1c-0.7,1.1-1.6,2.1-2.7,2.8c-1.1,0.6-2.3,0.9-3.5,0.9c-1.4,0.1-2.8-0.4-3.9-1.4
				c-1.2-1.3-2-3-2.3-4.8l-1.3-5.8c-0.3-1.6-0.8-3.1-1.3-4.6c-0.4-1-1-1.9-1.8-2.6c-1-0.7-2.2-1.1-3.4-1h-5.5v13.2
				c0,1.1,0.1,2.1,0.3,3.2c0.2,0.6,0.7,1.1,1.3,1.3c1,0.3,2,0.4,3,0.5v1.2c-1.8-0.1-4.2-0.2-7.3-0.2c-3.3,0-5.8,0.1-7.4,0.2v-1.2
				c1,0,2-0.2,3-0.5c0.6-0.2,1.1-0.7,1.3-1.3c0.3-1,0.4-2.1,0.3-3.2v-28.6c0-1.1-0.1-2.1-0.3-3.2c-0.2-0.6-0.7-1.1-1.3-1.3
				c-1-0.3-2-0.4-3-0.5v-1.1c1.6,0.1,4,0.2,7,0.2l6.2-0.1c0.7,0,1.5-0.1,2.5-0.1c4.5,0,7.9,0.9,10.3,2.8c2.3,1.7,3.7,4.4,3.6,7.2
				c0,1.6-0.4,3.1-1.1,4.5c-0.8,1.6-2.1,3-3.6,4.1c-2,1.3-4.2,2.2-6.5,2.5l0.7,0.1c4.2,0.1,7.7,3.4,8.1,7.6l1.4,5.9
				c0.2,1.3,0.6,2.5,1.2,3.7c0.3,0.6,1,1,1.7,1c0.6,0,1.2-0.2,1.6-0.5c0.6-0.5,1.1-1.1,1.5-1.7L619.1,515.1z M595.1,478.7
				c-0.6,0.3-1.1,0.8-1.2,1.4c-0.3,1-0.4,2.1-0.3,3.1v14.2h3.9c3.8,0,6.4-0.8,7.8-2.5c1.5-2,2.3-4.5,2.1-7c0-3.1-0.7-5.5-2.2-7.1
				s-3.9-2.4-7.3-2.4C596.9,478.3,596,478.4,595.1,478.7L595.1,478.7z"/>
			<path class="st0" d="M637.2,477.1c1.1,0.4,2.1,0.9,3,1.6c0.6,0.4,1.3,0.7,2,0.8c0.4,0,0.7-0.3,0.8-0.6c0.2-0.6,0.4-1.3,0.5-1.9
				h1.3c-0.2,2.2-0.3,6.1-0.3,11.7h-1.3c-0.1-2.8-1.1-5.5-2.7-7.9c-1.6-2.1-4.1-3.3-6.8-3.2c-1.9-0.1-3.7,0.6-5.1,1.9
				c-1.3,1.2-2,3-2,4.8c0,1.3,0.3,2.7,1,3.8c0.7,1.1,1.5,2,2.6,2.8c1,0.8,2.5,1.7,4.4,2.9l1.7,1c2,1.2,3.9,2.5,5.7,3.9
				c1.4,1.1,2.5,2.4,3.4,3.9c0.9,1.6,1.3,3.3,1.3,5.1c0.2,3.1-1.1,6.1-3.5,8.1c-2.5,2-5.6,3-8.8,2.8c-1.5,0-3.1-0.1-4.5-0.6
				c-1.2-0.4-2.3-0.9-3.4-1.6c-0.6-0.4-1.3-0.7-2-0.8c-0.4,0-0.7,0.3-0.8,0.6c-0.2,0.6-0.4,1.3-0.5,1.9H622
				c0.2-2.1,0.2-6.7,0.2-13.8h1.4c0.1,3.3,1.1,6.6,2.9,9.4c1.7,2.4,4.2,3.6,7.6,3.6c1.9,0,3.8-0.6,5.3-1.9c1.5-1.5,2.3-3.6,2.2-5.7
				c0-2-0.7-4-2.2-5.5c-2.1-2-4.4-3.7-6.8-5.1c-2.3-1.4-4.1-2.6-5.5-3.7c-1.4-1.1-2.6-2.4-3.4-3.9c-0.9-1.6-1.4-3.5-1.3-5.3
				c0-3.2,1-5.7,3.1-7.4c2.2-1.7,4.9-2.7,7.7-2.6C634.5,476.5,635.9,476.7,637.2,477.1z"/>
		</g>
	</g>
</g>
</svg>
