<svg xmlns="http://www.w3.org/2000/svg" xmlns:xlink="http://www.w3.org/1999/xlink" viewBox="0 0 946.24 590.52">
    <defs>
        <style>
            .cls-1 {
                fill: url(#Dégradé_sans_nom_63);
            }

            .cls-2 {
                fill: url(#Dégradé_sans_nom_63-2);
            }

            .cls-3 {
                fill: url(#Dégradé_sans_nom_63-3);
            }

            .cls-4 {
                fill: url(#Dégradé_sans_nom_63-4);
            }

            .cls-5 {
                fill: url(#Dégradé_sans_nom_63-5);
            }

            .cls-6 {
                fill: url(#Dégradé_sans_nom_63-6);
            }

            .cls-7 {
                fill: url(#Dégradé_sans_nom_63-7);
            }

            .cls-8 {
                fill: url(#Dégradé_sans_nom_63-8);
            }

            .cls-9 {
                fill: url(#Dégradé_sans_nom_63-9);
            }

            .cls-10 {
                fill: url(#Dégradé_sans_nom_63-10);
            }

            .cls-11 {
                fill: url(#Dégradé_sans_nom_63-11);
            }

            .cls-12 {
                fill: url(#Dégradé_sans_nom_63-12);
            }

            .cls-13 {
                fill: url(#Dégradé_sans_nom_63-13);
            }
            .cls-14 {
                fill: url(#Dégradé_sans_nom_63-14);
            }
        </style>
        <linearGradient id="Dégradé_sans_nom_63" x1="-1.33" y1="92.5" x2="944.57" y2="92.5"
                        gradientUnits="userSpaceOnUse">
            <stop offset="0" stop-color="#6a11cb"/>
            <stop offset="0.7" stop-color="#77d4ff"/>
        </linearGradient>
        <linearGradient id="Dégradé_sans_nom_63-2" x1="-1.33" y1="498.02" x2="944.57" y2="498.02"
                        xlink:href="#Dégradé_sans_nom_63"/>
        <linearGradient id="Dégradé_sans_nom_63-3" x1="-1.34" y1="294.31" x2="944.56" y2="294.31"
                        xlink:href="#Dégradé_sans_nom_63"/>
        <linearGradient id="Dégradé_sans_nom_63-4" x1="-1.34" y1="294.32" x2="944.56" y2="294.32"
                        xlink:href="#Dégradé_sans_nom_63"/>
        <linearGradient id="Dégradé_sans_nom_63-5" x1="-1.34" y1="294.35" x2="944.56" y2="294.35"
                        xlink:href="#Dégradé_sans_nom_63"/>
        <linearGradient id="Dégradé_sans_nom_63-6" x1="-1.34" y1="294.29" x2="944.56" y2="294.29"
                        xlink:href="#Dégradé_sans_nom_63"/>
        <linearGradient id="Dégradé_sans_nom_63-7" x1="-1.34" y1="294.41" x2="944.56" y2="294.41"
                        xlink:href="#Dégradé_sans_nom_63"/>
        <linearGradient id="Dégradé_sans_nom_63-8" x1="-1.34" y1="294.14" x2="944.56" y2="294.14"
                        xlink:href="#Dégradé_sans_nom_63"/>
        <linearGradient id="Dégradé_sans_nom_63-9" x1="-1.34" y1="293.8" x2="944.56" y2="293.8"
                        xlink:href="#Dégradé_sans_nom_63"/>
        <linearGradient id="Dégradé_sans_nom_63-10" x1="-1.34" y1="295.42" x2="944.56" y2="295.42"
                        xlink:href="#Dégradé_sans_nom_63"/>
        <linearGradient id="Dégradé_sans_nom_63-11" x1="-1.34" y1="294.37" x2="944.56" y2="294.37"
                        xlink:href="#Dégradé_sans_nom_63"/>
        <linearGradient id="Dégradé_sans_nom_63-12" x1="-1.34" y1="284.16" x2="944.56" y2="284.16"
                        xlink:href="#Dégradé_sans_nom_63"/>
        <linearGradient id="Dégradé_sans_nom_63-13" x1="-1.34" y1="294.32" x2="944.56" y2="294.32"
                        xlink:href="#Dégradé_sans_nom_63"/>
        <linearGradient id="Dégradé_sans_nom_63-14" x1="-1.34" y1="294.37" x2="944.56" y2="294.37"
                        xlink:href="#Dégradé_sans_nom_63"/>
    </defs>
    <g id="organizerTop">
        <polygon class="cls-1"
                 points="746.19 185 746.19 17.2 200.19 17.2 200.19 185 182.19 185 182.19 17.2 182.06 17.2 182.06 0 182.19 0 200.19 0 746.19 0 764.19 0 764.19 17.2 764.19 185 746.19 185"/>
    </g>
    <g id="organizerBot">
        <polygon class="cls-2"
                 points="746.19 405.52 746.19 573.32 200.19 573.32 200.19 405.52 182.19 405.52 182.19 573.32 182.06 573.32 182.06 590.52 182.19 590.52 200.19 590.52 746.19 590.52 764.19 590.52 764.19 573.32 764.19 405.52 746.19 405.52"/>
    </g>
    <g id="lesYDRangeesTitle">
        <path class="cls-3"
              d="M21.25,322.09a15.26,15.26,0,0,0,.55,4.76,3.09,3.09,0,0,0,2.14,1.94,18.86,18.86,0,0,0,5.13.49h7.32a22.55,22.55,0,0,0,14.66-4.82,22.94,22.94,0,0,0,7.94-13c.08-.25.33-.35.73-.3s.62.18.62.42q-1.11,11.49-1.1,19.06a2.05,2.05,0,0,1-.37,1.4,1.84,1.84,0,0,1-1.46.43H.24c-.16,0-.24-.24-.24-.74s.08-.73.24-.73a21.21,21.21,0,0,0,6.05-.61A3.81,3.81,0,0,0,8.85,328a16.08,16.08,0,0,0,.67-5.43V266a15.55,15.55,0,0,0-.67-5.38,4.06,4.06,0,0,0-2.62-2.38,19.87,19.87,0,0,0-6-.67c-.16,0-.24-.25-.24-.74s.08-.73.24-.73l6.23.12c3.58.17,6.52.25,8.8.25q3.66,0,9-.25l6.11-.12c.24,0,.37.24.37.73s-.13.74-.37.74a19.11,19.11,0,0,0-5.92.67,4,4,0,0,0-2.57,2.44,16.39,16.39,0,0,0-.67,5.44Z"
              transform="translate(0.01)"/>
        <path class="cls-4"
              d="M122.63,313.17a1.29,1.29,0,0,1,.67.18c.2.13.31.23.31.31a130.7,130.7,0,0,0-1.23,17,2.1,2.1,0,0,1-.36,1.4,1.87,1.87,0,0,1-1.47.43h-53c-.24,0-.37-.24-.37-.74s.13-.73.37-.73a21.26,21.26,0,0,0,6-.61A3.81,3.81,0,0,0,76.11,328a16.34,16.34,0,0,0,.68-5.43V266a15.55,15.55,0,0,0-.68-5.38,4.06,4.06,0,0,0-2.62-2.38,19.87,19.87,0,0,0-6-.67c-.24,0-.37-.25-.37-.74s.13-.73.37-.73H118.3c.82,0,1.22.37,1.22,1.1l.25,15.88c0,.16-.22.29-.67.37s-.72,0-.8-.25q-2.91-13.92-17-13.92H96.49q-4.38,0-6.23,1.58c-1.22,1.06-1.83,2.86-1.83,5.38v24.92h11.73q13.44,0,13.43-9c0-.25.22-.37.67-.37s.67.12.67.37l-.12,10.6.12,5.74q.25,3.92.25,6.35c0,.17-.25.25-.73.25s-.74-.08-.74-.25q0-10.5-13.68-10.5H88.43v27.71q0,4,1.52,5.62c1,1.06,2.83,1.58,5.44,1.58h6q16.38,0,20.76-15.87C122.14,313.25,122.3,313.17,122.63,313.17Z"
              transform="translate(0.01)"/>
        <path class="cls-5"
              d="M151.51,277.08a24.13,24.13,0,0,0,5.62,6q3.36,2.58,9.1,6.11,6.22,3.93,9.84,6.72a25.79,25.79,0,0,1,6.1,6.9,18,18,0,0,1,2.5,9.59,19.55,19.55,0,0,1-3.23,11.11,21.62,21.62,0,0,1-9.16,7.64,31.82,31.82,0,0,1-13.5,2.75,43.88,43.88,0,0,1-10.57-1.35,25.1,25.1,0,0,1-8.24-3.3,2.88,2.88,0,0,1-1.22-2.32L138,308.41v-.13q0-.48.6-.54c.41,0,.66.1.74.42a65,65,0,0,0,9.24,16.63,16.26,16.26,0,0,0,13.25,6.47,13.52,13.52,0,0,0,8.8-2.87q3.54-2.88,3.54-9.59a18,18,0,0,0-2.38-9.41,23.53,23.53,0,0,0-5.86-6.71q-3.5-2.69-9.47-6.6t-9.16-6.41a24.2,24.2,0,0,1-5.62-6.47,17,17,0,0,1-2.32-9,16.65,16.65,0,0,1,3.54-10.75,21.3,21.3,0,0,1,9.22-6.54A33.94,33.94,0,0,1,164,254.79a44.56,44.56,0,0,1,8.31.79,33.33,33.33,0,0,1,7,2,2.74,2.74,0,0,1,1.46.91,2.51,2.51,0,0,1,.37,1.41l.37,16.61c0,.24-.23.43-.67.55s-.72,0-.8-.31a54.33,54.33,0,0,0-6.53-13.5q-4.08-6-12.28-6a12,12,0,0,0-8.73,3.18,11.59,11.59,0,0,0-3.24,8.67A14.5,14.5,0,0,0,151.51,277.08Z"
              transform="translate(0.01)"/>
        <path class="cls-6"
              d="M295.82,256.86c0,.49-.08.74-.24.74q-4,0-9.16,4.21a42.79,42.79,0,0,0-9.16,10.81l-13.92,22.6v27.36a16.43,16.43,0,0,0,.67,5.49,3.83,3.83,0,0,0,2.56,2.32,21.28,21.28,0,0,0,6.05.61c.24,0,.36.25.36.73s-.12.74-.36.74q-4,0-6.23-.12l-8.92-.12-8.79.12q-2.43.12-6.48.12c-.16,0-.24-.24-.24-.74s.08-.73.24-.73a21.21,21.21,0,0,0,6.05-.61,4,4,0,0,0,2.62-2.38,14.52,14.52,0,0,0,.74-5.43V297.41L233,269.08c-2.76-4.32-5.15-7.31-7.14-9a9.22,9.22,0,0,0-5.81-2.5c-.24,0-.36-.25-.36-.74s.12-.73.36-.73l4,.12c1.79.17,3.09.25,3.91.25q4.14,0,11.72-.25l7.57-.12c.17,0,.25.24.25.73s-.08.74-.25.74q-5,0-5,3.42a7.47,7.47,0,0,0,1.47,3.91l17.71,27.23L274,271.79c2-3.33,3.05-6.26,3.05-8.79q0-5.37-6.71-5.37c-.17,0-.25-.25-.25-.74s.08-.73.25-.73l6.35.12c3.42.18,6.56.26,9.4.25,1.39,0,3.05-.08,5-.25l4.52-.12C295.74,256.13,295.82,256.37,295.82,256.86Z"
              transform="translate(0.01)"/>
        <path class="cls-7"
              d="M325,332.59q-1.83-.12-4.65-.24t-6.35-.12l-8.67.12c-1.55.08-3.7.12-6.47.12-.17,0-.25-.24-.25-.74s.08-.73.25-.73a21.26,21.26,0,0,0,6-.61,4,4,0,0,0,2.63-2.38,14.93,14.93,0,0,0,.73-5.43V266a15.79,15.79,0,0,0-.67-5.38,4.05,4.05,0,0,0-2.63-2.38,19.56,19.56,0,0,0-6-.67c-.16,0-.24-.25-.24-.74s.08-.73.24-.73l6.47.12c3.58.17,6.44.25,8.55.25,3.26,0,6.56-.13,9.9-.37,4.07-.16,6.79-.24,8.18-.24a48.42,48.42,0,0,1,22.19,4.9,37,37,0,0,1,15,13.31A34.74,34.74,0,0,1,374.52,293,39.75,39.75,0,0,1,369,314a37.69,37.69,0,0,1-14.78,14,42.63,42.63,0,0,1-20.4,4.95C331.28,333,328.35,332.79,325,332.59Zm22.53-6.11a26.67,26.67,0,0,0,10.2-11.91q3.66-7.86,3.66-18.86a49.44,49.44,0,0,0-3.48-19,32,32,0,0,0-9.83-13.44,23.42,23.42,0,0,0-14.78-4.94,39.87,39.87,0,0,0-7.94.61,6.84,6.84,0,0,0-4.09,2.26,8.19,8.19,0,0,0-1.28,5.07v55c0,3.34.85,5.73,2.56,7.15s5.05,2.14,10,2.14a27.81,27.81,0,0,0,15-4.08Z"
              transform="translate(0.01)"/>
        <path class="cls-8"
              d="M494.79,331.73c0,.5-.12.74-.36.74H474.76q-2.81,0-10.44-10.2t-18.63-28.48a20.68,20.68,0,0,1-4,.37q-4.51,0-6.35-.12v28.58a16.43,16.43,0,0,0,.67,5.49,3.85,3.85,0,0,0,2.57,2.32,21.26,21.26,0,0,0,6,.61c.17,0,.24.25.24.73s-.07.74-.24.74c-2.69,0-4.76,0-6.23-.12l-9-.12-8.8.12q-2.31.12-6.35.12c-.25,0-.37-.24-.37-.74s.12-.73.37-.73a21.26,21.26,0,0,0,6-.61,4,4,0,0,0,2.63-2.38,14.93,14.93,0,0,0,.73-5.43V266a15.55,15.55,0,0,0-.67-5.38,4.06,4.06,0,0,0-2.62-2.38,19.87,19.87,0,0,0-6-.67c-.16,0-.24-.25-.24-.74s.08-.73.24-.73l6.35.12c3.59.17,6.47.25,8.68.25,2.44,0,5-.13,7.69-.37q1.47-.12,3.54-.24c1.39-.08,2.89-.12,4.52-.12q10.89,0,16.73,4a13,13,0,0,1,5.87,11.36A19.31,19.31,0,0,1,464.23,282a26.45,26.45,0,0,1-8.92,8.3q10,15.39,16.8,24.12t12,12.64q5.25,3.93,10.26,3.91C494.67,331,494.79,331.25,494.79,331.73Zm-52.4-40.67q7.33,0,10.26-3.3t2.94-12.09q0-9.87-3.3-13.74T443,258.08c-2.93,0-4.94.58-6,1.71s-1.65,3.3-1.65,6.48v24.3a42.59,42.59,0,0,0,7,.49Z"
              transform="translate(0.01)"/>
        <path class="cls-9"
              d="M580.78,331.73c0,.5-.21.74-.61.74-1.54,0-4-.08-7.45-.24s-5.91-.25-7.45-.25c-2,0-4.44.09-7.21.25s-4.92.25-6.47.24c-.33,0-.49-.24-.49-.74s.16-.73.49-.73a12.56,12.56,0,0,0,5.19-.79,2.7,2.7,0,0,0,1.65-2.62q0-1.84-2.08-6.24L543.16,294.6H521.05l-9.4,21.19a16.92,16.92,0,0,0-1.59,6.59,7.46,7.46,0,0,0,3.05,6.47q3.06,2.22,8.55,2.2c.41,0,.61.25.61.73s-.2.74-.61.74c-1.47,0-3.58-.08-6.35-.24q-4.62-.25-8.06-.25t-7.7.25c-2.6.16-4.75.24-6.47.24-.41,0-.61-.24-.61-.74s.2-.73.61-.73a11.25,11.25,0,0,0,5.74-1.34,13.76,13.76,0,0,0,4.52-4.83,82.55,82.55,0,0,0,5.25-10.31l26.26-59.12c.17-.25.53-.37,1.1-.37s.9.12,1,.37l29.9,60.34q4.29,8.79,7.15,12t6.17,3.23C580.57,331,580.78,331.25,580.78,331.73ZM522.4,291.55h19.29L531.56,271Z"
              transform="translate(0.01)"/>
        <path class="cls-10"
              d="M668,256.86c0,.49-.08.74-.25.74a9,9,0,0,0-7.57,3.48q-2.67,3.48-2.69,9.95v63.15c0,.24-.2.41-.61.49a1,1,0,0,1-.85-.13L598.74,268v49.71c0,4.32.86,7.61,2.57,9.9a8.73,8.73,0,0,0,7.45,3.41c.16,0,.24.25.24.73s-.08.74-.24.74c-2.2,0-3.86,0-5-.12l-6.47-.12-7.21.12c-1.3.08-3.17.12-5.62.12-.24,0-.36-.24-.36-.74s.12-.73.36-.73c3.5,0,6.21-1.13,8.12-3.41s2.87-5.58,2.87-9.9v-53.5a25.74,25.74,0,0,0-6.16-5.13,12,12,0,0,0-5.68-1.46c-.17,0-.25-.25-.25-.74s.08-.73.25-.73l4.88.12c1.06.08,2.57.12,4.52.12l7.82-.12q1.47-.12,3.54-.12a2,2,0,0,1,1.47.49,15.24,15.24,0,0,1,1.46,1.95c1.39,1.88,2.4,3.18,3.06,3.91l43.85,51.79V271q0-6.46-2.57-9.95a8.56,8.56,0,0,0-7.33-3.48c-.16,0-.24-.25-.24-.74s.08-.73.24-.73l5,.12q3.91.27,6.47.25c1.71,0,3.91-.09,6.6-.25l5.37-.12C667.91,256.13,668,256.37,668,256.86Z"
              transform="translate(0.01)"/>
        <path class="cls-11"
              d="M696,328.79a36.74,36.74,0,0,1-15.21-14,38.09,38.09,0,0,1-5.25-19.73,37.41,37.41,0,0,1,6.05-20.94,40.09,40.09,0,0,1,16.61-14.29,54.31,54.31,0,0,1,23.8-5,68,68,0,0,1,11.49,1,35.65,35.65,0,0,1,9.28,2.68,3.15,3.15,0,0,1,1.28,1,4.5,4.5,0,0,1,.43,1.83l1.46,15.88c0,.24-.2.41-.61.49a.68.68,0,0,1-.85-.37,31,31,0,0,0-11-14.29,29.3,29.3,0,0,0-17.23-5.13q-13.43,0-20.64,8.73t-7.2,24A49.94,49.94,0,0,0,692.8,312,35.2,35.2,0,0,0,705,326.65a30.32,30.32,0,0,0,17.4,5.25,24.57,24.57,0,0,0,8.31-1.1,7.57,7.57,0,0,0,4.33-4.28c.94-2.11,1.41-5.25,1.41-9.4a36.11,36.11,0,0,0-.74-8.86,4.79,4.79,0,0,0-3.23-3.36c-1.67-.56-4.58-.85-8.74-.85-.48,0-.73-.33-.73-1a1.35,1.35,0,0,1,.18-.67.54.54,0,0,1,.43-.3q10.14.6,16.25.61t12.7-.37c.16,0,.3.1.43.31a1.12,1.12,0,0,1,.18.55c0,.57-.2.85-.61.85-1.63-.08-2.77.18-3.42.8s-1.08,1.85-1.28,3.72-.31,5.13-.31,9.77a48.64,48.64,0,0,0,.43,7.82,22.5,22.5,0,0,1,.43,2.93c0,.49-.11.79-.31.92a9.48,9.48,0,0,1-1.16.55A128.46,128.46,0,0,1,719.43,334Q706,333.95,696,328.79Z"
              transform="translate(0.01)"/>
        <path class="cls-12"
              d="M817.37,313.17a1.29,1.29,0,0,1,.67.18c.2.13.31.23.31.31a130.7,130.7,0,0,0-1.23,17,2.1,2.1,0,0,1-.36,1.4,1.91,1.91,0,0,1-1.47.43h-53c-.24,0-.37-.24-.37-.74s.13-.73.37-.73a21.21,21.21,0,0,0,6.05-.61A3.81,3.81,0,0,0,770.9,328a16.34,16.34,0,0,0,.68-5.43V266a15.55,15.55,0,0,0-.68-5.38,4.06,4.06,0,0,0-2.62-2.38,19.87,19.87,0,0,0-6-.67c-.24,0-.37-.25-.37-.74s.13-.73.37-.73h50.81c.82,0,1.22.37,1.22,1.1l.25,15.88c0,.16-.22.29-.67.37s-.72,0-.8-.25q-2.93-13.92-17-13.92H791.2q-4.4,0-6.23,1.58c-1.22,1.06-1.83,2.86-1.83,5.38v24.92h11.72q13.44,0,13.44-9c0-.25.22-.37.67-.37s.67.12.67.37l-.09,10.6.12,5.74q.27,3.92.25,6.35c0,.17-.25.25-.73.25s-.74-.08-.74-.25q0-10.5-13.68-10.5h-11.6v27.71q0,4,1.52,5.62c1,1.06,2.83,1.58,5.44,1.58h6q16.36,0,20.76-15.87C816.88,313.25,817,313.17,817.37,313.17Zm-36.16-63.51a.6.6,0,0,1-.61-.55.71.71,0,0,1,.25-.8,107.14,107.14,0,0,0,10.75-7.69l6.1-4.64c.41-.33,1.71-.17,3.91.48a39.76,39.76,0,0,1,5.8,2.2c1.67.82,2.06,1.31,1.16,1.47a139.31,139.31,0,0,0-13.86,4.09q-6.3,2.26-13.25,5.31Z"
              transform="translate(0.01)"/>
        <path class="cls-13"
              d="M884.18,313.17a1.29,1.29,0,0,1,.67.18c.2.13.31.23.31.31a130.82,130.82,0,0,0-1.22,17,2.05,2.05,0,0,1-.37,1.4,1.84,1.84,0,0,1-1.46.43h-53c-.25,0-.37-.24-.37-.74s.12-.73.37-.73a21.26,21.26,0,0,0,6-.61,3.82,3.82,0,0,0,2.57-2.38,16.33,16.33,0,0,0,.67-5.43V266a15.79,15.79,0,0,0-.67-5.38,4.05,4.05,0,0,0-2.63-2.38,19.87,19.87,0,0,0-6-.67c-.25,0-.37-.25-.37-.74s.12-.73.37-.73h50.81c.81,0,1.22.37,1.22,1.1l.24,15.88c0,.16-.22.29-.67.37s-.71,0-.79-.25q-2.94-13.92-17-13.92H858c-2.93,0-5,.53-6.23,1.58s-1.77,2.9-1.77,5.38v24.92h11.73q13.42,0,13.43-9c0-.25.23-.37.67-.37s.68.12.68.37l-.14,10.6.12,5.74q.24,3.92.24,6.35c0,.17-.24.25-.73.25s-.74-.08-.74-.25q0-10.5-13.67-10.5H850v27.71q0,4,1.53,5.62c1,1.06,2.83,1.58,5.44,1.58h6q16.38,0,20.76-15.87C883.69,313.25,883.85,313.17,884.18,313.17Z"
              transform="translate(0.01)"/>
        <path class="cls-14"
              d="M913.07,277.08a23.6,23.6,0,0,0,5.62,6c2.23,1.71,5.27,3.75,9.09,6.11,4.16,2.61,7.43,4.85,9.84,6.72a25.47,25.47,0,0,1,6.1,6.9,18,18,0,0,1,2.51,9.59A19.6,19.6,0,0,1,943,323.55a21.49,21.49,0,0,1-9.16,7.64,31.67,31.67,0,0,1-13.5,2.75,43.74,43.74,0,0,1-10.56-1.35,25.15,25.15,0,0,1-8.25-3.3,2.88,2.88,0,0,1-1.22-2.32l-.73-18.56v-.13c0-.32.2-.5.61-.54s.65.1.73.42a64.91,64.91,0,0,0,9.22,16.63,16.26,16.26,0,0,0,13.25,6.47,13.49,13.49,0,0,0,8.79-2.87q3.54-2.88,3.54-9.59a18,18,0,0,0-2.38-9.41,23.25,23.25,0,0,0-5.86-6.71Q924,300,918,296.08t-9.16-6.41a24.2,24.2,0,0,1-5.62-6.47,17.11,17.11,0,0,1-2.32-9,16.65,16.65,0,0,1,3.54-10.75,21.33,21.33,0,0,1,9.23-6.54,33.65,33.65,0,0,1,11.91-2.12,44.37,44.37,0,0,1,8.3.79,33.33,33.33,0,0,1,7,2,2.77,2.77,0,0,1,1.47.91,2.52,2.52,0,0,1,.36,1.41l.37,16.61c0,.24-.22.43-.67.55s-.71,0-.79-.31a54,54,0,0,0-6.54-13.5q-4.08-6-12.27-6a12,12,0,0,0-8.74,3.18c-2.16,2.11-3.23,5-3.23,8.67A14.33,14.33,0,0,0,913.07,277.08Z"
              transform="translate(0.01)"/>
    </g>
    <g id="HomeOffice" fill="#fff">
        <path d="M288.08,77.46a2.09,2.09,0,0,0-1.29,1.32,10.32,10.32,0,0,0-.34,3.17v28.56a10.26,10.26,0,0,0,.34,3.17,2.07,2.07,0,0,0,1.29,1.32,11,11,0,0,0,3,.47v1.15q-2.4-.18-7.37-.18-4.65,0-7.31.18v-1.15a10.86,10.86,0,0,0,3-.47,2.06,2.06,0,0,0,1.3-1.32,10.26,10.26,0,0,0,.34-3.17V96.69H262.38v13.82a10.56,10.56,0,0,0,.33,3.17A2.11,2.11,0,0,0,264,115a11,11,0,0,0,3,.47v1.15c-1.76-.12-4.19-.18-7.31-.18-3.3,0-5.75.06-7.37.18v-1.15a10.86,10.86,0,0,0,3-.47,2.06,2.06,0,0,0,1.3-1.32,10.26,10.26,0,0,0,.34-3.17V82a10.32,10.32,0,0,0-.34-3.17,2.08,2.08,0,0,0-1.3-1.32,11.66,11.66,0,0,0-3-.46V75.85c1.63.12,4.11.17,7.44.17,3.07,0,5.51,0,7.31-.17V77a11.79,11.79,0,0,0-3,.46,2.09,2.09,0,0,0-1.29,1.32,10.32,10.32,0,0,0-.34,3.17V95.56h18.7V82a10.63,10.63,0,0,0-.33-3.17,2.13,2.13,0,0,0-1.3-1.32,11.79,11.79,0,0,0-3-.46V75.85c1.76.12,4.19.17,7.31.17,3.29,0,5.75,0,7.37-.17V77A12.18,12.18,0,0,0,288.08,77.46Z"
              transform="translate(0.01)"/>
        <path d="M324,77.52a16.49,16.49,0,0,1,6.39,7.17,25.14,25.14,0,0,1,2.28,11.2,25.73,25.73,0,0,1-2.33,11.23,18.1,18.1,0,0,1-6.5,7.6,17.1,17.1,0,0,1-9.47,2.7,18.1,18.1,0,0,1-9.59-2.47,16.4,16.4,0,0,1-6.4-7.17,25.41,25.41,0,0,1-2.28-11.2,26,26,0,0,1,2.33-11.23,18.24,18.24,0,0,1,6.51-7.6A17.1,17.1,0,0,1,314.42,75,18.31,18.31,0,0,1,324,77.52Zm-16.3,1.12a16.62,16.62,0,0,0-4.31,7.17,33.34,33.34,0,0,0-1.52,10.54,30,30,0,0,0,1.7,10.54,16.64,16.64,0,0,0,4.57,7,9.64,9.64,0,0,0,6.46,2.48,9.26,9.26,0,0,0,6.47-2.57,16.43,16.43,0,0,0,4.32-7.17,33.53,33.53,0,0,0,1.53-10.53,30.29,30.29,0,0,0-1.7-10.54,16.92,16.92,0,0,0-4.58-7,9.68,9.68,0,0,0-6.45-2.47A9.36,9.36,0,0,0,307.71,78.64Z"
              transform="translate(0.01)"/>
        <path d="M380,77.46a2.11,2.11,0,0,0-1.29,1.32,11,11,0,0,0-.35,3.17v28.56a10.91,10.91,0,0,0,.35,3.17A2.07,2.07,0,0,0,380,115a11,11,0,0,0,3,.47v1.15q-2.64-.18-7.32-.18c-3.3,0-5.75.06-7.37.18v-1.15a10.86,10.86,0,0,0,3-.47,2,2,0,0,0,1.3-1.32,10.26,10.26,0,0,0,.35-3.17V79.65L359.06,116.9h-.92L343.68,79.53v30.41a11.39,11.39,0,0,0,.37,3.34,2.61,2.61,0,0,0,1.47,1.58,9.87,9.87,0,0,0,3.4.61v1.15c-1.39-.12-3.34-.18-5.88-.18-2.3,0-4.09.06-5.35.18v-1.15a7.92,7.92,0,0,0,3-.61,2.52,2.52,0,0,0,1.33-1.61,11.51,11.51,0,0,0,.34-3.31v-28a10.32,10.32,0,0,0-.34-3.17,2.08,2.08,0,0,0-1.3-1.32,11.66,11.66,0,0,0-3-.46V75.85c1.26.11,3,.17,5.35.17,2,0,3.63-.06,4.9-.17l12.66,33.34L373,76h2.71c3.1,0,5.54,0,7.32-.17V77A12,12,0,0,0,380,77.46Z"
              transform="translate(0.01)"/>
        <path d="M417.77,116.62q-3.9-.18-13.19-.18-11.06,0-16.7.18v-1.15a10.86,10.86,0,0,0,3-.47,2,2,0,0,0,1.3-1.32,10.26,10.26,0,0,0,.35-3.17V82a10.3,10.3,0,0,0-.35-3.17,2,2,0,0,0-1.3-1.32,11.66,11.66,0,0,0-3-.46V75.85q5.64.18,16.7.17,8.46,0,12-.17a67.05,67.05,0,0,0-.41,6.79,30.27,30.27,0,0,0,.18,3.57H415a25.57,25.57,0,0,0-1-5.55A4.58,4.58,0,0,0,411.85,78a9.72,9.72,0,0,0-4.55-.84h-4.78a10.46,10.46,0,0,0-3,.32,2,2,0,0,0-1.29,1.29,11,11,0,0,0-.35,3.17V95.55h3.8a4.36,4.36,0,0,0,4.58-3.19,20.11,20.11,0,0,0,.6-3.26L407,88h1.32c-.11,1.61-.17,3.42-.17,5.41v2.77c0,2,.12,4.69.34,8.17h-1.32c0-.26-.15-1.19-.35-2.79a5.68,5.68,0,0,0-1.58-3.6,5.1,5.1,0,0,0-3.6-1.21h-3.8v13.82a10.91,10.91,0,0,0,.35,3.17,2,2,0,0,0,1.29,1.3,10.15,10.15,0,0,0,3,.31h4.25a12.09,12.09,0,0,0,5.44-1,5.7,5.7,0,0,0,2.74-3,22.94,22.94,0,0,0,1.26-6.19h1.33a41.15,41.15,0,0,0-.18,4.15A62.54,62.54,0,0,0,417.77,116.62Z"
              transform="translate(0.01)"/>
        <path d="M477.93,91.34a10.36,10.36,0,0,1-4.29,3l-3,1.21-3,1.15a7.61,7.61,0,0,1,6.1,7.49,11.32,11.32,0,0,1-2.1,6.65,14.23,14.23,0,0,1-6.14,4.81,23.35,23.35,0,0,1-9.56,1.78,26.78,26.78,0,0,1-9-1.46,15.68,15.68,0,0,1-6.56-4.21,9.28,9.28,0,0,1-2.45-6.36,10.67,10.67,0,0,1,1.7-6.11,13.19,13.19,0,0,1,3.86-3.8,15.19,15.19,0,0,1,3.94-1.78,9.94,9.94,0,0,1-4.32-2.54,5.31,5.31,0,0,1-1.5-3.74,5.7,5.7,0,0,1,2.6-4.72,12,12,0,0,1,7.19-1.9,9.53,9.53,0,0,1,5.94,1.73,6.13,6.13,0,0,1,1.58,1.93,4.41,4.41,0,0,1,.55,2,2.74,2.74,0,0,1-1,2.22,3.37,3.37,0,0,1-2.25.83,3.16,3.16,0,0,1-2.13-.75,2.66,2.66,0,0,1-.86-2.13,3.15,3.15,0,0,1,3.05-3.16,2.65,2.65,0,0,0-1.47-1.3,6.65,6.65,0,0,0-2.79-.55,7.23,7.23,0,0,0-4.9,1.67,5.52,5.52,0,0,0-1.9,4.26,7.73,7.73,0,0,0,.64,3.29,6.58,6.58,0,0,0,2.3,2.47,21.47,21.47,0,0,1,3.57-.34,3.33,3.33,0,0,1,1.67.37,1.1,1.1,0,0,1,.63,1c0,.73-.53,1.1-1.61,1.1a5.65,5.65,0,0,1-1.9-.35c-.65-.23-1.42-.54-2.3-.92q-6.35,2.13-6.33,8.81a8.65,8.65,0,0,0,1.92,5.61,12,12,0,0,0,5.33,3.66,21.77,21.77,0,0,0,7.66,1.27,25.28,25.28,0,0,0,8.2-1.21,12.51,12.51,0,0,0,5.47-3.37,7.24,7.24,0,0,0,1.93-5,7.5,7.5,0,0,0-1.18-4q-1.19-2-4.69-2.82l-5.92,2.24a15.55,15.55,0,0,0-4.09,2.16,3.81,3.81,0,0,0-.73,5.34,4,4,0,0,0,.43.48,4.22,4.22,0,0,0,2.89,1.06,6.91,6.91,0,0,0,2.25-.34c.69-.23,1.08-.54,1.2-.92a4,4,0,0,1-1.92-.93,2.51,2.51,0,0,1-.78-2,2.81,2.81,0,0,1,.89-2.19,3.26,3.26,0,0,1,2.28-.81,3,3,0,0,1,2.21.87,3.09,3.09,0,0,1,.84,2.24,4.07,4.07,0,0,1-2.16,3.63,8.58,8.58,0,0,1-4.65,1.33,5.59,5.59,0,0,1-4-1.39,5.2,5.2,0,0,1-1.47-4q0-5.87,7.95-8.69l2.08-.75a76.11,76.11,0,0,0,9.67-3.75,10.71,10.71,0,0,0,3.4-2.36,3.82,3.82,0,0,0,1-2.53,3.72,3.72,0,0,0-1.47-3,5.65,5.65,0,0,0-3.62-1.21,2.63,2.63,0,0,0-1,.17,1,1,0,0,0-.54.4,2.59,2.59,0,0,1,1.17,1.12,3.2,3.2,0,0,1,.45,1.53,2.56,2.56,0,0,1-1,2,3.24,3.24,0,0,1-2.21.83,3.3,3.3,0,0,1-2.22-.75,2.51,2.51,0,0,1-.9-2,3.26,3.26,0,0,1,1.93-3.14,10.25,10.25,0,0,1,4.52-1,6.63,6.63,0,0,1,4.58,1.64,5.75,5.75,0,0,1,1.81,4.52A6.77,6.77,0,0,1,477.93,91.34Z"
              transform="translate(0.01)"/>
        <path d="M526.13,77.52a16.49,16.49,0,0,1,6.39,7.17,25.61,25.61,0,0,1,2.28,11.2,25.88,25.88,0,0,1-2.34,11.23,18,18,0,0,1-6.51,7.6,16.88,16.88,0,0,1-9.46,2.7A18.19,18.19,0,0,1,506.9,115a16.44,16.44,0,0,1-6.39-7.17,25.27,25.27,0,0,1-2.27-11.2,25.59,25.59,0,0,1,2.33-11.23,18,18,0,0,1,6.51-7.6A17.06,17.06,0,0,1,516.55,75,18.3,18.3,0,0,1,526.13,77.52Zm-16.3,1.12a16.79,16.79,0,0,0-4.32,7.17A33.62,33.62,0,0,0,504,96.35a30.44,30.44,0,0,0,1.69,10.54,16.92,16.92,0,0,0,4.58,7,9.64,9.64,0,0,0,6.45,2.48,9.23,9.23,0,0,0,6.48-2.57,16.45,16.45,0,0,0,4.32-7.17A33.53,33.53,0,0,0,529,96.1a30.51,30.51,0,0,0-1.69-10.54,17,17,0,0,0-4.59-7,9.64,9.64,0,0,0-6.45-2.47A9.31,9.31,0,0,0,509.83,78.64Z"
              transform="translate(0.01)"/>
        <path d="M568.13,83.22c0,1.92.06,3.49.17,4.72H567a35.26,35.26,0,0,0-1.15-6.59,5.38,5.38,0,0,0-2.42-3.17,10.85,10.85,0,0,0-5.3-1h-3.63a10.46,10.46,0,0,0-3,.32,2,2,0,0,0-1.3,1.29,11.33,11.33,0,0,0-.34,3.17V96.12H554a4.36,4.36,0,0,0,4.58-3.2,19.81,19.81,0,0,0,.61-3.25l.17-1.15h1.32c-.11,1.61-.17,3.41-.17,5.41v2.76q0,2.94.35,8.18h-1.33c0-.27-.15-1.2-.34-2.79a5.62,5.62,0,0,0-1.59-3.6,5,5,0,0,0-3.6-1.21h-4.2v13.24a8.11,8.11,0,0,0,.46,3.17,2.48,2.48,0,0,0,1.61,1.32,16.39,16.39,0,0,0,3.75.47v1.15q-3-.18-8.47-.18c-3.3,0-5.75.06-7.37.18v-1.15a10.86,10.86,0,0,0,3-.47,2.06,2.06,0,0,0,1.3-1.32,10.26,10.26,0,0,0,.34-3.17V82a10.32,10.32,0,0,0-.34-3.17,2.06,2.06,0,0,0-1.3-1.32,11.66,11.66,0,0,0-3-.46V75.85q5.64.18,16.7.17,8.46,0,12-.17C568.27,78.57,568.13,81,568.13,83.22Z"
              transform="translate(0.01)"/>
        <path d="M600.9,83.22a37.77,37.77,0,0,0,.17,4.72h-1.3a34.32,34.32,0,0,0-1.15-6.59,5.38,5.38,0,0,0-2.42-3.17,10.85,10.85,0,0,0-5.3-1h-3.61a10.75,10.75,0,0,0-3,.32A2,2,0,0,0,583,78.79a10.3,10.3,0,0,0-.35,3.17V96.12h4.12a4.34,4.34,0,0,0,4.58-3.2,19.79,19.79,0,0,0,.6-3.25l.17-1.15h1.33c-.12,1.61-.18,3.41-.18,5.41v2.76q0,2.94.35,8.18h-1.33c0-.27-.15-1.2-.34-2.79a5.58,5.58,0,0,0-1.58-3.6,5.1,5.1,0,0,0-3.6-1.21h-4.21v13.24a8.3,8.3,0,0,0,.46,3.17,2.49,2.49,0,0,0,1.62,1.32,16.3,16.3,0,0,0,3.74.47v1.15q-3-.18-8.47-.18c-3.3,0-5.75.06-7.37.18v-1.15a10.86,10.86,0,0,0,3-.47,2,2,0,0,0,1.29-1.32,10.26,10.26,0,0,0,.35-3.17V82a10.3,10.3,0,0,0-.35-3.17,2.07,2.07,0,0,0-1.29-1.32,12.1,12.1,0,0,0-3-.46V75.85q5.65.18,16.7.17,8.47,0,12-.17C601,78.57,600.9,81,600.9,83.22Z"
              transform="translate(0.01)"/>
        <path d="M620,77a11.79,11.79,0,0,0-3,.46,2.13,2.13,0,0,0-1.3,1.32,11,11,0,0,0-.34,3.17v28.56a10.9,10.9,0,0,0,.34,3.17A2.11,2.11,0,0,0,617,115a11,11,0,0,0,3,.47v1.15c-1.77-.12-4.2-.18-7.31-.18-3.3,0-5.75.06-7.37.18v-1.15a10.86,10.86,0,0,0,3-.47,2.06,2.06,0,0,0,1.3-1.32,10.57,10.57,0,0,0,.35-3.17V82a10.65,10.65,0,0,0-.35-3.17,2.08,2.08,0,0,0-1.3-1.32,11.66,11.66,0,0,0-3-.46V75.85c1.61.12,4.07.17,7.37.17,3.08,0,5.51,0,7.31-.17Z"
              transform="translate(0.01)"/>
        <path d="M649.21,76a20.27,20.27,0,0,1,4.72,2.76,1.78,1.78,0,0,0,1.09.52q1.15,0,1.5-3.45h1.33q-.24,3.74-.23,13.24H656.3a47.28,47.28,0,0,0-1.16-5.38,9.73,9.73,0,0,0-1.72-3.14A10.77,10.77,0,0,0,649,77.2a14.73,14.73,0,0,0-5.78-1.12,9.54,9.54,0,0,0-6.54,2.47,16.18,16.18,0,0,0-4.35,7.06,33.72,33.72,0,0,0-1.57,10.74,31.27,31.27,0,0,0,1.67,10.77,15.21,15.21,0,0,0,4.63,6.82,10.6,10.6,0,0,0,6.72,2.33,14.72,14.72,0,0,0,5.59-1.09,9.52,9.52,0,0,0,4.26-3.29,11.26,11.26,0,0,0,1.67-3.45,43,43,0,0,0,1-5.64h1.32q0,9.9.23,13.82h-1.32a11.12,11.12,0,0,0-.49-2.62c-.22-.52-.51-.78-.9-.78a2.68,2.68,0,0,0-1.21.46,23.86,23.86,0,0,1-5,2.79,15,15,0,0,1-5.71,1A18.21,18.21,0,0,1,633.7,115a16.58,16.58,0,0,1-6.4-7.17A25.69,25.69,0,0,1,625,96.63a26,26,0,0,1,2.33-11.23,18.24,18.24,0,0,1,6.51-7.6A17,17,0,0,1,643.33,75,15.89,15.89,0,0,1,649.21,76Z"
              transform="translate(0.01)"/>
        <path d="M693.89,116.62q-3.92-.18-13.19-.18-11,0-16.7.18v-1.15a10.86,10.86,0,0,0,3-.47,2,2,0,0,0,1.29-1.32,10.26,10.26,0,0,0,.35-3.17V82a10.3,10.3,0,0,0-.35-3.17A2.07,2.07,0,0,0,667,77.46a12.1,12.1,0,0,0-3-.46V75.85q5.65.18,16.7.17,8.49,0,12-.17a67,67,0,0,0-.4,6.79,30.27,30.27,0,0,0,.17,3.57h-1.33a26.83,26.83,0,0,0-1-5.55A4.63,4.63,0,0,0,688,78a9.7,9.7,0,0,0-4.54-.84h-4.79a10.46,10.46,0,0,0-3,.32,2,2,0,0,0-1.3,1.29,10.6,10.6,0,0,0-.34,3.17V95.55h3.8a4.37,4.37,0,0,0,4.58-3.19A22.55,22.55,0,0,0,683,89.1L683.2,88h1.32c-.1,1.61-.16,3.42-.16,5.41v2.77c0,2,.11,4.69.34,8.17h-1.33c0-.26-.15-1.19-.34-2.79a5.62,5.62,0,0,0-1.59-3.6,5.1,5.1,0,0,0-3.6-1.21H674v13.82a10.91,10.91,0,0,0,.35,3.17,2,2,0,0,0,1.3,1.3,10.15,10.15,0,0,0,3,.31h4.2a12.09,12.09,0,0,0,5.44-1,5.7,5.7,0,0,0,2.74-3,23,23,0,0,0,1.27-6.19h1.32a41.14,41.14,0,0,0-.17,4.15C693.49,111.44,693.63,113.89,693.89,116.62Z"
              transform="translate(0.01)"/>
    </g>
    <g id="Organizers" fill="#fff">
        <path d="M327.47,478.84a16.44,16.44,0,0,1,6.39,7.17,25.41,25.41,0,0,1,2.28,11.2,25.83,25.83,0,0,1-2.33,11.22A18.14,18.14,0,0,1,327.3,516a17.05,17.05,0,0,1-9.47,2.7,18.24,18.24,0,0,1-9.59-2.47,16.5,16.5,0,0,1-6.39-7.17,25.41,25.41,0,0,1-2.28-11.2,25.88,25.88,0,0,1,2.34-11.23,18,18,0,0,1,6.5-7.6,17,17,0,0,1,9.47-2.71A18.23,18.23,0,0,1,327.47,478.84Zm-16.29,1.1a16.54,16.54,0,0,0-4.32,7.17,33.34,33.34,0,0,0-1.53,10.54,30,30,0,0,0,1.7,10.53,16.82,16.82,0,0,0,4.58,7,9.67,9.67,0,0,0,6.45,2.48,9.36,9.36,0,0,0,6.48-2.57,16.39,16.39,0,0,0,4.31-7.16,33.34,33.34,0,0,0,1.53-10.54,30.22,30.22,0,0,0-1.74-10.45,16.82,16.82,0,0,0-4.58-7,9.66,9.66,0,0,0-6.45-2.47A9.29,9.29,0,0,0,311.18,479.94Z"
              transform="translate(0.01)"/>
        <path d="M376.74,515.06a10.17,10.17,0,0,1-2.65,2.82,6.38,6.38,0,0,1-3.52.86,5.58,5.58,0,0,1-3.88-1.38,9,9,0,0,1-2.28-4.84l-1.26-5.75a41,41,0,0,0-1.3-4.61,5.9,5.9,0,0,0-1.81-2.59,5.28,5.28,0,0,0-3.4-1h-5.47v13.24a10.57,10.57,0,0,0,.34,3.17,2.06,2.06,0,0,0,1.3,1.32,11.3,11.3,0,0,0,3,.46v1.18q-2.64-.18-7.31-.18-5,0-7.37.18v-1.16a11.24,11.24,0,0,0,3-.46,2.06,2.06,0,0,0,1.3-1.32,10.26,10.26,0,0,0,.34-3.17V483.27a10.26,10.26,0,0,0-.34-3.17,2.06,2.06,0,0,0-1.3-1.32,11.66,11.66,0,0,0-3-.46v-1.15c1.61.11,3.95.16,7,.17l6.22-.06c.73,0,1.56-.06,2.48-.06q6.68,0,10.28,2.8a8.72,8.72,0,0,1,3.6,7.22,10.61,10.61,0,0,1-1.07,4.53,10.73,10.73,0,0,1-3.57,4.08,14.93,14.93,0,0,1-6.53,2.45l.69.12a8.3,8.3,0,0,1,8.06,7.6l1.44,5.87a12.69,12.69,0,0,0,1.21,3.69,1.92,1.92,0,0,0,1.72,1,2.58,2.58,0,0,0,1.65-.52,8.6,8.6,0,0,0,1.52-1.67Zm-24-36.34a2.31,2.31,0,0,0-1.24,1.44,10.5,10.5,0,0,0-.34,3.11v14.17H355q5.7,0,7.83-2.54a10.56,10.56,0,0,0,2.13-7q0-4.72-2.25-7.14t-7.31-2.42a6.92,6.92,0,0,0-2.67.38Z"
              transform="translate(0.01)"/>
        <path d="M403.28,477.31a26.89,26.89,0,0,1,4.78,2.79,2.22,2.22,0,0,0,1.15.58q1.1,0,1.44-3.51H412q-.23,3.74-.22,13.24h-1.33a45,45,0,0,0-1.09-5,10,10,0,0,0-1.79-3.47,11.51,11.51,0,0,0-4.35-3.28,13.39,13.39,0,0,0-5.61-1.21,10,10,0,0,0-6.68,2.47,15.62,15.62,0,0,0-4.43,7.06,33.07,33.07,0,0,0-1.56,10.68q0,10.36,3.31,15.17t10.4,4.81a10.1,10.1,0,0,0,6-1.78A3.7,3.7,0,0,0,406,514.5a4.3,4.3,0,0,0,.31-1.81v-5.53a9.7,9.7,0,0,0-.46-3.51,2.55,2.55,0,0,0-1.61-1.5,14.3,14.3,0,0,0-3.74-.52v-1.15c2,.12,4.7.17,8.12.17,2.61,0,4.61,0,6-.17v1.15a5,5,0,0,0-1.93.46,1.85,1.85,0,0,0-.81,1.33,17.71,17.71,0,0,0-.2,3.17v11.35h-1.15a7,7,0,0,0-.46-2.22c-.27-.71-.64-1.07-1.1-1.07a1.39,1.39,0,0,0-.69.18,9.74,9.74,0,0,0-1.21.8,15.42,15.42,0,0,1-4.17,2.34,14.3,14.3,0,0,1-4.81.77,20,20,0,0,1-10.16-2.44,16.21,16.21,0,0,1-6.48-7.06,24.84,24.84,0,0,1-2.25-11,26.53,26.53,0,0,1,2.39-11.54,18.1,18.1,0,0,1,6.6-7.66,17.38,17.38,0,0,1,9.56-2.68A14,14,0,0,1,403.28,477.31Z"
              transform="translate(0.01)"/>
        <path d="M453.15,516.78v1.16q-2.31-.18-6.16-.18c-3.31,0-5.76.06-7.37.18v-1.16a9.24,9.24,0,0,0,3.13-.54,1.58,1.58,0,0,0,.95-1.59A7.91,7.91,0,0,0,443,512l-3.51-9.45H425.56l-2.36,6.11a15,15,0,0,0-1.15,4.72,2.86,2.86,0,0,0,1.24,2.59,7.29,7.29,0,0,0,3.77.86v1.16c-2.19-.12-4.39-.18-6.62-.18q-2.16,0-4.32.18v-1.16c1.92-.46,3.43-2.13,4.55-5l13.53-34.89h.92l14,36.22C450.07,515.48,451.42,516.71,453.15,516.78ZM439,501.35l-6.4-17.21-6.57,17.21Z"
              transform="translate(0.01)"/>
        <path d="M490.23,478.32a8.11,8.11,0,0,0-3,.6,2.54,2.54,0,0,0-1.33,1.62,11.91,11.91,0,0,0-.34,3.31v34.37h-1.32l-24.18-37.37v30.41a11.06,11.06,0,0,0,.37,3.34,2.64,2.64,0,0,0,1.47,1.58,9.86,9.86,0,0,0,3.4.6v1.16q-2.07-.18-5.88-.18c-2.3,0-4.08.06-5.35.18v-1.16a7.73,7.73,0,0,0,3-.6,2.55,2.55,0,0,0,1.33-1.61,11.91,11.91,0,0,0,.34-3.31v-28a10.26,10.26,0,0,0-.34-3.17,2.06,2.06,0,0,0-1.3-1.32,11.66,11.66,0,0,0-3-.46v-1.15c1.27.11,3,.17,5.35.17,1.73,0,3.23-.06,4.5-.17l20.32,31.32V483.85a11.06,11.06,0,0,0-.37-3.34,2.6,2.6,0,0,0-1.47-1.59,10.36,10.36,0,0,0-3.4-.6v-1.15c1.38.11,3.34.16,5.88.17,2.3,0,4.08-.06,5.35-.17Z"
              transform="translate(0.01)"/>
        <path d="M509.41,478.32a11.79,11.79,0,0,0-3,.46,2.07,2.07,0,0,0-1.29,1.32,10.26,10.26,0,0,0-.35,3.17v28.56a10.26,10.26,0,0,0,.35,3.17,2.07,2.07,0,0,0,1.29,1.32,11.3,11.3,0,0,0,3,.46v1.16q-2.66-.18-7.32-.18-4.95,0-7.37.18v-1.16a11.24,11.24,0,0,0,3-.46A2.07,2.07,0,0,0,499,515a10.26,10.26,0,0,0,.35-3.17V483.27a10.26,10.26,0,0,0-.35-3.17,2.07,2.07,0,0,0-1.29-1.32,11.66,11.66,0,0,0-3-.46v-1.15c1.61.11,4.07.16,7.37.17q4.61,0,7.32-.17Z"
              transform="translate(0.01)"/>
        <path d="M543.49,478.32l-23,38.29h11.29a11.69,11.69,0,0,0,5.44-1,6,6,0,0,0,2.73-3.25,25.8,25.8,0,0,0,1.27-6.51h1.32c-.11,1.19-.17,2.77-.17,4.73q0,3.27.4,7.37-4.26-.18-14.33-.18-9.86,0-14.23.18v-1.16l23.15-38.29h-11.2a11.82,11.82,0,0,0-5.44,1,6,6,0,0,0-2.73,3.25,25.8,25.8,0,0,0-1.27,6.51h-1.33c.12-1.23.18-2.8.18-4.72,0-2.19-.14-4.64-.41-7.37q4.26.16,14.34.17,9.79,0,14-.17Z"
              transform="translate(0.01)"/>
        <path d="M578.33,517.94q-3.92-.18-13.18-.18-11.07,0-16.7.18v-1.16a11.24,11.24,0,0,0,3-.46,2.07,2.07,0,0,0,1.29-1.32,10,10,0,0,0,.35-3.17V483.27a10.26,10.26,0,0,0-.35-3.17,2.07,2.07,0,0,0-1.29-1.32,11.66,11.66,0,0,0-3-.46v-1.15q5.64.16,16.7.17,8.46,0,12-.17a66.87,66.87,0,0,0-.4,6.79,30.47,30.47,0,0,0,.17,3.57h-1.28a26.83,26.83,0,0,0-1-5.55,4.64,4.64,0,0,0-2.13-2.65,9.5,9.5,0,0,0-4.55-.84h-4.78a10.46,10.46,0,0,0-3,.32,2,2,0,0,0-1.3,1.29,10.26,10.26,0,0,0-.35,3.17v13.59h3.81a4.34,4.34,0,0,0,4.57-3.2,20,20,0,0,0,.61-3.25l.17-1.15H569c-.12,1.61-.18,3.42-.18,5.41v2.77q0,2.94.35,8.17h-1.33c0-.26-.15-1.2-.34-2.79a5.66,5.66,0,0,0-1.58-3.6,5.13,5.13,0,0,0-3.6-1.21h-3.81v13.82a10.26,10.26,0,0,0,.35,3.17,2,2,0,0,0,1.3,1.3,10.45,10.45,0,0,0,3,.31h4.2a12.23,12.23,0,0,0,5.44-1,5.69,5.69,0,0,0,2.74-3,22.66,22.66,0,0,0,1.27-6.19h1.32a41,41,0,0,0-.17,4.15A66.17,66.17,0,0,0,578.33,517.94Z"
              transform="translate(0.01)"/>
        <path d="M619.1,515.06a10,10,0,0,1-2.65,2.82,6.34,6.34,0,0,1-3.51.86,5.61,5.61,0,0,1-3.89-1.38,9,9,0,0,1-2.27-4.84l-1.27-5.75a37.11,37.11,0,0,0-1.29-4.61,5.92,5.92,0,0,0-1.82-2.59,5.28,5.28,0,0,0-3.4-1h-5.47v13.24a10.26,10.26,0,0,0,.35,3.17,2.07,2.07,0,0,0,1.29,1.32,11.3,11.3,0,0,0,3,.46v1.18c-1.77-.12-4.2-.18-7.32-.18-3.3,0-5.75.06-7.37.18v-1.16a11.24,11.24,0,0,0,3-.46,2.07,2.07,0,0,0,1.29-1.32,10.26,10.26,0,0,0,.35-3.17V483.27a10.26,10.26,0,0,0-.35-3.17,2.07,2.07,0,0,0-1.29-1.32,11.66,11.66,0,0,0-3-.46v-1.15c1.62.11,3.95.16,7,.17l6.22-.06c.73,0,1.55-.06,2.47-.06q6.69,0,10.28,2.8a8.72,8.72,0,0,1,3.6,7.22,10.6,10.6,0,0,1-1.06,4.53,10.73,10.73,0,0,1-3.57,4.08,15,15,0,0,1-6.54,2.45l.69.12a8.29,8.29,0,0,1,8.06,7.6l1.44,5.87a13.43,13.43,0,0,0,1.21,3.69,1.94,1.94,0,0,0,1.73,1,2.55,2.55,0,0,0,1.64-.52,9,9,0,0,0,1.53-1.67Zm-24-36.34a2.28,2.28,0,0,0-1.24,1.44,10.51,10.51,0,0,0-.35,3.11v14.17h3.86q5.7,0,7.83-2.54a10.56,10.56,0,0,0,2.13-7q0-4.72-2.24-7.14t-7.32-2.42a6.82,6.82,0,0,0-2.65.38Z"
              transform="translate(0.01)"/>
        <path d="M637.15,477.08a14.82,14.82,0,0,1,3,1.58,4.15,4.15,0,0,0,2,.81.88.88,0,0,0,.81-.6,7.15,7.15,0,0,0,.46-1.93h1.32q-.29,3.33-.28,11.74h-1.33a14.89,14.89,0,0,0-2.68-7.86,7.83,7.83,0,0,0-6.76-3.19,7,7,0,0,0-5.07,1.87,6.37,6.37,0,0,0-2,4.81,7,7,0,0,0,1,3.8,10,10,0,0,0,2.56,2.76q1.56,1.15,4.44,2.94l1.67,1a55.94,55.94,0,0,1,5.73,3.94,14.11,14.11,0,0,1,3.37,3.89,10,10,0,0,1,1.26,5.12,9.89,9.89,0,0,1-3.45,8.09,13.31,13.31,0,0,1-8.75,2.85,15,15,0,0,1-4.52-.57,16.11,16.11,0,0,1-3.37-1.56,4,4,0,0,0-2-.8.88.88,0,0,0-.81.6,7.15,7.15,0,0,0-.46,1.93H622q.23-3.16.23-13.82h1.37a18.79,18.79,0,0,0,2.88,9.44c1.65,2.42,4.19,3.63,7.6,3.63a7.7,7.7,0,0,0,5.3-1.93,7.2,7.2,0,0,0,2.19-5.73,7.59,7.59,0,0,0-2.16-5.47,34.54,34.54,0,0,0-6.83-5.06q-3.39-2.08-5.49-3.69a13.17,13.17,0,0,1-3.43-3.89,10.41,10.41,0,0,1-1.33-5.32q0-4.84,3.11-7.4a13.08,13.08,0,0,1,11.67-2Z"
              transform="translate(0.01)"/>
    </g>
</svg>
