<?xml version="1.0" encoding="utf-8"?>
<!-- Generator: Adobe Illustrator 25.3.1, SVG Export Plug-In . SVG Version: 6.00 Build 0)  -->
<svg version="1.1" xmlns="http://www.w3.org/2000/svg" xmlns:xlink="http://www.w3.org/1999/xlink" x="0px" y="0px"
	 viewBox="0 0 512 512" style="enable-background:new 0 0 512 512;" xml:space="preserve">
<style type="text/css">
	.st0{fill:#DBF4FF;}
</style>
<g id="Layer_1">
	<path class="st0" d="M256,495.9c-64.1,0-124.4-25-169.7-70.3C41,380.2,16,320,16,255.9S41,131.5,86.3,86.2S191.9,15.9,256,15.9
		s124.4,25,169.7,70.3S496,191.8,496,255.9s-25,124.4-70.3,169.7S320.1,495.9,256,495.9z M256,25.9c-126.8,0-230,103.2-230,230
		s103.2,230,230,230s230-103.2,230-230S382.8,25.9,256,25.9z"/>
</g>
<g id="Calque_1">
	<g id="Layer_3">
		<path class="st0" d="M344,297.8c-0.3-0.3-37.9-27.2-48.1-25.4c-4.9,0.9-7.7,4.2-13.3,10.9c-0.9,1.1-3.1,3.7-4.8,5.5
			c-3.5-1.2-7-2.6-10.4-4.2c-17.3-8.4-31.2-22.4-39.6-39.6c-1.7-3.3-3.1-6.8-4.2-10.4c1.8-1.7,4.4-3.9,5.5-4.8
			c6.7-5.6,10-8.4,10.9-13.3c1.8-10.2-25.1-47.8-25.4-48.1c-2.5-3.5-6.4-5.7-10.7-6c-10.9,0-42,40.4-42,47.2c0,0.4,0.6,40.6,50.1,91
			c50.3,49.5,90.5,50,90.9,50c6.8,0,47.2-31.1,47.2-42C349.8,304.2,347.6,300.2,344,297.8z M302.2,337.9
			c-5.5-0.5-39.2-4.9-81.3-46.3c-41.6-42.4-46-76.2-46.4-81.4c8.2-12.9,18.2-24.6,29.5-34.9c0.3,0.3,0.6,0.6,1,1.1
			c8.7,11.9,16.2,24.6,22.4,38c-2,2-4.1,3.9-6.4,5.7c-3.5,2.6-6.6,5.6-9.5,8.9l-1.5,2.1l0.5,2.6c1.3,5.8,3.4,11.3,6.1,16.6
			c9.6,19.8,25.7,35.8,45.5,45.5c5.3,2.7,10.8,4.7,16.6,6.1l2.6,0.5l2.1-1.5c3.3-2.9,6.3-6,9-9.5c2-2.3,4.6-5.5,5.6-6.4
			c13.4,6.2,26.2,13.7,38.1,22.4c0.5,0.4,0.9,0.8,1.1,1C326.9,319.7,315.1,329.7,302.2,337.9L302.2,337.9z"/>
	</g>
</g>
</svg>
