<?xml version="1.0" encoding="utf-8"?>
<!-- Generator: Adobe Illustrator 25.3.1, SVG Export Plug-In . SVG Version: 6.00 Build 0)  -->
<svg version="1.1" id="Layer_1" xmlns="http://www.w3.org/2000/svg" xmlns:xlink="http://www.w3.org/1999/xlink" x="0px" y="0px"
	 viewBox="0 0 512 512" style="enable-background:new 0 0 512 512;" xml:space="preserve" fill="#DBF4FF">
<g>
	<path class="st0" d="M241.5,298.4l17.4,7.3l-25.1,21.5L241.5,298.4z M358.2,199.6l-37.3,99.3c-2.7,5.4-4.2,10.1-5.9,11.9
		c-0.8,0.9-1.5,1.4-3.3,1.7c-1.7,0.3-4.6,0.2-8.9-0.9l-54.2-22.6L358.2,199.6z M336.6,185.6l-136,83.2l-47.4-20.6
		c-1.7-1-2.6-2-2.9-2.7c-0.3-0.7-0.4-1.2,0-2c0.7-1.7,4-5.3,11.8-7.3c0,0,0.1,0,0.1,0l170.3-49.3L336.6,185.6z M376.1,162.3
		c-0.1,0-0.2,0-0.2,0c-0.7,0-1.4,0.2-2,0.5l-44.4,12.9L159.2,225c0,0,0,0,0,0l-0.1,0c-10,2.7-17,7.5-19.6,14.4
		c-1.3,3.5-1.2,7.4,0.3,10.8c1.5,3.4,4.3,6,7.7,8c0.2,0.1,0.4,0.2,0.6,0.3l48.3,21l11.1,34.1c0.9,3.1,4.2,4.9,7.3,3.9
		c3.1-1,4.8-4.4,3.7-7.4L208,277.8l144.6-88.5l-118.7,96.8c0,0,0,0-0.1,0.1c-1.3,1-2.1,2.6-2.2,4.2l-14,51.8c-1.5,5.5,5,9.5,9.4,5.9
		l0.2-0.1c0,0,0.1-0.1,0.1-0.1l43.5-37.2l28.2,11.8c0.2,0.1,0.5,0.2,0.7,0.3c5.4,1.4,9.9,1.9,14,1.2c4-0.7,7.5-2.7,9.8-5.2
		c4.7-5,5.9-10.8,7.9-14.8c0.1-0.2,0.2-0.4,0.2-0.6l49.7-132.4c0,0,0,0,0,0c0.8-1.4,0.9-3.1,0.4-4.7c-0.2-0.5-0.5-1.1-0.8-1.5
		c-0.1-0.1-0.1-0.2-0.2-0.2c0-0.1-0.1-0.1-0.2-0.2c-0.1-0.1-0.1-0.2-0.2-0.2c-0.1-0.1-0.1-0.1-0.2-0.2c-0.1-0.1-0.2-0.1-0.3-0.2
		C378.8,162.8,377.5,162.3,376.1,162.3L376.1,162.3z"/>
</g>
<path class="st0" d="M256,495.9c-64.1,0-124.4-25-169.7-70.3C41,380.2,16,320,16,255.9S41,131.5,86.3,86.2S191.9,15.9,256,15.9
	s124.4,25,169.7,70.3C471,131.5,496,191.8,496,255.9s-25,124.4-70.3,169.7C380.4,470.9,320.1,495.9,256,495.9z M256,25.9
	c-126.8,0-230,103.2-230,230s103.2,230,230,230s230-103.2,230-230S382.8,25.9,256,25.9z"/>
</svg>
