<?xml version="1.0" encoding="utf-8"?>
<!-- Generator: Adobe Illustrator 25.3.1, SVG Export Plug-In . SVG Version: 6.00 Build 0)  -->
<svg version="1.1" id="Calque_1" xmlns="http://www.w3.org/2000/svg" xmlns:xlink="http://www.w3.org/1999/xlink" x="0px" y="0px"
	 viewBox="0 0 1000 1000" style="enable-background:new 0 0 1000 1000;" xml:space="preserve">
<style type="text/css">
	.st0{opacity:0.3;}
	.st1{fill:url(#Tracé_2747_1_);}
</style>
<g id="Groupe_44" transform="translate(-74.661 -380.427)" class="st0">
	
		<linearGradient id="Tracé_2747_1_" gradientUnits="userSpaceOnUse" x1="40.0494" y1="1379.9644" x2="246.1844" y2="1379.9644" gradientTransform="matrix(164.858 0 0 -287.1371 -12195.2637 397119.3125)">
		<stop  offset="6.200000e-02" style="stop-color:#665199"/>
		<stop  offset="0.3" style="stop-color:#37B3EB"/>
	</linearGradient>
	<path id="Tracé_2747" class="st1" d="M679.2,1184.5c0,59.7,13.6,100.5,40.8,122.7c27.3,22.2,74.5,33.2,141.7,33.2v40
		c-136.9-5-224.3-7.6-262.4-7.7c-35.5,0-117.9,1.9-247.1,5.7l-45.6,2v-40c67.2,0,117.6-11.4,151.1-34.2
		c33.6-22.8,50.4-63.4,50.4-121.7v-460c0-60.8-6.3-105.5-19-134.1c-11.6-27.6-35-48.5-63.7-57c-29.8-9.5-75.7-14.2-137.8-14.2v-41.9
		c92.5-2.5,168.8-10.7,229.1-24.7c58.4-13.1,113.7-37.7,162.6-72.2L679.2,1184.5z"/>
</g>
</svg>
