<?xml version="1.0" encoding="utf-8"?>
<!-- Generator: Adobe Illustrator 25.3.1, SVG Export Plug-In . SVG Version: 6.00 Build 0)  -->
<svg version="1.1" id="Calque_1" xmlns="http://www.w3.org/2000/svg" xmlns:xlink="http://www.w3.org/1999/xlink" x="0px" y="0px"
	 viewBox="0 0 1000 1000" style="enable-background:new 0 0 1000 1000;" xml:space="preserve">
<style type="text/css">
	.st0{display:none;opacity:0.3;}
	.st1{display:inline;fill:url(#Tracé_2747_1_);}
	.st2{opacity:0.3;}
	.st3{fill:url(#Tracé_2748_1_);}
</style>
<g id="Groupe_44" transform="translate(-74.661 -380.427)" class="st0">
	
		<linearGradient id="Tracé_2747_1_" gradientUnits="userSpaceOnUse" x1="40.0494" y1="1379.9644" x2="246.1844" y2="1379.9644" gradientTransform="matrix(164.858 0 0 -287.1371 -12195.2637 397119.3125)">
		<stop  offset="6.200000e-02" style="stop-color:#665199"/>
		<stop  offset="0.3" style="stop-color:#37B3EB"/>
	</linearGradient>
	<path id="Tracé_2747" class="st1" d="M679.2,1184.5c0,59.7,13.6,100.5,40.8,122.7c27.3,22.2,74.5,33.2,141.7,33.2v40
		c-136.9-5-224.3-7.6-262.4-7.7c-35.5,0-117.9,1.9-247.1,5.7l-45.6,2v-40c67.2,0,117.6-11.4,151.1-34.2
		c33.6-22.8,50.4-63.4,50.4-121.7v-460c0-60.8-6.3-105.5-19-134.1c-11.6-27.6-35-48.5-63.7-57c-29.8-9.5-75.7-14.2-137.8-14.2v-41.9
		c92.5-2.5,168.8-10.7,229.1-24.7c58.4-13.1,113.7-37.7,162.6-72.2L679.2,1184.5z"/>
</g>
<g id="Groupe_45" transform="translate(309.164 -418.935)" class="st2">
	
		<linearGradient id="Tracé_2748_1_" gradientUnits="userSpaceOnUse" x1="-337.2152" y1="1418.4257" x2="-171.2224" y2="1418.4257" gradientTransform="matrix(201.674 0 0 -278.259 62042.9141 395608.6875)">
		<stop  offset="6.400000e-02" style="stop-color:#665199"/>
		<stop  offset="0.304" style="stop-color:#37B3EB"/>
	</linearGradient>
	<path id="Tracé_2748" class="st3" d="M403.4,480.7c49.9,41.2,74.9,99.3,74.9,174.2c0,51.2-13.4,100.8-40.3,148.9
		c-26.8,48-59.5,92.3-97.4,132.1c-38.1,40-88.3,88-150.7,144.2c-51.2,47.5-89.3,83.4-114.2,107.7c-24.6,23.9-47.2,49.9-67.4,77.7
		h380.2c33.7,0,59-2.8,75.8-8.4c16.9-5.6,28.4-15,34.7-28.1c6.2-13.1,11.2-32.7,15-59h31.8c0,114.9,2.5,197.9,7.5,249
		c-27.5-6.2-120.5-9.3-279-9.3h-438.2v-31.8c21.2-22.5,57.4-58.1,108.6-106.8c71.2-66.1,130.5-125.7,177.9-178.8
		c48.5-54.7,89.7-115.5,122.6-180.8c34.2-66.6,51.8-140.5,51.5-215.4c0-134.8-62.4-202.3-187.3-202.3c-102.4,0-186.1,58.7-250.9,176
		l-30-16.9c31.7-66.4,79.3-124,138.6-167.6C27,441.1,103.7,419,197.4,418.9C284.8,418.9,353.4,439.5,403.4,480.7z"/>
</g>
</svg>
