<?xml version="1.0" encoding="utf-8"?>
<!-- Generator: Adobe Illustrator 25.3.1, SVG Export Plug-In . SVG Version: 6.00 Build 0)  -->
<svg version="1.1" id="Calque_1" xmlns="http://www.w3.org/2000/svg" xmlns:xlink="http://www.w3.org/1999/xlink" x="0px" y="0px"
	 viewBox="0 0 1000 1000" style="enable-background:new 0 0 1000 1000;" xml:space="preserve">
<style type="text/css">
	.st0{display:none;opacity:0.3;}
	.st1{display:inline;fill:url(#Tracé_2747_1_);}
	.st2{display:inline;fill:url(#Tracé_2748_1_);}
	.st3{display:inline;fill:url(#Tracé_2749_1_);}
	.st4{opacity:0.3;}
	.st5{fill:url(#Tracé_2750_1_);}
</style>
<g id="Groupe_44" transform="translate(-74.661 -380.427)" class="st0">
	
		<linearGradient id="Tracé_2747_1_" gradientUnits="userSpaceOnUse" x1="40.0494" y1="1379.9644" x2="246.1844" y2="1379.9644" gradientTransform="matrix(164.858 0 0 -287.1371 -12195.2637 397119.3125)">
		<stop  offset="6.200000e-02" style="stop-color:#665199"/>
		<stop  offset="0.3" style="stop-color:#37B3EB"/>
	</linearGradient>
	<path id="Tracé_2747" class="st1" d="M679.2,1184.5c0,59.7,13.6,100.5,40.8,122.7c27.3,22.2,74.5,33.2,141.7,33.2v40
		c-136.9-5-224.3-7.6-262.4-7.7c-35.5,0-117.9,1.9-247.1,5.7l-45.6,2v-40c67.2,0,117.6-11.4,151.1-34.2
		c33.6-22.8,50.4-63.4,50.4-121.7v-460c0-60.8-6.3-105.5-19-134.1c-11.6-27.6-35-48.5-63.7-57c-29.8-9.5-75.7-14.2-137.8-14.2v-41.9
		c92.5-2.5,168.8-10.7,229.1-24.7c58.4-13.1,113.7-37.7,162.6-72.2L679.2,1184.5z"/>
</g>
<g id="Groupe_45" transform="translate(309.164 -418.935)" class="st0">
	
		<linearGradient id="Tracé_2748_1_" gradientUnits="userSpaceOnUse" x1="-337.2152" y1="1418.4257" x2="-171.2224" y2="1418.4257" gradientTransform="matrix(201.674 0 0 -278.259 62042.9141 395608.6875)">
		<stop  offset="6.400000e-02" style="stop-color:#665199"/>
		<stop  offset="0.304" style="stop-color:#37B3EB"/>
	</linearGradient>
	<path id="Tracé_2748" class="st2" d="M403.4,480.7c49.9,41.2,74.9,99.3,74.9,174.2c0,51.2-13.4,100.8-40.3,148.9
		c-26.8,48-59.5,92.3-97.4,132.1c-38.1,40-88.3,88-150.7,144.2c-51.2,47.5-89.3,83.4-114.2,107.7c-24.6,23.9-47.2,49.9-67.4,77.7
		h380.2c33.7,0,59-2.8,75.8-8.4c16.9-5.6,28.4-15,34.7-28.1c6.2-13.1,11.2-32.7,15-59h31.8c0,114.9,2.5,197.9,7.5,249
		c-27.5-6.2-120.5-9.3-279-9.3h-438.2v-31.8c21.2-22.5,57.4-58.1,108.6-106.8c71.2-66.1,130.5-125.7,177.9-178.8
		c48.5-54.7,89.7-115.5,122.6-180.8c34.2-66.6,51.8-140.5,51.5-215.4c0-134.8-62.4-202.3-187.3-202.3c-102.4,0-186.1,58.7-250.9,176
		l-30-16.9c31.7-66.4,79.3-124,138.6-167.6C27,441.1,103.7,419,197.4,418.9C284.8,418.9,353.4,439.5,403.4,480.7z"/>
</g>
<g id="Groupe_46" transform="translate(-74.371 -380.34)" class="st0">
	
		<linearGradient id="Tracé_2749_1_" gradientUnits="userSpaceOnUse" x1="46.5064" y1="1379.8773" x2="214.7612" y2="1379.8773" gradientTransform="matrix(156.231 0 0 -287.13 -11497.5166 397084.5)">
		<stop  offset="0.129" style="stop-color:#665199"/>
		<stop  offset="0.24" style="stop-color:#37B3EB"/>
	</linearGradient>
	<path id="Tracé_2749" class="st3" d="M733.9,425.9c39.8,30.4,59.6,71.1,59.6,122.1c0,53.9-21.3,102.4-64,145.6
		c-43.6,43.8-96.7,77-155.1,97.1c75.5,2,139.7,22.1,192.6,60.3c52.9,38.2,79.4,92.6,79.4,163.2c0,70.5-27.2,133.8-81.6,189.7
		c-54.4,55.9-123.5,99.3-207.4,130.1c-81.6,30.5-168,46.2-255.1,46.4v-26.5c67.9-1.6,134.8-16.3,197.1-43.4
		c61.8-27,111.8-65.8,150-116.2c38.2-50.5,57.4-110.6,57.4-180.2c0-57.9-14.2-105.7-42.6-143.4c-26.6-36.7-68.1-59.6-113.2-62.5
		c-4,2-13.9,6.1-30.2,12.5c-16.2,6.4-29.2,9.6-38.9,9.6c-15.7,0-23.5-6.4-23.5-19.1c-0.3-8.3,3.9-16.2,11-20.6
		c8.1-5.1,17.6-7.7,27.2-7.4c8.1,0.2,16.2,0.9,24.2,2.2c10.3,1.5,19.4,2.7,27.2,3.7c38.2-29.4,66.7-62.2,85.3-98.5
		c18.3-34.9,27.9-73.8,27.9-113.2c0-45.1-11.3-78.4-33.8-100c-22.5-21.6-53.9-32.4-94.1-32.4c-39.7-0.4-78.7,11.1-111.8,33.2
		c-33.3,22-61.3,54.6-83.8,97.7l-25-11.7c56.8-122.6,146.5-183.9,269.1-183.9C643.5,380.3,694.2,395.5,733.9,425.9z"/>
</g>
<g id="Groupe_47" transform="translate(49.209 -728.34)" class="st4">
	
		<linearGradient id="Tracé_2750_1_" gradientUnits="userSpaceOnUse" x1="-71.907" y1="1727.9172" x2="65.405" y2="1727.9172" gradientTransform="matrix(194.299 0 0 -295.189 9521.1494 511290.5)">
		<stop  offset="0.103" style="stop-color:#665199"/>
		<stop  offset="0.27" style="stop-color:#37B3EB"/>
	</linearGradient>
	<path id="Tracé_2750" class="st5" d="M630.6,1437.2v291.1H511.2v-291.1H121.7v-31.3l485.1-677.6h23.9v609h17.9
		c26.9,0,47-2.2,60.4-6.7c13.4-4.5,22.6-11.9,27.6-22.4c4.9-10.4,9-26.1,11.9-47h25.4c0,83.6,2,144.8,6,183.6
		C766.9,1441.8,717.2,1439.3,630.6,1437.2z M511.2,1337.3V910.4l-301.5,426.9L511.2,1337.3z"/>
</g>
</svg>
